<?xml version="1.0" encoding="UTF-8"?>
<svg id="Camada_1" xmlns="http://www.w3.org/2000/svg" version="1.1" viewBox="0 0 457 168">
  <!-- Generator: Adobe Illustrator 29.6.1, SVG Export Plug-In . SVG Version: 2.1.1 Build 9)  -->
  <path d="M28.61,27.05c12.69,0,20.7,9.54,20.7,20.34,0,14.49-10.44,21.78-21.06,21.78-13.59,0-21.33-10.26-21.33-20.79,0-13.77,11.34-21.33,21.69-21.33ZM27.53,30.65c-3.87,0-7.65,4.05-7.65,15.12s3.69,19.71,9.36,19.71c3.42,0,7.11-2.34,7.11-15.48s-3.24-19.35-8.82-19.35Z"/>
  <path d="M82.79,68.09v-3.06c3.78-.54,4.05-.9,4.05-7.11v-15.39c0-6.39-3.15-8.37-6.3-8.37-2.34,0-4.32.9-6.75,2.7v21.78c0,5.49.36,5.85,4.05,6.39v3.06h-20.88v-3.06c4.68-.81,5.22-.9,5.22-6.75v-18.72c0-5.4-.72-5.67-4.68-6.48v-2.88c5.22-.63,11.43-1.8,16.47-3.42-.09,1.26-.18,4.41-.18,6.48,1.8-1.26,3.69-2.61,5.76-3.87,2.7-1.62,4.41-2.34,7.02-2.34,7.29,0,11.88,5.31,11.88,14.49v17.01c0,5.58.54,5.85,4.86,6.48v3.06h-20.52Z"/>
  <path d="M157.12,65.75c-2.16.36-10.44,1.44-17.64,3.51v-5.22c-1.62,1.08-3.87,2.43-5.49,3.51-2.16,1.35-3.51,1.62-4.5,1.62-7.65,0-18.54-6.57-18.54-19.98,0-12.33,10.89-22.14,24.93-22.14.63,0,2.16,0,3.6.27v-10.35c0-4.77-.45-5.22-6.03-5.94v-2.97c5.94-.63,13.23-1.8,17.73-3.06v51.75c0,4.86.54,5.31,3.96,5.76l1.98.27v2.97ZM139.49,35.6c-.99-2.52-3.33-4.5-6.75-4.5-2.79,0-8.82,1.89-8.82,14.94,0,11.79,6.57,16.11,10.62,16.2,1.62,0,2.97-.27,4.95-1.53v-25.11Z"/>
  <path d="M198.97,59.27c-5.49,8.1-12.69,9.9-16.47,9.9-12.06,0-18.9-8.91-18.9-19.62,0-6.3,2.97-12.51,6.75-16.2,4.05-4.05,9.09-6.3,14.04-6.3,8.82,0,14.94,7.29,14.85,14.67,0,1.53-.09,3.06-1.17,3.33-1.71.45-14.4,1.08-23.13,1.44.36,9.54,5.67,14.4,12.15,14.4,3.51,0,7.02-1.26,10.26-4.05l1.62,2.43ZM182.6,30.74c-3.6,0-6.66,4.23-7.2,11.34,3.69-.09,7.11-.18,10.89-.27,1.26-.09,1.8-.27,1.8-1.8.09-4.5-1.98-9.27-5.49-9.27Z"/>
  <path d="M263.77,59.27c-5.49,8.1-12.69,9.9-16.47,9.9-12.06,0-18.9-8.91-18.9-19.62,0-6.3,2.97-12.51,6.75-16.2,4.05-4.05,9.09-6.3,14.04-6.3,8.82,0,14.94,7.29,14.85,14.67,0,1.53-.09,3.06-1.17,3.33-1.71.45-14.4,1.08-23.13,1.44.36,9.54,5.67,14.4,12.15,14.4,3.51,0,7.02-1.26,10.26-4.05l1.62,2.43ZM247.39,30.74c-3.6,0-6.66,4.23-7.2,11.34,3.69-.09,7.11-.18,10.89-.27,1.26-.09,1.8-.27,1.8-1.8.09-4.5-1.98-9.27-5.49-9.27Z"/>
  <path d="M296.89,39.83c-2.34-6.3-5.4-9.18-9.63-9.18-2.52,0-4.77,1.8-4.77,4.77,0,3.15,2.25,4.86,6.93,6.93,7.29,3.24,12.24,6.3,12.24,13.41,0,9-8.55,13.41-16.38,13.41-4.68,0-9.54-1.8-11.43-2.7-.36-2.07-1.17-8.28-1.44-11.43l2.97-.54c1.89,5.67,5.58,10.98,11.43,10.98,3.42,0,5.13-2.07,5.13-4.68,0-2.79-1.35-4.86-6.93-7.56-5.94-2.88-11.7-6.03-11.7-13.5s5.85-12.69,15.39-12.69c4.32,0,7.65.9,9.72,1.35.27,2.43,1.08,8.19,1.44,10.62l-2.97.81Z"/>
  <path d="M327.31,68.18c-1.53.72-2.97.99-3.6.99-6.93,0-11.07-3.24-11.07-11.43v-25.11h-5.76l-.54-1.08,2.61-3.42h3.69v-7.47c3.06-2.16,7.47-5.04,10.62-7.2l1.17.72c-.09,2.43-.27,7.2-.18,13.95h9c.81.9.45,3.69-.72,4.5h-8.28v22.05c0,7.02,2.88,7.83,4.59,7.83,1.53,0,2.7-.27,4.32-.9l.9,3.24-6.75,3.33Z"/>
  <path d="M369.7,69.17c-2.43,0-4.41-.81-5.58-1.89-1.26-1.08-1.89-2.34-2.34-3.33-3.42,2.25-7.83,5.22-9.54,5.22-7.74,0-12.24-6.03-12.24-11.61,0-4.77,2.16-6.93,6.93-8.82,5.31-1.98,12.42-4.14,14.49-5.94v-3.96c0-4.68-1.71-7.29-5.58-7.29-1.53,0-2.79.72-3.6,1.8-1.08,1.44-1.44,3.24-2.16,5.94-.63,2.43-2.07,3.06-3.87,3.06-2.34,0-5.31-2.16-5.31-4.68,0-1.62,1.08-2.79,3.15-4.23,4.05-2.7,9.36-5.31,14.4-6.39,3.6,0,6.66.81,9.27,2.61,3.87,2.7,4.95,6.48,4.95,11.07v15.57c0,4.32,1.44,5.4,2.88,5.4.9,0,1.8-.27,2.79-.72l.99,3.06-9.63,5.13ZM361.42,46.49c-1.62.9-3.24,1.8-5.04,2.79-2.79,1.44-4.41,3.06-4.41,6.12,0,5.04,3.51,6.84,5.49,6.84,1.26,0,2.52-.09,3.96-1.44v-14.31ZM353.68,20.75l8.55-13.95c.99-.45,9.18-.63,10.71-.36l.18,1.26-17.1,14.76-2.34-1.71Z"/>
  <path d="M428.38,27.05c12.69,0,20.7,9.54,20.7,20.34,0,14.49-10.44,21.78-21.06,21.78-13.59,0-21.33-10.26-21.33-20.79,0-13.77,11.34-21.33,21.69-21.33ZM427.3,30.65c-3.87,0-7.65,4.05-7.65,15.12s3.69,19.71,9.36,19.71c3.42,0,7.11-2.34,7.11-15.48s-3.24-19.35-8.82-19.35Z"/>
  <path d="M7.59,100.2c4.77-.72,10.8-2.43,16.56-4.05v6.48c.18-.09,6.03-3.6,6.3-3.69,2.25-1.35,4.23-1.89,5.85-1.89,9.9,0,15.57,9.09,15.57,17.73,0,13.14-10.44,21.87-22.05,24.39-2.25,0-4.32-.27-5.67-.81v10.8c0,5.04.45,5.58,6.66,6.39v2.97H6.69v-2.97c5.49-.54,5.85-1.35,5.85-6.3v-40.14c0-4.86-.54-5.4-4.95-5.94v-2.97ZM24.15,131.52c1.71,1.71,5.04,3.33,7.38,3.33,4.77,0,8.28-5.85,8.28-15.57,0-11.07-5.49-15.3-9.99-15.3-2.25,0-4.14.9-5.67,1.98v25.56Z"/>
  <path d="M81.66,138.09h-23.76v-3.06c4.77-.54,5.22-.99,5.22-6.39v-19.71c0-4.5-.36-4.95-4.59-5.85v-2.79c5.58-.63,10.62-1.71,16.2-3.42v9.72c4.05-6.21,7.29-9.54,10.98-9.54,3.33,0,5.85,2.25,5.85,5.4,0,4.41-3.15,6.93-4.59,7.65-1.26.54-2.16.09-2.79-.45-1.53-1.26-2.7-2.7-4.23-2.7-1.35,0-3.6,1.17-5.22,4.59v17.1c0,5.4.63,5.67,6.93,6.39v3.06Z"/>
  <path d="M130.44,129.27c-5.49,8.1-12.69,9.9-16.47,9.9-12.06,0-18.9-8.91-18.9-19.62,0-6.3,2.97-12.51,6.75-16.2,4.05-4.05,9.09-6.3,14.04-6.3,8.82,0,14.94,7.29,14.85,14.67,0,1.53-.09,3.06-1.17,3.33-1.71.45-14.4,1.08-23.13,1.44.36,9.54,5.67,14.4,12.15,14.4,3.51,0,7.02-1.26,10.26-4.05l1.62,2.43ZM114.06,100.74c-3.6,0-6.66,4.23-7.2,11.34,3.69-.09,7.11-.18,10.89-.27,1.26-.09,1.8-.27,1.8-1.8.09-4.5-1.98-9.27-5.49-9.27Z"/>
  <path d="M161.85,109.83c-2.34-6.3-5.4-9.18-9.63-9.18-2.52,0-4.77,1.8-4.77,4.77,0,3.15,2.25,4.86,6.93,6.93,7.29,3.24,12.24,6.3,12.24,13.41,0,9-8.55,13.41-16.38,13.41-4.68,0-9.54-1.8-11.43-2.7-.36-2.07-1.17-8.28-1.44-11.43l2.97-.54c1.89,5.67,5.58,10.98,11.43,10.98,3.42,0,5.13-2.07,5.13-4.68,0-2.79-1.35-4.86-6.93-7.56-5.94-2.88-11.7-6.03-11.7-13.5s5.85-12.69,15.39-12.69c4.32,0,7.65.9,9.72,1.35.27,2.43,1.08,8.19,1.44,10.62l-2.97.81Z"/>
  <path d="M172.2,138.09v-3.06c4.86-.63,5.4-.99,5.4-7.38v-17.55c0-6.03-.45-6.39-4.68-6.93v-2.97c5.67-.63,11.34-1.8,16.29-3.24v30.69c0,6.12.36,6.75,5.58,7.38v3.06h-22.59ZM182.73,91.47c-3.42,0-6.48-2.88-6.48-6.39,0-3.69,3.06-6.39,6.57-6.39s6.48,2.7,6.48,6.39-2.88,6.39-6.57,6.39Z"/>
  <path d="M246.18,135.75c-2.16.36-10.44,1.44-17.64,3.51v-5.22c-1.62,1.08-3.87,2.43-5.49,3.51-2.16,1.35-3.51,1.62-4.5,1.62-7.65,0-18.54-6.57-18.54-19.98,0-12.33,10.89-22.14,24.93-22.14.63,0,2.16,0,3.6.27v-10.35c0-4.77-.45-5.22-6.03-5.94v-2.97c5.94-.63,13.23-1.8,17.73-3.06v51.75c0,4.86.54,5.31,3.96,5.76l1.98.27v2.97ZM228.54,105.6c-.99-2.52-3.33-4.5-6.75-4.5-2.79,0-8.82,1.89-8.82,14.94,0,11.79,6.57,16.11,10.62,16.2,1.62,0,2.97-.27,4.95-1.53v-25.11Z"/>
  <path d="M286.32,129.27c-5.49,8.1-12.69,9.9-16.47,9.9-12.06,0-18.9-8.91-18.9-19.62,0-6.3,2.97-12.51,6.75-16.2,4.05-4.05,9.09-6.3,14.04-6.3,8.82,0,14.94,7.29,14.85,14.67,0,1.53-.09,3.06-1.17,3.33-1.71.45-14.4,1.08-23.13,1.44.36,9.54,5.67,14.4,12.15,14.4,3.51,0,7.02-1.26,10.26-4.05l1.62,2.43ZM269.94,100.74c-3.6,0-6.66,4.23-7.2,11.34,3.69-.09,7.11-.18,10.89-.27,1.26-.09,1.8-.27,1.8-1.8.09-4.5-1.98-9.27-5.49-9.27Z"/>
  <path d="M318.27,138.09v-3.06c3.78-.54,4.05-.9,4.05-7.11v-15.39c0-6.39-3.15-8.37-6.3-8.37-2.34,0-4.32.9-6.75,2.7v21.78c0,5.49.36,5.85,4.05,6.39v3.06h-20.88v-3.06c4.68-.81,5.22-.9,5.22-6.75v-18.72c0-5.4-.72-5.67-4.68-6.48v-2.88c5.22-.63,11.43-1.8,16.47-3.42-.09,1.26-.18,4.41-.18,6.48,1.8-1.26,3.69-2.61,5.76-3.87,2.7-1.62,4.41-2.34,7.02-2.34,7.29,0,11.88,5.31,11.88,14.49v17.01c0,5.58.54,5.85,4.86,6.48v3.06h-20.52Z"/>
  <path d="M362.37,138.18c-1.53.72-2.97.99-3.6.99-6.93,0-11.07-3.24-11.07-11.43v-25.11h-5.76l-.54-1.08,2.61-3.42h3.69v-7.47c3.06-2.16,7.47-5.04,10.62-7.2l1.17.72c-.09,2.43-.27,7.2-.18,13.95h9c.81.9.45,3.69-.72,4.5h-8.28v22.05c0,7.02,2.88,7.83,4.59,7.83,1.53,0,2.7-.27,4.32-.9l.9,3.24-6.75,3.33Z"/>
  <path d="M407.55,129.27c-5.49,8.1-12.69,9.9-16.47,9.9-12.06,0-18.9-8.91-18.9-19.62,0-6.3,2.97-12.51,6.75-16.2,4.05-4.05,9.09-6.3,14.04-6.3,8.82,0,14.94,7.29,14.85,14.67,0,1.53-.09,3.06-1.17,3.33-1.71.45-14.4,1.08-23.13,1.44.36,9.54,5.67,14.4,12.15,14.4,3.51,0,7.02-1.26,10.26-4.05l1.62,2.43ZM391.17,100.74c-3.6,0-6.66,4.23-7.2,11.34,3.69-.09,7.11-.18,10.89-.27,1.26-.09,1.8-.27,1.8-1.8.09-4.5-1.98-9.27-5.49-9.27Z"/>
  <path d="M433.2,119.82c-4.95-1.8-10.89-5.94-10.89-11.25,0-3.51,1.89-6.48,8.82-11.25,6.93-4.68,8.73-7.02,8.73-9,0-2.16-1.53-3.6-4.32-3.6-6.75,0-11.25,7.74-13.14,7.74-2.07,0-5.13-3.15-5.13-6.39,0-1.8.72-2.61,2.07-3.96,3.06-2.61,7.74-3.78,11.07-3.78,9.36,0,16.11,7.65,16.11,15.3,0,3.51-.9,7.11-6.48,10.98-6.57,4.5-7.29,5.76-7.29,8.1,0,1.44.72,2.61,2.61,4.86l-2.16,2.25ZM430.95,139.17c-4.14,0-7.29-3.15-7.29-7.56s3.15-7.47,7.29-7.47,7.38,3.15,7.38,7.47-3.06,7.56-7.38,7.56Z"/>
</svg>