<svg xmlns="http://www.w3.org/2000/svg" xmlns:xlink="http://www.w3.org/1999/xlink" version="1.1" class="marks" width="960" height="733" viewBox="0 0 960 733"><rect width="960" height="733" fill="white"/><g fill="none" stroke-miterlimit="10" transform="translate(48,36)"><g class="mark-group role-frame root" role="graphics-object" aria-roledescription="group mark container"><g transform="translate(0,0)"><path class="background" aria-hidden="true" d="M0.5,0.5h800v600h-800Z" stroke="#ddd"/><g><g class="mark-group role-axis" aria-hidden="true"><g transform="translate(0.5,0.5)"><path class="background" aria-hidden="true" d="M0,0h0v0h0Z" pointer-events="none"/><g><g class="mark-rule role-axis-grid" pointer-events="none"><line transform="translate(0,600)" x2="800" y2="0" stroke="#ddd" stroke-width="1" opacity="1"/><line transform="translate(0,567)" x2="800" y2="0" stroke="#ddd" stroke-width="1" opacity="1"/><line transform="translate(0,533)" x2="800" y2="0" stroke="#ddd" stroke-width="1" opacity="1"/><line transform="translate(0,500)" x2="800" y2="0" stroke="#ddd" stroke-width="1" opacity="1"/><line transform="translate(0,467)" x2="800" y2="0" stroke="#ddd" stroke-width="1" opacity="1"/><line transform="translate(0,433)" x2="800" y2="0" stroke="#ddd" stroke-width="1" opacity="1"/><line transform="translate(0,400)" x2="800" y2="0" stroke="#ddd" stroke-width="1" opacity="1"/><line transform="translate(0,367)" x2="800" y2="0" stroke="#ddd" stroke-width="1" opacity="1"/><line transform="translate(0,333)" x2="800" y2="0" stroke="#ddd" stroke-width="1" opacity="1"/><line transform="translate(0,300)" x2="800" y2="0" stroke="#ddd" stroke-width="1" opacity="1"/><line transform="translate(0,267)" x2="800" y2="0" stroke="#ddd" stroke-width="1" opacity="1"/><line transform="translate(0,233)" x2="800" y2="0" stroke="#ddd" stroke-width="1" opacity="1"/><line transform="translate(0,200)" x2="800" y2="0" stroke="#ddd" stroke-width="1" opacity="1"/><line transform="translate(0,167)" x2="800" y2="0" stroke="#ddd" stroke-width="1" opacity="1"/><line transform="translate(0,133)" x2="800" y2="0" stroke="#ddd" stroke-width="1" opacity="1"/><line transform="translate(0,100)" x2="800" y2="0" stroke="#ddd" stroke-width="1" opacity="1"/><line transform="translate(0,67)" x2="800" y2="0" stroke="#ddd" stroke-width="1" opacity="1"/><line transform="translate(0,33)" x2="800" y2="0" stroke="#ddd" stroke-width="1" opacity="1"/><line transform="translate(0,0)" x2="800" y2="0" stroke="#ddd" stroke-width="1" opacity="1"/></g></g><path class="foreground" aria-hidden="true" d="" pointer-events="none" display="none"/></g></g><g class="mark-group role-axis" role="graphics-symbol" aria-roledescription="axis" aria-label="X-axis titled 'Mês' for a discrete scale with 12 values: Janeiro, Fevereiro, Março, Abril, Maio, ending with Dezembro"><g transform="translate(0.5,600.5)"><path class="background" aria-hidden="true" d="M0,0h0v0h0Z" pointer-events="none"/><g><g class="mark-rule role-axis-tick" pointer-events="none"><line transform="translate(33,0)" x2="0" y2="5" stroke="#888" stroke-width="1" opacity="1"/><line transform="translate(99,0)" x2="0" y2="5" stroke="#888" stroke-width="1" opacity="1"/><line transform="translate(166,0)" x2="0" y2="5" stroke="#888" stroke-width="1" opacity="1"/><line transform="translate(233,0)" x2="0" y2="5" stroke="#888" stroke-width="1" opacity="1"/><line transform="translate(300,0)" x2="0" y2="5" stroke="#888" stroke-width="1" opacity="1"/><line transform="translate(366,0)" x2="0" y2="5" stroke="#888" stroke-width="1" opacity="1"/><line transform="translate(433,0)" x2="0" y2="5" stroke="#888" stroke-width="1" opacity="1"/><line transform="translate(500,0)" x2="0" y2="5" stroke="#888" stroke-width="1" opacity="1"/><line transform="translate(566,0)" x2="0" y2="5" stroke="#888" stroke-width="1" opacity="1"/><line transform="translate(633,0)" x2="0" y2="5" stroke="#888" stroke-width="1" opacity="1"/><line transform="translate(700,0)" x2="0" y2="5" stroke="#888" stroke-width="1" opacity="1"/><line transform="translate(766,0)" x2="0" y2="5" stroke="#888" stroke-width="1" opacity="1"/></g><g class="mark-text role-axis-label" pointer-events="none"><text text-anchor="end" transform="translate(32.833333333333314,7) rotate(270) translate(0,4)" font-family="sans-serif" font-size="14px" fill="#000" opacity="1">Janeiro</text><text text-anchor="end" transform="translate(99.49999999999999,7) rotate(270) translate(0,4)" font-family="sans-serif" font-size="14px" fill="#000" opacity="1">Fevereiro</text><text text-anchor="end" transform="translate(166.16666666666666,7) rotate(270) translate(0,4)" font-family="sans-serif" font-size="14px" fill="#000" opacity="1">Março</text><text text-anchor="end" transform="translate(232.83333333333331,7) rotate(270) translate(0,4)" font-family="sans-serif" font-size="14px" fill="#000" opacity="1">Abril</text><text text-anchor="end" transform="translate(299.5,7) rotate(270) translate(0,4)" font-family="sans-serif" font-size="14px" fill="#000" opacity="1">Maio</text><text text-anchor="end" transform="translate(366.1666666666667,7) rotate(270) translate(0,4)" font-family="sans-serif" font-size="14px" fill="#000" opacity="1">Junho</text><text text-anchor="end" transform="translate(432.8333333333333,7) rotate(270) translate(0,4)" font-family="sans-serif" font-size="14px" fill="#000" opacity="1">Julho</text><text text-anchor="end" transform="translate(499.5,7) rotate(270) translate(0,4)" font-family="sans-serif" font-size="14px" fill="#000" opacity="1">Agosto</text><text text-anchor="end" transform="translate(566.1666666666667,7) rotate(270) translate(0,4)" font-family="sans-serif" font-size="14px" fill="#000" opacity="1">Setembro</text><text text-anchor="end" transform="translate(632.8333333333333,7) rotate(270) translate(0,4)" font-family="sans-serif" font-size="14px" fill="#000" opacity="1">Outubro</text><text text-anchor="end" transform="translate(699.5,7) rotate(270) translate(0,4)" font-family="sans-serif" font-size="14px" fill="#000" opacity="1">Novembro</text><text text-anchor="end" transform="translate(766.1666666666667,7) rotate(270) translate(0,4)" font-family="sans-serif" font-size="14px" fill="#000" opacity="1">Dezembro</text></g><g class="mark-rule role-axis-domain" pointer-events="none"><line transform="translate(0,0)" x2="800" y2="0" stroke="#888" stroke-width="1" opacity="1"/></g><g class="mark-text role-axis-title" pointer-events="none"><text text-anchor="middle" transform="translate(400,88.5791015625)" font-family="sans-serif" font-size="16px" font-weight="bold" fill="#000" opacity="1">Mês</text></g></g><path class="foreground" aria-hidden="true" d="" pointer-events="none" display="none"/></g></g><g class="mark-group role-axis" role="graphics-symbol" aria-roledescription="axis" aria-label="Y-axis for a linear scale with values from 0 to 1,800"><g transform="translate(0.5,0.5)"><path class="background" aria-hidden="true" d="M0,0h0v0h0Z" pointer-events="none"/><g><g class="mark-rule role-axis-tick" pointer-events="none"><line transform="translate(0,600)" x2="-5" y2="0" stroke="#888" stroke-width="1" opacity="1"/><line transform="translate(0,567)" x2="-5" y2="0" stroke="#888" stroke-width="1" opacity="1"/><line transform="translate(0,533)" x2="-5" y2="0" stroke="#888" stroke-width="1" opacity="1"/><line transform="translate(0,500)" x2="-5" y2="0" stroke="#888" stroke-width="1" opacity="1"/><line transform="translate(0,467)" x2="-5" y2="0" stroke="#888" stroke-width="1" opacity="1"/><line transform="translate(0,433)" x2="-5" y2="0" stroke="#888" stroke-width="1" opacity="1"/><line transform="translate(0,400)" x2="-5" y2="0" stroke="#888" stroke-width="1" opacity="1"/><line transform="translate(0,367)" x2="-5" y2="0" stroke="#888" stroke-width="1" opacity="1"/><line transform="translate(0,333)" x2="-5" y2="0" stroke="#888" stroke-width="1" opacity="1"/><line transform="translate(0,300)" x2="-5" y2="0" stroke="#888" stroke-width="1" opacity="1"/><line transform="translate(0,267)" x2="-5" y2="0" stroke="#888" stroke-width="1" opacity="1"/><line transform="translate(0,233)" x2="-5" y2="0" stroke="#888" stroke-width="1" opacity="1"/><line transform="translate(0,200)" x2="-5" y2="0" stroke="#888" stroke-width="1" opacity="1"/><line transform="translate(0,167)" x2="-5" y2="0" stroke="#888" stroke-width="1" opacity="1"/><line transform="translate(0,133)" x2="-5" y2="0" stroke="#888" stroke-width="1" opacity="1"/><line transform="translate(0,100)" x2="-5" y2="0" stroke="#888" stroke-width="1" opacity="1"/><line transform="translate(0,67)" x2="-5" y2="0" stroke="#888" stroke-width="1" opacity="1"/><line transform="translate(0,33)" x2="-5" y2="0" stroke="#888" stroke-width="1" opacity="1"/><line transform="translate(0,0)" x2="-5" y2="0" stroke="#888" stroke-width="1" opacity="1"/></g><g class="mark-text role-axis-label" pointer-events="none"><text text-anchor="end" transform="translate(-7,604)" font-family="sans-serif" font-size="14px" fill="#000" opacity="1">0</text><text text-anchor="end" transform="translate(-7,570.6666666666666)" font-family="sans-serif" font-size="14px" fill="#000" opacity="1">100</text><text text-anchor="end" transform="translate(-7,537.3333333333333)" font-family="sans-serif" font-size="14px" fill="#000" opacity="1">200</text><text text-anchor="end" transform="translate(-7,504)" font-family="sans-serif" font-size="14px" fill="#000" opacity="1">300</text><text text-anchor="end" transform="translate(-7,470.6666666666667)" font-family="sans-serif" font-size="14px" fill="#000" opacity="1">400</text><text text-anchor="end" transform="translate(-7,437.3333333333333)" font-family="sans-serif" font-size="14px" fill="#000" opacity="1">500</text><text text-anchor="end" transform="translate(-7,404.00000000000006)" font-family="sans-serif" font-size="14px" fill="#000" opacity="1">600</text><text text-anchor="end" transform="translate(-7,370.6666666666667)" font-family="sans-serif" font-size="14px" fill="#000" opacity="1">700</text><text text-anchor="end" transform="translate(-7,337.33333333333337)" font-family="sans-serif" font-size="14px" fill="#000" opacity="1">800</text><text text-anchor="end" transform="translate(-7,304)" font-family="sans-serif" font-size="14px" fill="#000" opacity="1">900</text><text text-anchor="end" transform="translate(-7,270.66666666666663)" font-family="sans-serif" font-size="14px" fill="#000" opacity="1">1,000</text><text text-anchor="end" transform="translate(-7,237.33333333333331)" font-family="sans-serif" font-size="14px" fill="#000" opacity="1">1,100</text><text text-anchor="end" transform="translate(-7,204.00000000000003)" font-family="sans-serif" font-size="14px" fill="#000" opacity="1">1,200</text><text text-anchor="end" transform="translate(-7,170.66666666666669)" font-family="sans-serif" font-size="14px" fill="#000" opacity="1">1,300</text><text text-anchor="end" transform="translate(-7,137.33333333333331)" font-family="sans-serif" font-size="14px" fill="#000" opacity="1">1,400</text><text text-anchor="end" transform="translate(-7,103.99999999999997)" font-family="sans-serif" font-size="14px" fill="#000" opacity="1">1,500</text><text text-anchor="end" transform="translate(-7,70.6666666666667)" font-family="sans-serif" font-size="14px" fill="#000" opacity="1">1,600</text><text text-anchor="end" transform="translate(-7,37.33333333333335)" font-family="sans-serif" font-size="14px" fill="#000" opacity="1">1,700</text><text text-anchor="end" transform="translate(-7,4)" font-family="sans-serif" font-size="14px" fill="#000" opacity="1">1,800</text></g><g class="mark-rule role-axis-domain" pointer-events="none"><line transform="translate(0,600)" x2="0" y2="-600" stroke="#888" stroke-width="1" opacity="1"/></g></g><path class="foreground" aria-hidden="true" d="" pointer-events="none" display="none"/></g></g><g class="mark-rect role-mark marks" role="graphics-symbol" aria-roledescription="rect mark container"><path d="M3.3333333333333144,127.33333333333331h60.00000000000001v472.6666666666667h-60.00000000000001Z" fill="rgb(100, 168, 210)"/><path d="M69.99999999999999,133.66666666666666h60.00000000000001v466.33333333333337h-60.00000000000001Z" fill="rgb(107, 173, 212)"/><path d="M136.66666666666666,40.33333333333331h60.00000000000001v559.6666666666667h-60.00000000000001Z" fill="rgb(25, 101, 171)"/><path d="M203.33333333333331,35.33333333333333h60.00000000000001v564.6666666666666h-60.00000000000001Z" fill="rgb(21, 97, 167)"/><path d="M270,26h60.00000000000001v574h-60.00000000000001Z" fill="rgb(17, 89, 160)"/><path d="M336.6666666666667,34.66666666666669h60.00000000000001v565.3333333333333h-60.00000000000001Z" fill="rgb(21, 96, 167)"/><path d="M403.3333333333333,7.666666666666666h60.00000000000001v592.3333333333334h-60.00000000000001Z" fill="rgb(10, 74, 144)"/><path d="M470,17.666666666666696h60.00000000000001v582.3333333333333h-60.00000000000001Z" fill="rgb(14, 82, 153)"/><path d="M536.6666666666667,182.66666666666666h60.00000000000001v417.33333333333337h-60.00000000000001Z" fill="rgb(164, 204, 228)"/><path d="M603.3333333333333,165h60.00000000000001v435h-60.00000000000001Z" fill="rgb(144, 194, 222)"/><path d="M670,125.33333333333334h60.00000000000001v474.66666666666663h-60.00000000000001Z" fill="rgb(98, 167, 209)"/><path d="M736.6666666666667,230.66666666666669h60.00000000000001v369.3333333333333h-60.00000000000001Z" fill="rgb(207, 225, 242)"/></g><g class="mark-group role-legend" role="graphics-symbol" aria-roledescription="legend" aria-label="Gradient legend titled 'Quantidade' for fill color with values from 1,108 to 1,777"><g transform="translate(818,0)"><path class="background" aria-hidden="true" d="M0,0h89v221h-89Z" pointer-events="none"/><g><g class="mark-group role-legend-entry"><g transform="translate(0,21)"><path class="background" aria-hidden="true" d="M0,0h0v0h0Z" pointer-events="none"/><g><g class="mark-rect role-legend-gradient" pointer-events="none"><path d="M0,0h16v200h-16Z" fill="url(#gradient_4)" stroke="#ddd" stroke-width="0" opacity="1"/></g><g class="mark-text role-legend-label" pointer-events="none"><text text-anchor="start" transform="translate(18,176.49626307922273)" font-family="sans-serif" font-size="14px" fill="#000" opacity="1">1,200</text><text text-anchor="start" transform="translate(18,116.70553064275038)" font-family="sans-serif" font-size="14px" fill="#000" opacity="1">1,400</text><text text-anchor="start" transform="translate(18,56.91479820627802)" font-family="sans-serif" font-size="14px" fill="#000" opacity="1">1,600</text></g></g><path class="foreground" aria-hidden="true" d="" pointer-events="none" display="none"/></g></g><g class="mark-text role-legend-title" pointer-events="none"><text text-anchor="start" transform="translate(0,13)" font-family="sans-serif" font-size="16px" font-weight="bold" fill="#000" opacity="1">Quantidade</text></g></g><path class="foreground" aria-hidden="true" d="" pointer-events="none" display="none"/></g></g><g class="mark-group role-title"><g transform="translate(400,-31)"><path class="background" aria-hidden="true" d="M0,0h0v0h0Z" pointer-events="none"/><g><g class="mark-text role-title-text" role="graphics-symbol" aria-roledescription="title" aria-label="Title text 'Reuniões de todos os presidentes por mês'" pointer-events="none"><text text-anchor="middle" transform="translate(0,16)" font-family="Arial" font-size="20px" font-weight="bold" fill="black" opacity="1">Reuniões de todos os presidentes por mês</text></g></g><path class="foreground" aria-hidden="true" d="" pointer-events="none" display="none"/></g></g></g><path class="foreground" aria-hidden="true" d="" display="none"/></g></g></g><defs><linearGradient id="gradient_4" x1="0" x2="0" y1="1" y2="0"><stop offset="0" stop-color="rgb(207, 225, 242)"/><stop offset="0.06278026905829596" stop-color="rgb(196, 219, 238)"/><stop offset="0.1375186846038864" stop-color="rgb(182, 212, 233)"/><stop offset="0.21225710014947682" stop-color="rgb(165, 204, 228)"/><stop offset="0.28699551569506726" stop-color="rgb(146, 195, 223)"/><stop offset="0.3617339312406577" stop-color="rgb(126, 184, 218)"/><stop offset="0.43647234678624813" stop-color="rgb(107, 173, 212)"/><stop offset="0.5112107623318386" stop-color="rgb(89, 161, 206)"/><stop offset="0.585949177877429" stop-color="rgb(72, 148, 199)"/><stop offset="0.6606875934230194" stop-color="rgb(57, 136, 193)"/><stop offset="0.7354260089686099" stop-color="rgb(43, 123, 185)"/><stop offset="0.8101644245142003" stop-color="rgb(31, 109, 177)"/><stop offset="0.8849028400597907" stop-color="rgb(20, 95, 166)"/><stop offset="0.9596412556053812" stop-color="rgb(13, 81, 152)"/><stop offset="1" stop-color="rgb(10, 74, 144)"/></linearGradient></defs></svg>