<svg xmlns="http://www.w3.org/2000/svg" xmlns:xlink="http://www.w3.org/1999/xlink" version="1.1" class="marks" width="1001" height="677" viewBox="0 0 1001 677"><rect width="1001" height="677" fill="white"/><g fill="none" stroke-miterlimit="10" transform="translate(89,29)"><g class="mark-group role-frame root" role="graphics-object" aria-roledescription="group mark container"><g transform="translate(0,0)"><path class="background" aria-hidden="true" d="M0.5,0.5h800v600h-800Z" stroke="#ddd"/><g><g class="mark-group role-axis" role="graphics-symbol" aria-roledescription="axis" aria-label="X-axis titled 'Horário' for a discrete scale with 24 values: 0, 1, 2, 3, 4, ending with 23"><g transform="translate(0.5,600.5)"><path class="background" aria-hidden="true" d="M0,0h0v0h0Z" pointer-events="none"/><g><g class="mark-rule role-axis-tick" pointer-events="none"><line transform="translate(17,0)" x2="0" y2="5" stroke="#888" stroke-width="1" opacity="1"/><line transform="translate(50,0)" x2="0" y2="5" stroke="#888" stroke-width="1" opacity="1"/><line transform="translate(83,0)" x2="0" y2="5" stroke="#888" stroke-width="1" opacity="1"/><line transform="translate(117,0)" x2="0" y2="5" stroke="#888" stroke-width="1" opacity="1"/><line transform="translate(150,0)" x2="0" y2="5" stroke="#888" stroke-width="1" opacity="1"/><line transform="translate(183,0)" x2="0" y2="5" stroke="#888" stroke-width="1" opacity="1"/><line transform="translate(217,0)" x2="0" y2="5" stroke="#888" stroke-width="1" opacity="1"/><line transform="translate(250,0)" x2="0" y2="5" stroke="#888" stroke-width="1" opacity="1"/><line transform="translate(283,0)" x2="0" y2="5" stroke="#888" stroke-width="1" opacity="1"/><line transform="translate(317,0)" x2="0" y2="5" stroke="#888" stroke-width="1" opacity="1"/><line transform="translate(350,0)" x2="0" y2="5" stroke="#888" stroke-width="1" opacity="1"/><line transform="translate(383,0)" x2="0" y2="5" stroke="#888" stroke-width="1" opacity="1"/><line transform="translate(417,0)" x2="0" y2="5" stroke="#888" stroke-width="1" opacity="1"/><line transform="translate(450,0)" x2="0" y2="5" stroke="#888" stroke-width="1" opacity="1"/><line transform="translate(483,0)" x2="0" y2="5" stroke="#888" stroke-width="1" opacity="1"/><line transform="translate(517,0)" x2="0" y2="5" stroke="#888" stroke-width="1" opacity="1"/><line transform="translate(550,0)" x2="0" y2="5" stroke="#888" stroke-width="1" opacity="1"/><line transform="translate(583,0)" x2="0" y2="5" stroke="#888" stroke-width="1" opacity="1"/><line transform="translate(617,0)" x2="0" y2="5" stroke="#888" stroke-width="1" opacity="1"/><line transform="translate(650,0)" x2="0" y2="5" stroke="#888" stroke-width="1" opacity="1"/><line transform="translate(683,0)" x2="0" y2="5" stroke="#888" stroke-width="1" opacity="1"/><line transform="translate(717,0)" x2="0" y2="5" stroke="#888" stroke-width="1" opacity="1"/><line transform="translate(750,0)" x2="0" y2="5" stroke="#888" stroke-width="1" opacity="1"/><line transform="translate(783,0)" x2="0" y2="5" stroke="#888" stroke-width="1" opacity="1"/></g><g class="mark-text role-axis-label" pointer-events="none"><text text-anchor="end" transform="translate(16.66666666666663,7) rotate(270) translate(0,4)" font-family="sans-serif" font-size="14px" fill="#000" opacity="1">0</text><text text-anchor="end" transform="translate(49.999999999999964,7) rotate(270) translate(0,4)" font-family="sans-serif" font-size="14px" fill="#000" opacity="1">1</text><text text-anchor="end" transform="translate(83.3333333333333,7) rotate(270) translate(0,4)" font-family="sans-serif" font-size="14px" fill="#000" opacity="1">2</text><text text-anchor="end" transform="translate(116.66666666666663,7) rotate(270) translate(0,4)" font-family="sans-serif" font-size="14px" fill="#000" opacity="1">3</text><text text-anchor="end" transform="translate(149.99999999999997,7) rotate(270) translate(0,4)" font-family="sans-serif" font-size="14px" fill="#000" opacity="1">4</text><text text-anchor="end" transform="translate(183.33333333333331,7) rotate(270) translate(0,4)" font-family="sans-serif" font-size="14px" fill="#000" opacity="1">5</text><text text-anchor="end" transform="translate(216.66666666666663,7) rotate(270) translate(0,4)" font-family="sans-serif" font-size="14px" fill="#000" opacity="1">6</text><text text-anchor="end" transform="translate(249.99999999999997,7) rotate(270) translate(0,4)" font-family="sans-serif" font-size="14px" fill="#000" opacity="1">7</text><text text-anchor="end" transform="translate(283.3333333333333,7) rotate(270) translate(0,4)" font-family="sans-serif" font-size="14px" fill="#000" opacity="1">8</text><text text-anchor="end" transform="translate(316.66666666666663,7) rotate(270) translate(0,4)" font-family="sans-serif" font-size="14px" fill="#000" opacity="1">9</text><text text-anchor="end" transform="translate(350,7) rotate(270) translate(0,4)" font-family="sans-serif" font-size="14px" fill="#000" opacity="1">10</text><text text-anchor="end" transform="translate(383.3333333333333,7) rotate(270) translate(0,4)" font-family="sans-serif" font-size="14px" fill="#000" opacity="1">11</text><text text-anchor="end" transform="translate(416.66666666666663,7) rotate(270) translate(0,4)" font-family="sans-serif" font-size="14px" fill="#000" opacity="1">12</text><text text-anchor="end" transform="translate(450,7) rotate(270) translate(0,4)" font-family="sans-serif" font-size="14px" fill="#000" opacity="1">13</text><text text-anchor="end" transform="translate(483.3333333333333,7) rotate(270) translate(0,4)" font-family="sans-serif" font-size="14px" fill="#000" opacity="1">14</text><text text-anchor="end" transform="translate(516.6666666666667,7) rotate(270) translate(0,4)" font-family="sans-serif" font-size="14px" fill="#000" opacity="1">15</text><text text-anchor="end" transform="translate(550,7) rotate(270) translate(0,4)" font-family="sans-serif" font-size="14px" fill="#000" opacity="1">16</text><text text-anchor="end" transform="translate(583.3333333333334,7) rotate(270) translate(0,4)" font-family="sans-serif" font-size="14px" fill="#000" opacity="1">17</text><text text-anchor="end" transform="translate(616.6666666666666,7) rotate(270) translate(0,4)" font-family="sans-serif" font-size="14px" fill="#000" opacity="1">18</text><text text-anchor="end" transform="translate(650,7) rotate(270) translate(0,4)" font-family="sans-serif" font-size="14px" fill="#000" opacity="1">19</text><text text-anchor="end" transform="translate(683.3333333333334,7) rotate(270) translate(0,4)" font-family="sans-serif" font-size="14px" fill="#000" opacity="1">20</text><text text-anchor="end" transform="translate(716.6666666666666,7) rotate(270) translate(0,4)" font-family="sans-serif" font-size="14px" fill="#000" opacity="1">21</text><text text-anchor="end" transform="translate(750,7) rotate(270) translate(0,4)" font-family="sans-serif" font-size="14px" fill="#000" opacity="1">22</text><text text-anchor="end" transform="translate(783.3333333333334,7) rotate(270) translate(0,4)" font-family="sans-serif" font-size="14px" fill="#000" opacity="1">23</text></g><g class="mark-rule role-axis-domain" pointer-events="none"><line transform="translate(0,0)" x2="800" y2="0" stroke="#888" stroke-width="1" opacity="1"/></g><g class="mark-text role-axis-title" pointer-events="none"><text text-anchor="middle" transform="translate(400,39.572265625)" font-family="sans-serif" font-size="16px" font-weight="bold" fill="#000" opacity="1">Horário</text></g></g><path class="foreground" aria-hidden="true" d="" pointer-events="none" display="none"/></g></g><g class="mark-group role-axis" role="graphics-symbol" aria-roledescription="axis" aria-label="Y-axis titled 'Dias da Semana' for a discrete scale with 7 values: Segunda, Terça, Quarta, Quinta, Sexta, Sábado, Domingo"><g transform="translate(0.5,0.5)"><path class="background" aria-hidden="true" d="M0,0h0v0h0Z" pointer-events="none"/><g><g class="mark-rule role-axis-tick" pointer-events="none"><line transform="translate(0,43)" x2="-5" y2="0" stroke="#888" stroke-width="1" opacity="1"/><line transform="translate(0,129)" x2="-5" y2="0" stroke="#888" stroke-width="1" opacity="1"/><line transform="translate(0,214)" x2="-5" y2="0" stroke="#888" stroke-width="1" opacity="1"/><line transform="translate(0,300)" x2="-5" y2="0" stroke="#888" stroke-width="1" opacity="1"/><line transform="translate(0,386)" x2="-5" y2="0" stroke="#888" stroke-width="1" opacity="1"/><line transform="translate(0,471)" x2="-5" y2="0" stroke="#888" stroke-width="1" opacity="1"/><line transform="translate(0,557)" x2="-5" y2="0" stroke="#888" stroke-width="1" opacity="1"/></g><g class="mark-text role-axis-label" pointer-events="none"><text text-anchor="end" transform="translate(-7,46.85714285714289)" font-family="sans-serif" font-size="14px" fill="#000" opacity="1">Segunda</text><text text-anchor="end" transform="translate(-7,132.5714285714286)" font-family="sans-serif" font-size="14px" fill="#000" opacity="1">Terça</text><text text-anchor="end" transform="translate(-7,218.2857142857143)" font-family="sans-serif" font-size="14px" fill="#000" opacity="1">Quarta</text><text text-anchor="end" transform="translate(-7,304)" font-family="sans-serif" font-size="14px" fill="#000" opacity="1">Quinta</text><text text-anchor="end" transform="translate(-7,389.7142857142857)" font-family="sans-serif" font-size="14px" fill="#000" opacity="1">Sexta</text><text text-anchor="end" transform="translate(-7,475.42857142857144)" font-family="sans-serif" font-size="14px" fill="#000" opacity="1">Sábado</text><text text-anchor="end" transform="translate(-7,561.1428571428571)" font-family="sans-serif" font-size="14px" fill="#000" opacity="1">Domingo</text></g><g class="mark-rule role-axis-domain" pointer-events="none"><line transform="translate(0,0)" x2="0" y2="600" stroke="#888" stroke-width="1" opacity="1"/></g><g class="mark-text role-axis-title" pointer-events="none"><text text-anchor="middle" transform="translate(-67.0546875,300) rotate(-90) translate(0,-3)" font-family="sans-serif" font-size="16px" font-weight="bold" fill="#000" opacity="1">Dias da Semana</text></g></g><path class="foreground" aria-hidden="true" d="" pointer-events="none" display="none"/></g></g><g class="mark-symbol role-mark marks" role="graphics-symbol" aria-roledescription="symbol mark container"><path transform="translate(516.6666666666667,557.1428571428571)" d="M2.368,0A2.368,2.368,0,1,1,-2.368,0A2.368,2.368,0,1,1,2.368,0" fill="rgb(243, 217, 79)" stroke-width="2"/><path transform="translate(583.3333333333334,557.1428571428571)" d="M2.229,0A2.229,2.229,0,1,1,-2.229,0A2.229,2.229,0,1,1,2.229,0" fill="rgb(244, 219, 78)" stroke-width="2"/><path transform="translate(650,557.1428571428571)" d="M2.193,0A2.193,2.193,0,1,1,-2.193,0A2.193,2.193,0,1,1,2.193,0" fill="rgb(245, 220, 78)" stroke-width="2"/><path transform="translate(683.3333333333334,557.1428571428571)" d="M1.795,0A1.795,1.795,0,1,1,-1.795,0A1.795,1.795,0,1,1,1.795,0" fill="rgb(249, 224, 74)" stroke-width="2"/><path transform="translate(783.3333333333334,557.1428571428571)" d="M1.215,0A1.215,1.215,0,1,1,-1.215,0A1.215,1.215,0,1,1,1.215,0" fill="rgb(252, 229, 71)" stroke-width="2"/><path transform="translate(316.66666666666663,42.85714285714289)" d="M7.554,0A7.554,7.554,0,1,1,-7.554,0A7.554,7.554,0,1,1,7.554,0" fill="rgb(96, 98, 110)" stroke-width="2"/><path transform="translate(350,42.85714285714289)" d="M8.494,0A8.494,8.494,0,1,1,-8.494,0A8.494,8.494,0,1,1,8.494,0" fill="rgb(43, 68, 110)" stroke-width="2"/><path transform="translate(416.66666666666663,42.85714285714289)" d="M5.139,0A5.139,5.139,0,1,1,-5.139,0A5.139,5.139,0,1,1,5.139,0" fill="rgb(175, 165, 117)" stroke-width="2"/><path transform="translate(450,42.85714285714289)" d="M4.389,0A4.389,4.389,0,1,1,-4.389,0A4.389,4.389,0,1,1,4.389,0" fill="rgb(198, 183, 108)" stroke-width="2"/><path transform="translate(483.3333333333333,42.85714285714289)" d="M6.479,0A6.479,6.479,0,1,1,-6.479,0A6.479,6.479,0,1,1,6.479,0" fill="rgb(134, 130, 118)" stroke-width="2"/><path transform="translate(516.6666666666667,42.85714285714289)" d="M9.046,0A9.046,9.046,0,1,1,-9.046,0A9.046,9.046,0,1,1,9.046,0" fill="rgb(8, 49, 105)" stroke-width="2"/><path transform="translate(550,42.85714285714289)" d="M7.575,0A7.575,7.575,0,1,1,-7.575,0A7.575,7.575,0,1,1,7.575,0" fill="rgb(95, 98, 110)" stroke-width="2"/><path transform="translate(583.3333333333334,42.85714285714289)" d="M7.21,0A7.21,7.21,0,1,1,-7.21,0A7.21,7.21,0,1,1,7.21,0" fill="rgb(110, 109, 113)" stroke-width="2"/><path transform="translate(616.6666666666666,42.85714285714289)" d="M5.291,0A5.291,5.291,0,1,1,-5.291,0A5.291,5.291,0,1,1,5.291,0" fill="rgb(169, 161, 119)" stroke-width="2"/><path transform="translate(316.66666666666663,128.5714285714286)" d="M7.679,0A7.679,7.679,0,1,1,-7.679,0A7.679,7.679,0,1,1,7.679,0" fill="rgb(90, 94, 110)" stroke-width="2"/><path transform="translate(316.66666666666663,214.2857142857143)" d="M7.596,0A7.596,7.596,0,1,1,-7.596,0A7.596,7.596,0,1,1,7.596,0" fill="rgb(94, 97, 110)" stroke-width="2"/><path transform="translate(350,214.2857142857143)" d="M8.985,0A8.985,8.985,0,1,1,-8.985,0A8.985,8.985,0,1,1,8.985,0" fill="rgb(12, 51, 106)" stroke-width="2"/><path transform="translate(383.3333333333333,214.2857142857143)" d="M8.559,0A8.559,8.559,0,1,1,-8.559,0A8.559,8.559,0,1,1,8.559,0" fill="rgb(38, 66, 110)" stroke-width="2"/><path transform="translate(516.6666666666667,214.2857142857143)" d="M9.5,0A9.5,9.5,0,1,1,-9.5,0A9.5,9.5,0,1,1,9.5,0" fill="rgb(0, 32, 81)" stroke-width="2"/><path transform="translate(550,214.2857142857143)" d="M8.295,0A8.295,8.295,0,1,1,-8.295,0A8.295,8.295,0,1,1,8.295,0" fill="rgb(56, 74, 110)" stroke-width="2"/><path transform="translate(583.3333333333334,214.2857142857143)" d="M7.427,0A7.427,7.427,0,1,1,-7.427,0A7.427,7.427,0,1,1,7.427,0" fill="rgb(101, 102, 111)" stroke-width="2"/><path transform="translate(616.6666666666666,214.2857142857143)" d="M4.918,0A4.918,4.918,0,1,1,-4.918,0A4.918,4.918,0,1,1,4.918,0" fill="rgb(181, 170, 115)" stroke-width="2"/><path transform="translate(316.66666666666663,300)" d="M7.405,0A7.405,7.405,0,1,1,-7.405,0A7.405,7.405,0,1,1,7.405,0" fill="rgb(102, 103, 111)" stroke-width="2"/><path transform="translate(350,300)" d="M8.77,0A8.77,8.77,0,1,1,-8.77,0A8.77,8.77,0,1,1,8.77,0" fill="rgb(25, 58, 109)" stroke-width="2"/><path transform="translate(383.3333333333333,300)" d="M8.651,0A8.651,8.651,0,1,1,-8.651,0A8.651,8.651,0,1,1,8.651,0" fill="rgb(32, 63, 110)" stroke-width="2"/><path transform="translate(483.3333333333333,300)" d="M6.254,0A6.254,6.254,0,1,1,-6.254,0A6.254,6.254,0,1,1,6.254,0" fill="rgb(141, 136, 119)" stroke-width="2"/><path transform="translate(516.6666666666667,300)" d="M8.697,0A8.697,8.697,0,1,1,-8.697,0A8.697,8.697,0,1,1,8.697,0" fill="rgb(30, 61, 110)" stroke-width="2"/><path transform="translate(550,300)" d="M7.883,0A7.883,7.883,0,1,1,-7.883,0A7.883,7.883,0,1,1,7.883,0" fill="rgb(80, 88, 110)" stroke-width="2"/><path transform="translate(583.3333333333334,300)" d="M6.139,0A6.139,6.139,0,1,1,-6.139,0A6.139,6.139,0,1,1,6.139,0" fill="rgb(145, 140, 120)" stroke-width="2"/><path transform="translate(616.6666666666666,300)" d="M4.601,0A4.601,4.601,0,1,1,-4.601,0A4.601,4.601,0,1,1,4.601,0" fill="rgb(191, 178, 111)" stroke-width="2"/><path transform="translate(316.66666666666663,385.7142857142857)" d="M7.199,0A7.199,7.199,0,1,1,-7.199,0A7.199,7.199,0,1,1,7.199,0" fill="rgb(111, 110, 113)" stroke-width="2"/><path transform="translate(616.6666666666666,385.7142857142857)" d="M4.204,0A4.204,4.204,0,1,1,-4.204,0A4.204,4.204,0,1,1,4.204,0" fill="rgb(203, 186, 105)" stroke-width="2"/><path transform="translate(483.3333333333333,557.1428571428571)" d="M2.265,0A2.265,2.265,0,1,1,-2.265,0A2.265,2.265,0,1,1,2.265,0" fill="rgb(244, 219, 78)" stroke-width="2"/><path transform="translate(716.6666666666666,557.1428571428571)" d="M1.397,0A1.397,1.397,0,1,1,-1.397,0A1.397,1.397,0,1,1,1.397,0" fill="rgb(251, 228, 72)" stroke-width="2"/><path transform="translate(750,557.1428571428571)" d="M1.453,0A1.453,1.453,0,1,1,-1.453,0A1.453,1.453,0,1,1,1.453,0" fill="rgb(251, 227, 72)" stroke-width="2"/><path transform="translate(283.3333333333333,128.5714285714286)" d="M5.185,0A5.185,5.185,0,1,1,-5.185,0A5.185,5.185,0,1,1,5.185,0" fill="rgb(173, 164, 117)" stroke-width="2"/><path transform="translate(350,128.5714285714286)" d="M8.503,0A8.503,8.503,0,1,1,-8.503,0A8.503,8.503,0,1,1,8.503,0" fill="rgb(42, 68, 110)" stroke-width="2"/><path transform="translate(383.3333333333333,128.5714285714286)" d="M8.485,0A8.485,8.485,0,1,1,-8.485,0A8.485,8.485,0,1,1,8.485,0" fill="rgb(43, 69, 110)" stroke-width="2"/><path transform="translate(516.6666666666667,128.5714285714286)" d="M9.391,0A9.391,9.391,0,1,1,-9.391,0A9.391,9.391,0,1,1,9.391,0" fill="rgb(0, 36, 90)" stroke-width="2"/><path transform="translate(550,128.5714285714286)" d="M8.189,0A8.189,8.189,0,1,1,-8.189,0A8.189,8.189,0,1,1,8.189,0" fill="rgb(62, 78, 110)" stroke-width="2"/><path transform="translate(583.3333333333334,128.5714285714286)" d="M7.076,0A7.076,7.076,0,1,1,-7.076,0A7.076,7.076,0,1,1,7.076,0" fill="rgb(115, 113, 113)" stroke-width="2"/><path transform="translate(416.66666666666663,300)" d="M5.64,0A5.64,5.64,0,1,1,-5.64,0A5.64,5.64,0,1,1,5.64,0" fill="rgb(159, 152, 120)" stroke-width="2"/><path transform="translate(383.3333333333333,385.7142857142857)" d="M7.512,0A7.512,7.512,0,1,1,-7.512,0A7.512,7.512,0,1,1,7.512,0" fill="rgb(98, 100, 111)" stroke-width="2"/><path transform="translate(516.6666666666667,385.7142857142857)" d="M7.341,0A7.341,7.341,0,1,1,-7.341,0A7.341,7.341,0,1,1,7.341,0" fill="rgb(105, 105, 112)" stroke-width="2"/><path transform="translate(550,385.7142857142857)" d="M6.279,0A6.279,6.279,0,1,1,-6.279,0A6.279,6.279,0,1,1,6.279,0" fill="rgb(140, 136, 119)" stroke-width="2"/><path transform="translate(616.6666666666666,128.5714285714286)" d="M5.061,0A5.061,5.061,0,1,1,-5.061,0A5.061,5.061,0,1,1,5.061,0" fill="rgb(177, 167, 116)" stroke-width="2"/><path transform="translate(350,385.7142857142857)" d="M8.743,0A8.743,8.743,0,1,1,-8.743,0A8.743,8.743,0,1,1,8.743,0" fill="rgb(27, 59, 110)" stroke-width="2"/><path transform="translate(583.3333333333334,385.7142857142857)" d="M5.17,0A5.17,5.17,0,1,1,-5.17,0A5.17,5.17,0,1,1,5.17,0" fill="rgb(174, 165, 117)" stroke-width="2"/><path transform="translate(249.99999999999997,471.42857142857144)" d="M1.609,0A1.609,1.609,0,1,1,-1.609,0A1.609,1.609,0,1,1,1.609,0" fill="rgb(250, 226, 73)" stroke-width="2"/><path transform="translate(316.66666666666663,471.42857142857144)" d="M3.458,0A3.458,3.458,0,1,1,-3.458,0A3.458,3.458,0,1,1,3.458,0" fill="rgb(223, 201, 94)" stroke-width="2"/><path transform="translate(350,471.42857142857144)" d="M4.07,0A4.07,4.07,0,1,1,-4.07,0A4.07,4.07,0,1,1,4.07,0" fill="rgb(207, 189, 104)" stroke-width="2"/><path transform="translate(383.3333333333333,471.42857142857144)" d="M3.766,0A3.766,3.766,0,1,1,-3.766,0A3.766,3.766,0,1,1,3.766,0" fill="rgb(215, 195, 99)" stroke-width="2"/><path transform="translate(450,471.42857142857144)" d="M3.069,0A3.069,3.069,0,1,1,-3.069,0A3.069,3.069,0,1,1,3.069,0" fill="rgb(232, 208, 88)" stroke-width="2"/><path transform="translate(583.3333333333334,471.42857142857144)" d="M2.712,0A2.712,2.712,0,1,1,-2.712,0A2.712,2.712,0,1,1,2.712,0" fill="rgb(238, 213, 83)" stroke-width="2"/><path transform="translate(616.6666666666666,557.1428571428571)" d="M2.265,0A2.265,2.265,0,1,1,-2.265,0A2.265,2.265,0,1,1,2.265,0" fill="rgb(244, 219, 78)" stroke-width="2"/><path transform="translate(383.3333333333333,42.85714285714289)" d="M7.627,0A7.627,7.627,0,1,1,-7.627,0A7.627,7.627,0,1,1,7.627,0" fill="rgb(93, 96, 110)" stroke-width="2"/><path transform="translate(650,42.85714285714289)" d="M3.766,0A3.766,3.766,0,1,1,-3.766,0A3.766,3.766,0,1,1,3.766,0" fill="rgb(215, 195, 99)" stroke-width="2"/><path transform="translate(450,128.5714285714286)" d="M4.787,0A4.787,4.787,0,1,1,-4.787,0A4.787,4.787,0,1,1,4.787,0" fill="rgb(185, 173, 114)" stroke-width="2"/><path transform="translate(416.66666666666663,214.2857142857143)" d="M5.738,0A5.738,5.738,0,1,1,-5.738,0A5.738,5.738,0,1,1,5.738,0" fill="rgb(156, 150, 120)" stroke-width="2"/><path transform="translate(450,214.2857142857143)" d="M4.334,0A4.334,4.334,0,1,1,-4.334,0A4.334,4.334,0,1,1,4.334,0" fill="rgb(199, 184, 107)" stroke-width="2"/><path transform="translate(716.6666666666666,214.2857142857143)" d="M2.004,0A2.004,2.004,0,1,1,-2.004,0A2.004,2.004,0,1,1,2.004,0" fill="rgb(247, 222, 76)" stroke-width="2"/><path transform="translate(483.3333333333333,385.7142857142857)" d="M6.216,0A6.216,6.216,0,1,1,-6.216,0A6.216,6.216,0,1,1,6.216,0" fill="rgb(142, 137, 119)" stroke-width="2"/><path transform="translate(716.6666666666666,42.85714285714289)" d="M1.705,0A1.705,1.705,0,1,1,-1.705,0A1.705,1.705,0,1,1,1.705,0" fill="rgb(249, 225, 74)" stroke-width="2"/><path transform="translate(650,214.2857142857143)" d="M3.68,0A3.68,3.68,0,1,1,-3.68,0A3.68,3.68,0,1,1,3.68,0" fill="rgb(217, 197, 97)" stroke-width="2"/><path transform="translate(683.3333333333334,214.2857142857143)" d="M2.798,0A2.798,2.798,0,1,1,-2.798,0A2.798,2.798,0,1,1,2.798,0" fill="rgb(236, 212, 84)" stroke-width="2"/><path transform="translate(416.66666666666663,385.7142857142857)" d="M5.71,0A5.71,5.71,0,1,1,-5.71,0A5.71,5.71,0,1,1,5.71,0" fill="rgb(157, 150, 120)" stroke-width="2"/><path transform="translate(683.3333333333334,471.42857142857144)" d="M1.964,0A1.964,1.964,0,1,1,-1.964,0A1.964,1.964,0,1,1,1.964,0" fill="rgb(247, 222, 76)" stroke-width="2"/><path transform="translate(483.3333333333333,128.5714285714286)" d="M6.527,0A6.527,6.527,0,1,1,-6.527,0A6.527,6.527,0,1,1,6.527,0" fill="rgb(133, 129, 118)" stroke-width="2"/><path transform="translate(283.3333333333333,42.85714285714289)" d="M4.128,0A4.128,4.128,0,1,1,-4.128,0A4.128,4.128,0,1,1,4.128,0" fill="rgb(205, 188, 104)" stroke-width="2"/><path transform="translate(283.3333333333333,214.2857142857143)" d="M4.389,0A4.389,4.389,0,1,1,-4.389,0A4.389,4.389,0,1,1,4.389,0" fill="rgb(198, 183, 108)" stroke-width="2"/><path transform="translate(450,385.7142857142857)" d="M5.154,0A5.154,5.154,0,1,1,-5.154,0A5.154,5.154,0,1,1,5.154,0" fill="rgb(174, 165, 117)" stroke-width="2"/><path transform="translate(650,128.5714285714286)" d="M4.031,0A4.031,4.031,0,1,1,-4.031,0A4.031,4.031,0,1,1,4.031,0" fill="rgb(208, 190, 103)" stroke-width="2"/><path transform="translate(249.99999999999997,42.85714285714289)" d="M2.401,0A2.401,2.401,0,1,1,-2.401,0A2.401,2.401,0,1,1,2.401,0" fill="rgb(242, 217, 80)" stroke-width="2"/><path transform="translate(249.99999999999997,300)" d="M2.682,0A2.682,2.682,0,1,1,-2.682,0A2.682,2.682,0,1,1,2.682,0" fill="rgb(239, 213, 83)" stroke-width="2"/><path transform="translate(450,300)" d="M4.703,0A4.703,4.703,0,1,1,-4.703,0A4.703,4.703,0,1,1,4.703,0" fill="rgb(188, 176, 113)" stroke-width="2"/><path transform="translate(416.66666666666663,128.5714285714286)" d="M5.468,0A5.468,5.468,0,1,1,-5.468,0A5.468,5.468,0,1,1,5.468,0" fill="rgb(164, 157, 119)" stroke-width="2"/><path transform="translate(249.99999999999997,214.2857142857143)" d="M2.498,0A2.498,2.498,0,1,1,-2.498,0A2.498,2.498,0,1,1,2.498,0" fill="rgb(241, 216, 81)" stroke-width="2"/><path transform="translate(483.3333333333333,214.2857142857143)" d="M6.648,0A6.648,6.648,0,1,1,-6.648,0A6.648,6.648,0,1,1,6.648,0" fill="rgb(129, 126, 117)" stroke-width="2"/><path transform="translate(716.6666666666666,300)" d="M2.434,0A2.434,2.434,0,1,1,-2.434,0A2.434,2.434,0,1,1,2.434,0" fill="rgb(242, 217, 80)" stroke-width="2"/><path transform="translate(750,300)" d="M2.004,0A2.004,2.004,0,1,1,-2.004,0A2.004,2.004,0,1,1,2.004,0" fill="rgb(247, 222, 76)" stroke-width="2"/><path transform="translate(249.99999999999997,557.1428571428571)" d="M1.609,0A1.609,1.609,0,1,1,-1.609,0A1.609,1.609,0,1,1,1.609,0" fill="rgb(250, 226, 73)" stroke-width="2"/><path transform="translate(316.66666666666663,557.1428571428571)" d="M2.712,0A2.712,2.712,0,1,1,-2.712,0A2.712,2.712,0,1,1,2.712,0" fill="rgb(238, 213, 83)" stroke-width="2"/><path transform="translate(350,557.1428571428571)" d="M3.094,0A3.094,3.094,0,1,1,-3.094,0A3.094,3.094,0,1,1,3.094,0" fill="rgb(231, 207, 88)" stroke-width="2"/><path transform="translate(383.3333333333333,557.1428571428571)" d="M2.401,0A2.401,2.401,0,1,1,-2.401,0A2.401,2.401,0,1,1,2.401,0" fill="rgb(242, 217, 80)" stroke-width="2"/><path transform="translate(450,557.1428571428571)" d="M2.193,0A2.193,2.193,0,1,1,-2.193,0A2.193,2.193,0,1,1,2.193,0" fill="rgb(245, 220, 78)" stroke-width="2"/><path transform="translate(249.99999999999997,128.5714285714286)" d="M2.229,0A2.229,2.229,0,1,1,-2.229,0A2.229,2.229,0,1,1,2.229,0" fill="rgb(244, 219, 78)" stroke-width="2"/><path transform="translate(716.6666666666666,128.5714285714286)" d="M2.082,0A2.082,2.082,0,1,1,-2.082,0A2.082,2.082,0,1,1,2.082,0" fill="rgb(246, 221, 77)" stroke-width="2"/><path transform="translate(650,300)" d="M3.89,0A3.89,3.89,0,1,1,-3.89,0A3.89,3.89,0,1,1,3.89,0" fill="rgb(212, 192, 101)" stroke-width="2"/><path transform="translate(650,385.7142857142857)" d="M3.526,0A3.526,3.526,0,1,1,-3.526,0A3.526,3.526,0,1,1,3.526,0" fill="rgb(221, 200, 95)" stroke-width="2"/><path transform="translate(483.3333333333333,471.42857142857144)" d="M2.826,0A2.826,2.826,0,1,1,-2.826,0A2.826,2.826,0,1,1,2.826,0" fill="rgb(236, 212, 84)" stroke-width="2"/><path transform="translate(616.6666666666666,471.42857142857144)" d="M2.466,0A2.466,2.466,0,1,1,-2.466,0A2.466,2.466,0,1,1,2.466,0" fill="rgb(242, 216, 80)" stroke-width="2"/><path transform="translate(550,557.1428571428571)" d="M2.434,0A2.434,2.434,0,1,1,-2.434,0A2.434,2.434,0,1,1,2.434,0" fill="rgb(242, 217, 80)" stroke-width="2"/><path transform="translate(416.66666666666663,471.42857142857144)" d="M3.388,0A3.388,3.388,0,1,1,-3.388,0A3.388,3.388,0,1,1,3.388,0" fill="rgb(225, 202, 93)" stroke-width="2"/><path transform="translate(516.6666666666667,471.42857142857144)" d="M3.145,0A3.145,3.145,0,1,1,-3.145,0A3.145,3.145,0,1,1,3.145,0" fill="rgb(230, 206, 89)" stroke-width="2"/><path transform="translate(550,471.42857142857144)" d="M2.798,0A2.798,2.798,0,1,1,-2.798,0A2.798,2.798,0,1,1,2.798,0" fill="rgb(236, 212, 84)" stroke-width="2"/><path transform="translate(750,214.2857142857143)" d="M1.657,0A1.657,1.657,0,1,1,-1.657,0A1.657,1.657,0,1,1,1.657,0" fill="rgb(250, 226, 73)" stroke-width="2"/><path transform="translate(249.99999999999997,385.7142857142857)" d="M2.622,0A2.622,2.622,0,1,1,-2.622,0A2.622,2.622,0,1,1,2.622,0" fill="rgb(240, 214, 82)" stroke-width="2"/><path transform="translate(283.3333333333333,385.7142857142857)" d="M4.703,0A4.703,4.703,0,1,1,-4.703,0A4.703,4.703,0,1,1,4.703,0" fill="rgb(188, 176, 113)" stroke-width="2"/><path transform="translate(283.3333333333333,471.42857142857144)" d="M2.769,0A2.769,2.769,0,1,1,-2.769,0A2.769,2.769,0,1,1,2.769,0" fill="rgb(237, 212, 84)" stroke-width="2"/><path transform="translate(650,471.42857142857144)" d="M2.12,0A2.12,2.12,0,1,1,-2.12,0A2.12,2.12,0,1,1,2.12,0" fill="rgb(246, 221, 77)" stroke-width="2"/><path transform="translate(149.99999999999997,557.1428571428571)" d="M1.215,0A1.215,1.215,0,1,1,-1.215,0A1.215,1.215,0,1,1,1.215,0" fill="rgb(252, 229, 71)" stroke-width="2"/><path transform="translate(716.6666666666666,385.7142857142857)" d="M2.229,0A2.229,2.229,0,1,1,-2.229,0A2.229,2.229,0,1,1,2.229,0" fill="rgb(244, 219, 78)" stroke-width="2"/><path transform="translate(783.3333333333334,214.2857142857143)" d="M1.339,0A1.339,1.339,0,1,1,-1.339,0A1.339,1.339,0,1,1,1.339,0" fill="rgb(251, 228, 72)" stroke-width="2"/><path transform="translate(16.66666666666663,300)" d="M1.279,0A1.279,1.279,0,1,1,-1.279,0A1.279,1.279,0,1,1,1.279,0" fill="rgb(251, 229, 72)" stroke-width="2"/><path transform="translate(16.66666666666663,385.7142857142857)" d="M1.339,0A1.339,1.339,0,1,1,-1.339,0A1.339,1.339,0,1,1,1.339,0" fill="rgb(251, 228, 72)" stroke-width="2"/><path transform="translate(283.3333333333333,557.1428571428571)" d="M2.157,0A2.157,2.157,0,1,1,-2.157,0A2.157,2.157,0,1,1,2.157,0" fill="rgb(245, 220, 77)" stroke-width="2"/><path transform="translate(49.999999999999964,128.5714285714286)" d="M1.215,0A1.215,1.215,0,1,1,-1.215,0A1.215,1.215,0,1,1,1.215,0" fill="rgb(252, 229, 71)" stroke-width="2"/><path transform="translate(683.3333333333334,300)" d="M2.682,0A2.682,2.682,0,1,1,-2.682,0A2.682,2.682,0,1,1,2.682,0" fill="rgb(239, 213, 83)" stroke-width="2"/><path transform="translate(683.3333333333334,128.5714285714286)" d="M2.826,0A2.826,2.826,0,1,1,-2.826,0A2.826,2.826,0,1,1,2.826,0" fill="rgb(236, 212, 84)" stroke-width="2"/><path transform="translate(283.3333333333333,300)" d="M4.669,0A4.669,4.669,0,1,1,-4.669,0A4.669,4.669,0,1,1,4.669,0" fill="rgb(189, 176, 112)" stroke-width="2"/><path transform="translate(683.3333333333334,385.7142857142857)" d="M3.069,0A3.069,3.069,0,1,1,-3.069,0A3.069,3.069,0,1,1,3.069,0" fill="rgb(232, 208, 88)" stroke-width="2"/><path transform="translate(683.3333333333334,42.85714285714289)" d="M2.53,0A2.53,2.53,0,1,1,-2.53,0A2.53,2.53,0,1,1,2.53,0" fill="rgb(241, 215, 81)" stroke-width="2"/><path transform="translate(750,42.85714285714289)" d="M1.609,0A1.609,1.609,0,1,1,-1.609,0A1.609,1.609,0,1,1,1.609,0" fill="rgb(250, 226, 73)" stroke-width="2"/><path transform="translate(783.3333333333334,42.85714285714289)" d="M1.453,0A1.453,1.453,0,1,1,-1.453,0A1.453,1.453,0,1,1,1.453,0" fill="rgb(251, 227, 72)" stroke-width="2"/><path transform="translate(416.66666666666663,557.1428571428571)" d="M2.622,0A2.622,2.622,0,1,1,-2.622,0A2.622,2.622,0,1,1,2.622,0" fill="rgb(240, 214, 82)" stroke-width="2"/><path transform="translate(750,471.42857142857144)" d="M1.507,0A1.507,1.507,0,1,1,-1.507,0A1.507,1.507,0,1,1,1.507,0" fill="rgb(250, 227, 73)" stroke-width="2"/><path transform="translate(16.66666666666663,557.1428571428571)" d="M1.279,0A1.279,1.279,0,1,1,-1.279,0A1.279,1.279,0,1,1,1.279,0" fill="rgb(251, 229, 72)" stroke-width="2"/><path transform="translate(83.3333333333333,557.1428571428571)" d="M1.279,0A1.279,1.279,0,1,1,-1.279,0A1.279,1.279,0,1,1,1.279,0" fill="rgb(251, 229, 72)" stroke-width="2"/><path transform="translate(216.66666666666663,385.7142857142857)" d="M1.397,0A1.397,1.397,0,1,1,-1.397,0A1.397,1.397,0,1,1,1.397,0" fill="rgb(251, 228, 72)" stroke-width="2"/><path transform="translate(750,128.5714285714286)" d="M1.559,0A1.559,1.559,0,1,1,-1.559,0A1.559,1.559,0,1,1,1.559,0" fill="rgb(250, 226, 73)" stroke-width="2"/><path transform="translate(783.3333333333334,300)" d="M1.507,0A1.507,1.507,0,1,1,-1.507,0A1.507,1.507,0,1,1,1.507,0" fill="rgb(250, 227, 73)" stroke-width="2"/><path transform="translate(783.3333333333334,128.5714285714286)" d="M1.609,0A1.609,1.609,0,1,1,-1.609,0A1.609,1.609,0,1,1,1.609,0" fill="rgb(250, 226, 73)" stroke-width="2"/><path transform="translate(783.3333333333334,385.7142857142857)" d="M1.705,0A1.705,1.705,0,1,1,-1.705,0A1.705,1.705,0,1,1,1.705,0" fill="rgb(249, 225, 74)" stroke-width="2"/><path transform="translate(116.66666666666663,300)" d="M1.215,0A1.215,1.215,0,1,1,-1.215,0A1.215,1.215,0,1,1,1.215,0" fill="rgb(252, 229, 71)" stroke-width="2"/><path transform="translate(216.66666666666663,300)" d="M1.397,0A1.397,1.397,0,1,1,-1.397,0A1.397,1.397,0,1,1,1.397,0" fill="rgb(251, 228, 72)" stroke-width="2"/><path transform="translate(83.3333333333333,300)" d="M1.453,0A1.453,1.453,0,1,1,-1.453,0A1.453,1.453,0,1,1,1.453,0" fill="rgb(251, 227, 72)" stroke-width="2"/><path transform="translate(49.999999999999964,214.2857142857143)" d="M1.148,0A1.148,1.148,0,1,1,-1.148,0A1.148,1.148,0,1,1,1.148,0" fill="rgb(252, 230, 71)" stroke-width="2"/><path transform="translate(83.3333333333333,214.2857142857143)" d="M1.339,0A1.339,1.339,0,1,1,-1.339,0A1.339,1.339,0,1,1,1.339,0" fill="rgb(251, 228, 72)" stroke-width="2"/><path transform="translate(716.6666666666666,471.42857142857144)" d="M1.751,0A1.751,1.751,0,1,1,-1.751,0A1.751,1.751,0,1,1,1.751,0" fill="rgb(249, 225, 74)" stroke-width="2"/><path transform="translate(750,385.7142857142857)" d="M1.657,0A1.657,1.657,0,1,1,-1.657,0A1.657,1.657,0,1,1,1.657,0" fill="rgb(250, 226, 73)" stroke-width="2"/><path transform="translate(216.66666666666663,557.1428571428571)" d="M1.279,0A1.279,1.279,0,1,1,-1.279,0A1.279,1.279,0,1,1,1.279,0" fill="rgb(251, 229, 72)" stroke-width="2"/><path transform="translate(149.99999999999997,385.7142857142857)" d="M1.076,0A1.076,1.076,0,1,1,-1.076,0A1.076,1.076,0,1,1,1.076,0" fill="rgb(252, 230, 71)" stroke-width="2"/><path transform="translate(183.33333333333331,385.7142857142857)" d="M1.279,0A1.279,1.279,0,1,1,-1.279,0A1.279,1.279,0,1,1,1.279,0" fill="rgb(251, 229, 72)" stroke-width="2"/><path transform="translate(16.66666666666663,128.5714285714286)" d="M1.339,0A1.339,1.339,0,1,1,-1.339,0A1.339,1.339,0,1,1,1.339,0" fill="rgb(251, 228, 72)" stroke-width="2"/><path transform="translate(116.66666666666663,128.5714285714286)" d="M1.339,0A1.339,1.339,0,1,1,-1.339,0A1.339,1.339,0,1,1,1.339,0" fill="rgb(251, 228, 72)" stroke-width="2"/><path transform="translate(49.999999999999964,42.85714285714289)" d="M1.148,0A1.148,1.148,0,1,1,-1.148,0A1.148,1.148,0,1,1,1.148,0" fill="rgb(252, 230, 71)" stroke-width="2"/><path transform="translate(83.3333333333333,42.85714285714289)" d="M1.076,0A1.076,1.076,0,1,1,-1.076,0A1.076,1.076,0,1,1,1.076,0" fill="rgb(252, 230, 71)" stroke-width="2"/><path transform="translate(216.66666666666663,471.42857142857144)" d="M1.148,0A1.148,1.148,0,1,1,-1.148,0A1.148,1.148,0,1,1,1.148,0" fill="rgb(252, 230, 71)" stroke-width="2"/><path transform="translate(783.3333333333334,471.42857142857144)" d="M1.453,0A1.453,1.453,0,1,1,-1.453,0A1.453,1.453,0,1,1,1.453,0" fill="rgb(251, 227, 72)" stroke-width="2"/><path transform="translate(16.66666666666663,42.85714285714289)" d="M1.076,0A1.076,1.076,0,1,1,-1.076,0A1.076,1.076,0,1,1,1.076,0" fill="rgb(252, 230, 71)" stroke-width="2"/><path transform="translate(16.66666666666663,214.2857142857143)" d="M1.397,0A1.397,1.397,0,1,1,-1.397,0A1.397,1.397,0,1,1,1.397,0" fill="rgb(251, 228, 72)" stroke-width="2"/><path transform="translate(49.999999999999964,471.42857142857144)" d="M1.279,0A1.279,1.279,0,1,1,-1.279,0A1.279,1.279,0,1,1,1.279,0" fill="rgb(251, 229, 72)" stroke-width="2"/><path transform="translate(216.66666666666663,214.2857142857143)" d="M1.215,0A1.215,1.215,0,1,1,-1.215,0A1.215,1.215,0,1,1,1.215,0" fill="rgb(252, 229, 71)" stroke-width="2"/><path transform="translate(216.66666666666663,42.85714285714289)" d="M1.215,0A1.215,1.215,0,1,1,-1.215,0A1.215,1.215,0,1,1,1.215,0" fill="rgb(252, 229, 71)" stroke-width="2"/><path transform="translate(216.66666666666663,128.5714285714286)" d="M1.148,0A1.148,1.148,0,1,1,-1.148,0A1.148,1.148,0,1,1,1.148,0" fill="rgb(252, 230, 71)" stroke-width="2"/><path transform="translate(16.66666666666663,471.42857142857144)" d="M1.339,0A1.339,1.339,0,1,1,-1.339,0A1.339,1.339,0,1,1,1.339,0" fill="rgb(251, 228, 72)" stroke-width="2"/><path transform="translate(49.999999999999964,557.1428571428571)" d="M1.148,0A1.148,1.148,0,1,1,-1.148,0A1.148,1.148,0,1,1,1.148,0" fill="rgb(252, 230, 71)" stroke-width="2"/><path transform="translate(183.33333333333331,471.42857142857144)" d="M1.076,0A1.076,1.076,0,1,1,-1.076,0A1.076,1.076,0,1,1,1.076,0" fill="rgb(252, 230, 71)" stroke-width="2"/><path transform="translate(83.3333333333333,471.42857142857144)" d="M1.076,0A1.076,1.076,0,1,1,-1.076,0A1.076,1.076,0,1,1,1.076,0" fill="rgb(252, 230, 71)" stroke-width="2"/><path transform="translate(49.999999999999964,300)" d="M1.148,0A1.148,1.148,0,1,1,-1.148,0A1.148,1.148,0,1,1,1.148,0" fill="rgb(252, 230, 71)" stroke-width="2"/><path transform="translate(183.33333333333331,214.2857142857143)" d="M1.148,0A1.148,1.148,0,1,1,-1.148,0A1.148,1.148,0,1,1,1.148,0" fill="rgb(252, 230, 71)" stroke-width="2"/><path transform="translate(83.3333333333333,128.5714285714286)" d="M1.148,0A1.148,1.148,0,1,1,-1.148,0A1.148,1.148,0,1,1,1.148,0" fill="rgb(252, 230, 71)" stroke-width="2"/><path transform="translate(116.66666666666663,42.85714285714289)" d="M1.076,0A1.076,1.076,0,1,1,-1.076,0A1.076,1.076,0,1,1,1.076,0" fill="rgb(252, 230, 71)" stroke-width="2"/><path transform="translate(116.66666666666663,214.2857142857143)" d="M1.076,0A1.076,1.076,0,1,1,-1.076,0A1.076,1.076,0,1,1,1.076,0" fill="rgb(252, 230, 71)" stroke-width="2"/><path transform="translate(183.33333333333331,557.1428571428571)" d="M1.076,0A1.076,1.076,0,1,1,-1.076,0A1.076,1.076,0,1,1,1.076,0" fill="rgb(252, 230, 71)" stroke-width="2"/><path transform="translate(149.99999999999997,300)" d="M1.076,0A1.076,1.076,0,1,1,-1.076,0A1.076,1.076,0,1,1,1.076,0" fill="rgb(252, 230, 71)" stroke-width="2"/><path transform="translate(116.66666666666663,385.7142857142857)" d="M1.076,0A1.076,1.076,0,1,1,-1.076,0A1.076,1.076,0,1,1,1.076,0" fill="rgb(252, 230, 71)" stroke-width="2"/><path transform="translate(83.3333333333333,385.7142857142857)" d="M1.076,0A1.076,1.076,0,1,1,-1.076,0A1.076,1.076,0,1,1,1.076,0" fill="rgb(252, 230, 71)" stroke-width="2"/><path transform="translate(149.99999999999997,128.5714285714286)" d="M1.076,0A1.076,1.076,0,1,1,-1.076,0A1.076,1.076,0,1,1,1.076,0" fill="rgb(252, 230, 71)" stroke-width="2"/><path transform="translate(183.33333333333331,42.85714285714289)" d="M1.076,0A1.076,1.076,0,1,1,-1.076,0A1.076,1.076,0,1,1,1.076,0" fill="rgb(252, 230, 71)" stroke-width="2"/></g><g class="mark-group role-legend" role="graphics-symbol" aria-roledescription="legend" aria-label="Symbol legend titled 'Quantidade' for size and fill color with values from 0 to 562"><g transform="translate(818,0)"><path class="background" aria-hidden="true" d="M0,0h89v135h-89Z" pointer-events="none"/><g><g class="mark-group role-legend-entry"><g transform="translate(0,21)"><path class="background" aria-hidden="true" d="M0,0h0v0h0Z" pointer-events="none"/><g><g class="mark-group role-scope" role="graphics-object" aria-roledescription="group mark container"><g transform="translate(0,0)"><path class="background" aria-hidden="true" d="M0,0h47.3583984375v14h-47.3583984375Z" pointer-events="none" opacity="1"/><g><g class="mark-symbol role-legend-symbol" pointer-events="none"><path transform="translate(10,7)" d="M1,0A1,1,0,1,1,-1,0A1,1,0,1,1,1,0" fill="rgb(252, 230, 71)" fill-opacity="1" stroke-width="1.5" opacity="1"/></g><g class="mark-text role-legend-label" pointer-events="none"><text text-anchor="start" transform="translate(24,11)" font-family="sans-serif" font-size="14px" fill="#000" opacity="1">0</text></g></g><path class="foreground" aria-hidden="true" d="" pointer-events="none" display="none"/></g><g transform="translate(0,16)"><path class="background" aria-hidden="true" d="M0,0h47.3583984375v14h-47.3583984375Z" pointer-events="none" opacity="1"/><g><g class="mark-symbol role-legend-symbol" pointer-events="none"><path transform="translate(10,7)" d="M4.109,0A4.109,4.109,0,1,1,-4.109,0A4.109,4.109,0,1,1,4.109,0" fill="rgb(205, 189, 104)" fill-opacity="1" stroke-width="1.5" opacity="1"/></g><g class="mark-text role-legend-label" pointer-events="none"><text text-anchor="start" transform="translate(24,11)" font-family="sans-serif" font-size="14px" fill="#000" opacity="1">100</text></g></g><path class="foreground" aria-hidden="true" d="" pointer-events="none" display="none"/></g><g transform="translate(0,33)"><path class="background" aria-hidden="true" d="M0,0h47.3583984375v14.223771993737955h-47.3583984375Z" pointer-events="none" opacity="1"/><g><g class="mark-symbol role-legend-symbol" pointer-events="none"><path transform="translate(10,7)" d="M5.724,0A5.724,5.724,0,1,1,-5.724,0A5.724,5.724,0,1,1,5.724,0" fill="rgb(157, 150, 120)" fill-opacity="1" stroke-width="1.5" opacity="1"/></g><g class="mark-text role-legend-label" pointer-events="none"><text text-anchor="start" transform="translate(24,11)" font-family="sans-serif" font-size="14px" fill="#000" opacity="1">200</text></g></g><path class="foreground" aria-hidden="true" d="" pointer-events="none" display="none"/></g><g transform="translate(0,51)"><path class="background" aria-hidden="true" d="M0,0h47.3583984375v16.474406695515285h-47.3583984375Z" pointer-events="none" opacity="1"/><g><g class="mark-symbol role-legend-symbol" pointer-events="none"><path transform="translate(10,8)" d="M6.974,0A6.974,6.974,0,1,1,-6.974,0A6.974,6.974,0,1,1,6.974,0" fill="rgb(119, 116, 114)" fill-opacity="1" stroke-width="1.5" opacity="1"/></g><g class="mark-text role-legend-label" pointer-events="none"><text text-anchor="start" transform="translate(24,12)" font-family="sans-serif" font-size="14px" fill="#000" opacity="1">300</text></g></g><path class="foreground" aria-hidden="true" d="" pointer-events="none" display="none"/></g><g transform="translate(0,71)"><path class="background" aria-hidden="true" d="M0,0h47.3583984375v18.532629188042847h-47.3583984375Z" pointer-events="none" opacity="1"/><g><g class="mark-symbol role-legend-symbol" pointer-events="none"><path transform="translate(10,9)" d="M8.033,0A8.033,8.033,0,1,1,-8.033,0A8.033,8.033,0,1,1,8.033,0" fill="rgb(72, 84, 109)" fill-opacity="1" stroke-width="1.5" opacity="1"/></g><g class="mark-text role-legend-label" pointer-events="none"><text text-anchor="start" transform="translate(24,13)" font-family="sans-serif" font-size="14px" fill="#000" opacity="1">400</text></g></g><path class="foreground" aria-hidden="true" d="" pointer-events="none" display="none"/></g><g transform="translate(0,93)"><path class="background" aria-hidden="true" d="M0,0h47.3583984375v20.466822993164712h-47.3583984375Z" pointer-events="none" opacity="1"/><g><g class="mark-symbol role-legend-symbol" pointer-events="none"><path transform="translate(10,10)" d="M8.967,0A8.967,8.967,0,1,1,-8.967,0A8.967,8.967,0,1,1,8.967,0" fill="rgb(13, 52, 107)" fill-opacity="1" stroke-width="1.5" opacity="1"/></g><g class="mark-text role-legend-label" pointer-events="none"><text text-anchor="start" transform="translate(24,14)" font-family="sans-serif" font-size="14px" fill="#000" opacity="1">500</text></g></g><path class="foreground" aria-hidden="true" d="" pointer-events="none" display="none"/></g></g></g><path class="foreground" aria-hidden="true" d="" pointer-events="none" display="none"/></g></g><g class="mark-text role-legend-title" pointer-events="none"><text text-anchor="start" transform="translate(0,13)" font-family="sans-serif" font-size="16px" font-weight="bold" fill="#000" opacity="1">Quantidade</text></g></g><path class="foreground" aria-hidden="true" d="" pointer-events="none" display="none"/></g></g><g class="mark-group role-title"><g transform="translate(400,-24)"><path class="background" aria-hidden="true" d="M0,0h0v0h0Z" pointer-events="none"/><g><g class="mark-text role-title-text" role="graphics-symbol" aria-roledescription="title" aria-label="Title text 'Número de agendas por dia da semana e horário'" pointer-events="none"><text text-anchor="middle" transform="translate(0,16)" font-family="Arial" font-size="20px" font-weight="bold" fill="black" opacity="1">Número de agendas por dia da semana e horário</text></g></g><path class="foreground" aria-hidden="true" d="" pointer-events="none" display="none"/></g></g></g><path class="foreground" aria-hidden="true" d="" display="none"/></g></g></g></svg>