<svg xmlns="http://www.w3.org/2000/svg" xmlns:xlink="http://www.w3.org/1999/xlink" version="1.1" class="marks" width="676" height="206" viewBox="0 0 676 206"><rect width="676" height="206" fill="white"/><g fill="none" stroke-miterlimit="10" transform="translate(80,27)"><g class="mark-group role-frame root" role="graphics-object" aria-roledescription="group mark container"><g transform="translate(0,0)"><path class="background" aria-hidden="true" d="M0.5,0.5h480v140h-480Z" stroke="#ddd"/><g><g class="mark-group role-axis" role="graphics-symbol" aria-roledescription="axis" aria-label="X-axis titled 'hour' for a discrete scale with 24 values: 0, 1, 2, 3, 4, ending with 23"><g transform="translate(0.5,140.5)"><path class="background" aria-hidden="true" d="M0,0h0v0h0Z" pointer-events="none"/><g><g class="mark-rule role-axis-tick" pointer-events="none"><line transform="translate(10,0)" x2="0" y2="5" stroke="#888" stroke-width="1" opacity="1"/><line transform="translate(30,0)" x2="0" y2="5" stroke="#888" stroke-width="1" opacity="1"/><line transform="translate(50,0)" x2="0" y2="5" stroke="#888" stroke-width="1" opacity="1"/><line transform="translate(70,0)" x2="0" y2="5" stroke="#888" stroke-width="1" opacity="1"/><line transform="translate(90,0)" x2="0" y2="5" stroke="#888" stroke-width="1" opacity="1"/><line transform="translate(110,0)" x2="0" y2="5" stroke="#888" stroke-width="1" opacity="1"/><line transform="translate(130,0)" x2="0" y2="5" stroke="#888" stroke-width="1" opacity="1"/><line transform="translate(150,0)" x2="0" y2="5" stroke="#888" stroke-width="1" opacity="1"/><line transform="translate(170,0)" x2="0" y2="5" stroke="#888" stroke-width="1" opacity="1"/><line transform="translate(190,0)" x2="0" y2="5" stroke="#888" stroke-width="1" opacity="1"/><line transform="translate(210,0)" x2="0" y2="5" stroke="#888" stroke-width="1" opacity="1"/><line transform="translate(230,0)" x2="0" y2="5" stroke="#888" stroke-width="1" opacity="1"/><line transform="translate(250,0)" x2="0" y2="5" stroke="#888" stroke-width="1" opacity="1"/><line transform="translate(270,0)" x2="0" y2="5" stroke="#888" stroke-width="1" opacity="1"/><line transform="translate(290,0)" x2="0" y2="5" stroke="#888" stroke-width="1" opacity="1"/><line transform="translate(310,0)" x2="0" y2="5" stroke="#888" stroke-width="1" opacity="1"/><line transform="translate(330,0)" x2="0" y2="5" stroke="#888" stroke-width="1" opacity="1"/><line transform="translate(350,0)" x2="0" y2="5" stroke="#888" stroke-width="1" opacity="1"/><line transform="translate(370,0)" x2="0" y2="5" stroke="#888" stroke-width="1" opacity="1"/><line transform="translate(390,0)" x2="0" y2="5" stroke="#888" stroke-width="1" opacity="1"/><line transform="translate(410,0)" x2="0" y2="5" stroke="#888" stroke-width="1" opacity="1"/><line transform="translate(430,0)" x2="0" y2="5" stroke="#888" stroke-width="1" opacity="1"/><line transform="translate(450,0)" x2="0" y2="5" stroke="#888" stroke-width="1" opacity="1"/><line transform="translate(470,0)" x2="0" y2="5" stroke="#888" stroke-width="1" opacity="1"/></g><g class="mark-text role-axis-label" pointer-events="none"><text text-anchor="end" transform="translate(10,7) rotate(270) translate(0,3)" font-family="sans-serif" font-size="10px" fill="#000" opacity="1">0</text><text text-anchor="end" transform="translate(30,7) rotate(270) translate(0,3)" font-family="sans-serif" font-size="10px" fill="#000" opacity="1">1</text><text text-anchor="end" transform="translate(50,7) rotate(270) translate(0,3)" font-family="sans-serif" font-size="10px" fill="#000" opacity="1">2</text><text text-anchor="end" transform="translate(70,7) rotate(270) translate(0,3)" font-family="sans-serif" font-size="10px" fill="#000" opacity="1">3</text><text text-anchor="end" transform="translate(90,7) rotate(270) translate(0,3)" font-family="sans-serif" font-size="10px" fill="#000" opacity="1">4</text><text text-anchor="end" transform="translate(110,7) rotate(270) translate(0,3)" font-family="sans-serif" font-size="10px" fill="#000" opacity="1">5</text><text text-anchor="end" transform="translate(130,7) rotate(270) translate(0,3)" font-family="sans-serif" font-size="10px" fill="#000" opacity="1">6</text><text text-anchor="end" transform="translate(150,7) rotate(270) translate(0,3)" font-family="sans-serif" font-size="10px" fill="#000" opacity="1">7</text><text text-anchor="end" transform="translate(170,7) rotate(270) translate(0,3)" font-family="sans-serif" font-size="10px" fill="#000" opacity="1">8</text><text text-anchor="end" transform="translate(190,7) rotate(270) translate(0,3)" font-family="sans-serif" font-size="10px" fill="#000" opacity="1">9</text><text text-anchor="end" transform="translate(210,7) rotate(270) translate(0,3)" font-family="sans-serif" font-size="10px" fill="#000" opacity="1">10</text><text text-anchor="end" transform="translate(230,7) rotate(270) translate(0,3)" font-family="sans-serif" font-size="10px" fill="#000" opacity="1">11</text><text text-anchor="end" transform="translate(250,7) rotate(270) translate(0,3)" font-family="sans-serif" font-size="10px" fill="#000" opacity="1">12</text><text text-anchor="end" transform="translate(270,7) rotate(270) translate(0,3)" font-family="sans-serif" font-size="10px" fill="#000" opacity="1">13</text><text text-anchor="end" transform="translate(290,7) rotate(270) translate(0,3)" font-family="sans-serif" font-size="10px" fill="#000" opacity="1">14</text><text text-anchor="end" transform="translate(310,7) rotate(270) translate(0,3)" font-family="sans-serif" font-size="10px" fill="#000" opacity="1">15</text><text text-anchor="end" transform="translate(330,7) rotate(270) translate(0,3)" font-family="sans-serif" font-size="10px" fill="#000" opacity="1">16</text><text text-anchor="end" transform="translate(350,7) rotate(270) translate(0,3)" font-family="sans-serif" font-size="10px" fill="#000" opacity="1">17</text><text text-anchor="end" transform="translate(370,7) rotate(270) translate(0,3)" font-family="sans-serif" font-size="10px" fill="#000" opacity="1">18</text><text text-anchor="end" transform="translate(390,7) rotate(270) translate(0,3)" font-family="sans-serif" font-size="10px" fill="#000" opacity="1">19</text><text text-anchor="end" transform="translate(410,7) rotate(270) translate(0,3)" font-family="sans-serif" font-size="10px" fill="#000" opacity="1">20</text><text text-anchor="end" transform="translate(430,7) rotate(270) translate(0,3)" font-family="sans-serif" font-size="10px" fill="#000" opacity="1">21</text><text text-anchor="end" transform="translate(450,7) rotate(270) translate(0,3)" font-family="sans-serif" font-size="10px" fill="#000" opacity="1">22</text><text text-anchor="end" transform="translate(470,7) rotate(270) translate(0,3)" font-family="sans-serif" font-size="10px" fill="#000" opacity="1">23</text></g><g class="mark-rule role-axis-domain" pointer-events="none"><line transform="translate(0,0)" x2="480" y2="0" stroke="#888" stroke-width="1" opacity="1"/></g><g class="mark-text role-axis-title" pointer-events="none"><text text-anchor="middle" transform="translate(240,31.123046875)" font-family="sans-serif" font-size="11px" font-weight="bold" fill="#000" opacity="1">hour</text></g></g><path class="foreground" aria-hidden="true" d="" pointer-events="none" display="none"/></g></g><g class="mark-group role-axis" role="graphics-symbol" aria-roledescription="axis" aria-label="Y-axis titled 'weekday' for a discrete scale with 7 values: Monday, Tuesday, Wednesday, Thursday, Friday, Saturday, Sunday"><g transform="translate(0.5,0.5)"><path class="background" aria-hidden="true" d="M0,0h0v0h0Z" pointer-events="none"/><g><g class="mark-rule role-axis-tick" pointer-events="none"><line transform="translate(0,10)" x2="-5" y2="0" stroke="#888" stroke-width="1" opacity="1"/><line transform="translate(0,30)" x2="-5" y2="0" stroke="#888" stroke-width="1" opacity="1"/><line transform="translate(0,50)" x2="-5" y2="0" stroke="#888" stroke-width="1" opacity="1"/><line transform="translate(0,70)" x2="-5" y2="0" stroke="#888" stroke-width="1" opacity="1"/><line transform="translate(0,90)" x2="-5" y2="0" stroke="#888" stroke-width="1" opacity="1"/><line transform="translate(0,110)" x2="-5" y2="0" stroke="#888" stroke-width="1" opacity="1"/><line transform="translate(0,130)" x2="-5" y2="0" stroke="#888" stroke-width="1" opacity="1"/></g><g class="mark-text role-axis-label" pointer-events="none"><text text-anchor="end" transform="translate(-7,13)" font-family="sans-serif" font-size="10px" fill="#000" opacity="1">Monday</text><text text-anchor="end" transform="translate(-7,33)" font-family="sans-serif" font-size="10px" fill="#000" opacity="1">Tuesday</text><text text-anchor="end" transform="translate(-7,53)" font-family="sans-serif" font-size="10px" fill="#000" opacity="1">Wednesday</text><text text-anchor="end" transform="translate(-7,73)" font-family="sans-serif" font-size="10px" fill="#000" opacity="1">Thursday</text><text text-anchor="end" transform="translate(-7,93)" font-family="sans-serif" font-size="10px" fill="#000" opacity="1">Friday</text><text text-anchor="end" transform="translate(-7,113)" font-family="sans-serif" font-size="10px" fill="#000" opacity="1">Saturday</text><text text-anchor="end" transform="translate(-7,133)" font-family="sans-serif" font-size="10px" fill="#000" opacity="1">Sunday</text></g><g class="mark-rule role-axis-domain" pointer-events="none"><line transform="translate(0,0)" x2="0" y2="140" stroke="#888" stroke-width="1" opacity="1"/></g><g class="mark-text role-axis-title" pointer-events="none"><text text-anchor="middle" transform="translate(-63.626953125,70) rotate(-90) translate(0,-2)" font-family="sans-serif" font-size="11px" font-weight="bold" fill="#000" opacity="1">weekday</text></g></g><path class="foreground" aria-hidden="true" d="" pointer-events="none" display="none"/></g></g><g class="mark-symbol role-mark marks" role="graphics-symbol" aria-roledescription="symbol mark container"><path transform="translate(310,130)" d="M2.368,0A2.368,2.368,0,1,1,-2.368,0A2.368,2.368,0,1,1,2.368,0" fill="rgb(71, 20, 102)" stroke-width="2"/><path transform="translate(350,130)" d="M2.229,0A2.229,2.229,0,1,1,-2.229,0A2.229,2.229,0,1,1,2.229,0" fill="rgb(71, 17, 100)" stroke-width="2"/><path transform="translate(390,130)" d="M2.193,0A2.193,2.193,0,1,1,-2.193,0A2.193,2.193,0,1,1,2.193,0" fill="rgb(71, 17, 100)" stroke-width="2"/><path transform="translate(410,130)" d="M1.795,0A1.795,1.795,0,1,1,-1.795,0A1.795,1.795,0,1,1,1.795,0" fill="rgb(70, 10, 93)" stroke-width="2"/><path transform="translate(470,130)" d="M1.215,0A1.215,1.215,0,1,1,-1.215,0A1.215,1.215,0,1,1,1.215,0" fill="rgb(68, 2, 85)" stroke-width="2"/><path transform="translate(190,10)" d="M7.554,0A7.554,7.554,0,1,1,-7.554,0A7.554,7.554,0,1,1,7.554,0" fill="rgb(41, 175, 128)" stroke-width="2"/><path transform="translate(210,10)" d="M8.494,0A8.494,8.494,0,1,1,-8.494,0A8.494,8.494,0,1,1,8.494,0" fill="rgb(120, 209, 82)" stroke-width="2"/><path transform="translate(250,10)" d="M5.139,0A5.139,5.139,0,1,1,-5.139,0A5.139,5.139,0,1,1,5.139,0" fill="rgb(55, 91, 141)" stroke-width="2"/><path transform="translate(270,10)" d="M4.389,0A4.389,4.389,0,1,1,-4.389,0A4.389,4.389,0,1,1,4.389,0" fill="rgb(65, 69, 135)" stroke-width="2"/><path transform="translate(290,10)" d="M6.479,0A6.479,6.479,0,1,1,-6.479,0A6.479,6.479,0,1,1,6.479,0" fill="rgb(36, 134, 142)" stroke-width="2"/><path transform="translate(310,10)" d="M9.046,0A9.046,9.046,0,1,1,-9.046,0A9.046,9.046,0,1,1,9.046,0" fill="rgb(192, 223, 37)" stroke-width="2"/><path transform="translate(330,10)" d="M7.575,0A7.575,7.575,0,1,1,-7.575,0A7.575,7.575,0,1,1,7.575,0" fill="rgb(41, 175, 127)" stroke-width="2"/><path transform="translate(350,10)" d="M7.21,0A7.21,7.21,0,1,1,-7.21,0A7.21,7.21,0,1,1,7.21,0" fill="rgb(31, 161, 136)" stroke-width="2"/><path transform="translate(370,10)" d="M5.291,0A5.291,5.291,0,1,1,-5.291,0A5.291,5.291,0,1,1,5.291,0" fill="rgb(53, 96, 141)" stroke-width="2"/><path transform="translate(190,30)" d="M7.679,0A7.679,7.679,0,1,1,-7.679,0A7.679,7.679,0,1,1,7.679,0" fill="rgb(47, 179, 124)" stroke-width="2"/><path transform="translate(190,50)" d="M7.596,0A7.596,7.596,0,1,1,-7.596,0A7.596,7.596,0,1,1,7.596,0" fill="rgb(42, 176, 127)" stroke-width="2"/><path transform="translate(210,50)" d="M8.985,0A8.985,8.985,0,1,1,-8.985,0A8.985,8.985,0,1,1,8.985,0" fill="rgb(183, 222, 42)" stroke-width="2"/><path transform="translate(230,50)" d="M8.559,0A8.559,8.559,0,1,1,-8.559,0A8.559,8.559,0,1,1,8.559,0" fill="rgb(128, 211, 77)" stroke-width="2"/><path transform="translate(310,50)" d="M9.5,0A9.5,9.5,0,1,1,-9.5,0A9.5,9.5,0,1,1,9.5,0" fill="rgb(253, 231, 37)" stroke-width="2"/><path transform="translate(330,50)" d="M8.295,0A8.295,8.295,0,1,1,-8.295,0A8.295,8.295,0,1,1,8.295,0" fill="rgb(98, 202, 95)" stroke-width="2"/><path transform="translate(350,50)" d="M7.427,0A7.427,7.427,0,1,1,-7.427,0A7.427,7.427,0,1,1,7.427,0" fill="rgb(35, 169, 131)" stroke-width="2"/><path transform="translate(370,50)" d="M4.918,0A4.918,4.918,0,1,1,-4.918,0A4.918,4.918,0,1,1,4.918,0" fill="rgb(58, 84, 140)" stroke-width="2"/><path transform="translate(190,70)" d="M7.405,0A7.405,7.405,0,1,1,-7.405,0A7.405,7.405,0,1,1,7.405,0" fill="rgb(35, 169, 132)" stroke-width="2"/><path transform="translate(210,70)" d="M8.77,0A8.77,8.77,0,1,1,-8.77,0A8.77,8.77,0,1,1,8.77,0" fill="rgb(154, 217, 61)" stroke-width="2"/><path transform="translate(230,70)" d="M8.651,0A8.651,8.651,0,1,1,-8.651,0A8.651,8.651,0,1,1,8.651,0" fill="rgb(139, 214, 70)" stroke-width="2"/><path transform="translate(290,70)" d="M6.254,0A6.254,6.254,0,1,1,-6.254,0A6.254,6.254,0,1,1,6.254,0" fill="rgb(40, 127, 142)" stroke-width="2"/><path transform="translate(310,70)" d="M8.697,0A8.697,8.697,0,1,1,-8.697,0A8.697,8.697,0,1,1,8.697,0" fill="rgb(145, 215, 67)" stroke-width="2"/><path transform="translate(330,70)" d="M7.883,0A7.883,7.883,0,1,1,-7.883,0A7.883,7.883,0,1,1,7.883,0" fill="rgb(60, 187, 117)" stroke-width="2"/><path transform="translate(350,70)" d="M6.139,0A6.139,6.139,0,1,1,-6.139,0A6.139,6.139,0,1,1,6.139,0" fill="rgb(41, 123, 142)" stroke-width="2"/><path transform="translate(370,70)" d="M4.601,0A4.601,4.601,0,1,1,-4.601,0A4.601,4.601,0,1,1,4.601,0" fill="rgb(62, 75, 137)" stroke-width="2"/><path transform="translate(190,90)" d="M7.199,0A7.199,7.199,0,1,1,-7.199,0A7.199,7.199,0,1,1,7.199,0" fill="rgb(31, 160, 136)" stroke-width="2"/><path transform="translate(370,90)" d="M4.204,0A4.204,4.204,0,1,1,-4.204,0A4.204,4.204,0,1,1,4.204,0" fill="rgb(66, 64, 133)" stroke-width="2"/><path transform="translate(290,130)" d="M2.265,0A2.265,2.265,0,1,1,-2.265,0A2.265,2.265,0,1,1,2.265,0" fill="rgb(71, 18, 101)" stroke-width="2"/><path transform="translate(430,130)" d="M1.397,0A1.397,1.397,0,1,1,-1.397,0A1.397,1.397,0,1,1,1.397,0" fill="rgb(69, 4, 87)" stroke-width="2"/><path transform="translate(450,130)" d="M1.453,0A1.453,1.453,0,1,1,-1.453,0A1.453,1.453,0,1,1,1.453,0" fill="rgb(69, 5, 88)" stroke-width="2"/><path transform="translate(170,30)" d="M5.185,0A5.185,5.185,0,1,1,-5.185,0A5.185,5.185,0,1,1,5.185,0" fill="rgb(54, 93, 141)" stroke-width="2"/><path transform="translate(210,30)" d="M8.503,0A8.503,8.503,0,1,1,-8.503,0A8.503,8.503,0,1,1,8.503,0" fill="rgb(121, 209, 82)" stroke-width="2"/><path transform="translate(230,30)" d="M8.485,0A8.485,8.485,0,1,1,-8.485,0A8.485,8.485,0,1,1,8.485,0" fill="rgb(119, 208, 83)" stroke-width="2"/><path transform="translate(310,30)" d="M9.391,0A9.391,9.391,0,1,1,-9.391,0A9.391,9.391,0,1,1,9.391,0" fill="rgb(239, 230, 29)" stroke-width="2"/><path transform="translate(330,30)" d="M8.189,0A8.189,8.189,0,1,1,-8.189,0A8.189,8.189,0,1,1,8.189,0" fill="rgb(87, 198, 102)" stroke-width="2"/><path transform="translate(350,30)" d="M7.076,0A7.076,7.076,0,1,1,-7.076,0A7.076,7.076,0,1,1,7.076,0" fill="rgb(31, 156, 138)" stroke-width="2"/><path transform="translate(250,70)" d="M5.64,0A5.64,5.64,0,1,1,-5.64,0A5.64,5.64,0,1,1,5.64,0" fill="rgb(48, 107, 142)" stroke-width="2"/><path transform="translate(230,90)" d="M7.512,0A7.512,7.512,0,1,1,-7.512,0A7.512,7.512,0,1,1,7.512,0" fill="rgb(39, 173, 129)" stroke-width="2"/><path transform="translate(310,90)" d="M7.341,0A7.341,7.341,0,1,1,-7.341,0A7.341,7.341,0,1,1,7.341,0" fill="rgb(33, 166, 133)" stroke-width="2"/><path transform="translate(330,90)" d="M6.279,0A6.279,6.279,0,1,1,-6.279,0A6.279,6.279,0,1,1,6.279,0" fill="rgb(39, 128, 142)" stroke-width="2"/><path transform="translate(370,30)" d="M5.061,0A5.061,5.061,0,1,1,-5.061,0A5.061,5.061,0,1,1,5.061,0" fill="rgb(56, 88, 140)" stroke-width="2"/><path transform="translate(210,90)" d="M8.743,0A8.743,8.743,0,1,1,-8.743,0A8.743,8.743,0,1,1,8.743,0" fill="rgb(151, 216, 63)" stroke-width="2"/><path transform="translate(350,90)" d="M5.17,0A5.17,5.17,0,1,1,-5.17,0A5.17,5.17,0,1,1,5.17,0" fill="rgb(55, 92, 141)" stroke-width="2"/><path transform="translate(150,110)" d="M1.609,0A1.609,1.609,0,1,1,-1.609,0A1.609,1.609,0,1,1,1.609,0" fill="rgb(69, 7, 90)" stroke-width="2"/><path transform="translate(190,110)" d="M3.458,0A3.458,3.458,0,1,1,-3.458,0A3.458,3.458,0,1,1,3.458,0" fill="rgb(71, 43, 122)" stroke-width="2"/><path transform="translate(210,110)" d="M4.07,0A4.07,4.07,0,1,1,-4.07,0A4.07,4.07,0,1,1,4.07,0" fill="rgb(67, 60, 132)" stroke-width="2"/><path transform="translate(230,110)" d="M3.766,0A3.766,3.766,0,1,1,-3.766,0A3.766,3.766,0,1,1,3.766,0" fill="rgb(70, 51, 127)" stroke-width="2"/><path transform="translate(270,110)" d="M3.069,0A3.069,3.069,0,1,1,-3.069,0A3.069,3.069,0,1,1,3.069,0" fill="rgb(72, 35, 115)" stroke-width="2"/><path transform="translate(350,110)" d="M2.712,0A2.712,2.712,0,1,1,-2.712,0A2.712,2.712,0,1,1,2.712,0" fill="rgb(72, 27, 109)" stroke-width="2"/><path transform="translate(370,130)" d="M2.265,0A2.265,2.265,0,1,1,-2.265,0A2.265,2.265,0,1,1,2.265,0" fill="rgb(71, 18, 101)" stroke-width="2"/><path transform="translate(230,10)" d="M7.627,0A7.627,7.627,0,1,1,-7.627,0A7.627,7.627,0,1,1,7.627,0" fill="rgb(44, 177, 126)" stroke-width="2"/><path transform="translate(390,10)" d="M3.766,0A3.766,3.766,0,1,1,-3.766,0A3.766,3.766,0,1,1,3.766,0" fill="rgb(70, 51, 127)" stroke-width="2"/><path transform="translate(270,30)" d="M4.787,0A4.787,4.787,0,1,1,-4.787,0A4.787,4.787,0,1,1,4.787,0" fill="rgb(60, 81, 139)" stroke-width="2"/><path transform="translate(250,50)" d="M5.738,0A5.738,5.738,0,1,1,-5.738,0A5.738,5.738,0,1,1,5.738,0" fill="rgb(46, 110, 142)" stroke-width="2"/><path transform="translate(270,50)" d="M4.334,0A4.334,4.334,0,1,1,-4.334,0A4.334,4.334,0,1,1,4.334,0" fill="rgb(65, 67, 135)" stroke-width="2"/><path transform="translate(430,50)" d="M2.004,0A2.004,2.004,0,1,1,-2.004,0A2.004,2.004,0,1,1,2.004,0" fill="rgb(71, 14, 97)" stroke-width="2"/><path transform="translate(290,90)" d="M6.216,0A6.216,6.216,0,1,1,-6.216,0A6.216,6.216,0,1,1,6.216,0" fill="rgb(40, 126, 142)" stroke-width="2"/><path transform="translate(430,10)" d="M1.705,0A1.705,1.705,0,1,1,-1.705,0A1.705,1.705,0,1,1,1.705,0" fill="rgb(70, 9, 92)" stroke-width="2"/><path transform="translate(390,50)" d="M3.68,0A3.68,3.68,0,1,1,-3.68,0A3.68,3.68,0,1,1,3.68,0" fill="rgb(70, 49, 126)" stroke-width="2"/><path transform="translate(410,50)" d="M2.798,0A2.798,2.798,0,1,1,-2.798,0A2.798,2.798,0,1,1,2.798,0" fill="rgb(72, 29, 110)" stroke-width="2"/><path transform="translate(250,90)" d="M5.71,0A5.71,5.71,0,1,1,-5.71,0A5.71,5.71,0,1,1,5.71,0" fill="rgb(47, 109, 142)" stroke-width="2"/><path transform="translate(410,110)" d="M1.964,0A1.964,1.964,0,1,1,-1.964,0A1.964,1.964,0,1,1,1.964,0" fill="rgb(71, 13, 96)" stroke-width="2"/><path transform="translate(290,30)" d="M6.527,0A6.527,6.527,0,1,1,-6.527,0A6.527,6.527,0,1,1,6.527,0" fill="rgb(35, 136, 142)" stroke-width="2"/><path transform="translate(170,10)" d="M4.128,0A4.128,4.128,0,1,1,-4.128,0A4.128,4.128,0,1,1,4.128,0" fill="rgb(67, 61, 132)" stroke-width="2"/><path transform="translate(170,50)" d="M4.389,0A4.389,4.389,0,1,1,-4.389,0A4.389,4.389,0,1,1,4.389,0" fill="rgb(65, 69, 135)" stroke-width="2"/><path transform="translate(270,90)" d="M5.154,0A5.154,5.154,0,1,1,-5.154,0A5.154,5.154,0,1,1,5.154,0" fill="rgb(55, 92, 141)" stroke-width="2"/><path transform="translate(390,30)" d="M4.031,0A4.031,4.031,0,1,1,-4.031,0A4.031,4.031,0,1,1,4.031,0" fill="rgb(68, 59, 131)" stroke-width="2"/><path transform="translate(150,10)" d="M2.401,0A2.401,2.401,0,1,1,-2.401,0A2.401,2.401,0,1,1,2.401,0" fill="rgb(72, 21, 103)" stroke-width="2"/><path transform="translate(150,70)" d="M2.682,0A2.682,2.682,0,1,1,-2.682,0A2.682,2.682,0,1,1,2.682,0" fill="rgb(72, 26, 108)" stroke-width="2"/><path transform="translate(270,70)" d="M4.703,0A4.703,4.703,0,1,1,-4.703,0A4.703,4.703,0,1,1,4.703,0" fill="rgb(61, 78, 138)" stroke-width="2"/><path transform="translate(250,30)" d="M5.468,0A5.468,5.468,0,1,1,-5.468,0A5.468,5.468,0,1,1,5.468,0" fill="rgb(50, 101, 142)" stroke-width="2"/><path transform="translate(150,50)" d="M2.498,0A2.498,2.498,0,1,1,-2.498,0A2.498,2.498,0,1,1,2.498,0" fill="rgb(72, 23, 105)" stroke-width="2"/><path transform="translate(290,50)" d="M6.648,0A6.648,6.648,0,1,1,-6.648,0A6.648,6.648,0,1,1,6.648,0" fill="rgb(34, 140, 142)" stroke-width="2"/><path transform="translate(430,70)" d="M2.434,0A2.434,2.434,0,1,1,-2.434,0A2.434,2.434,0,1,1,2.434,0" fill="rgb(72, 21, 104)" stroke-width="2"/><path transform="translate(450,70)" d="M2.004,0A2.004,2.004,0,1,1,-2.004,0A2.004,2.004,0,1,1,2.004,0" fill="rgb(71, 14, 97)" stroke-width="2"/><path transform="translate(150,130)" d="M1.609,0A1.609,1.609,0,1,1,-1.609,0A1.609,1.609,0,1,1,1.609,0" fill="rgb(69, 7, 90)" stroke-width="2"/><path transform="translate(190,130)" d="M2.712,0A2.712,2.712,0,1,1,-2.712,0A2.712,2.712,0,1,1,2.712,0" fill="rgb(72, 27, 109)" stroke-width="2"/><path transform="translate(210,130)" d="M3.094,0A3.094,3.094,0,1,1,-3.094,0A3.094,3.094,0,1,1,3.094,0" fill="rgb(72, 35, 116)" stroke-width="2"/><path transform="translate(230,130)" d="M2.401,0A2.401,2.401,0,1,1,-2.401,0A2.401,2.401,0,1,1,2.401,0" fill="rgb(72, 21, 103)" stroke-width="2"/><path transform="translate(270,130)" d="M2.193,0A2.193,2.193,0,1,1,-2.193,0A2.193,2.193,0,1,1,2.193,0" fill="rgb(71, 17, 100)" stroke-width="2"/><path transform="translate(150,30)" d="M2.229,0A2.229,2.229,0,1,1,-2.229,0A2.229,2.229,0,1,1,2.229,0" fill="rgb(71, 17, 100)" stroke-width="2"/><path transform="translate(430,30)" d="M2.082,0A2.082,2.082,0,1,1,-2.082,0A2.082,2.082,0,1,1,2.082,0" fill="rgb(71, 15, 98)" stroke-width="2"/><path transform="translate(390,70)" d="M3.89,0A3.89,3.89,0,1,1,-3.89,0A3.89,3.89,0,1,1,3.89,0" fill="rgb(69, 55, 129)" stroke-width="2"/><path transform="translate(390,90)" d="M3.526,0A3.526,3.526,0,1,1,-3.526,0A3.526,3.526,0,1,1,3.526,0" fill="rgb(71, 45, 123)" stroke-width="2"/><path transform="translate(290,110)" d="M2.826,0A2.826,2.826,0,1,1,-2.826,0A2.826,2.826,0,1,1,2.826,0" fill="rgb(72, 29, 111)" stroke-width="2"/><path transform="translate(370,110)" d="M2.466,0A2.466,2.466,0,1,1,-2.466,0A2.466,2.466,0,1,1,2.466,0" fill="rgb(72, 22, 104)" stroke-width="2"/><path transform="translate(330,130)" d="M2.434,0A2.434,2.434,0,1,1,-2.434,0A2.434,2.434,0,1,1,2.434,0" fill="rgb(72, 21, 104)" stroke-width="2"/><path transform="translate(250,110)" d="M3.388,0A3.388,3.388,0,1,1,-3.388,0A3.388,3.388,0,1,1,3.388,0" fill="rgb(72, 42, 121)" stroke-width="2"/><path transform="translate(310,110)" d="M3.145,0A3.145,3.145,0,1,1,-3.145,0A3.145,3.145,0,1,1,3.145,0" fill="rgb(72, 36, 116)" stroke-width="2"/><path transform="translate(330,110)" d="M2.798,0A2.798,2.798,0,1,1,-2.798,0A2.798,2.798,0,1,1,2.798,0" fill="rgb(72, 29, 110)" stroke-width="2"/><path transform="translate(450,50)" d="M1.657,0A1.657,1.657,0,1,1,-1.657,0A1.657,1.657,0,1,1,1.657,0" fill="rgb(70, 8, 91)" stroke-width="2"/><path transform="translate(150,90)" d="M2.622,0A2.622,2.622,0,1,1,-2.622,0A2.622,2.622,0,1,1,2.622,0" fill="rgb(72, 25, 107)" stroke-width="2"/><path transform="translate(170,90)" d="M4.703,0A4.703,4.703,0,1,1,-4.703,0A4.703,4.703,0,1,1,4.703,0" fill="rgb(61, 78, 138)" stroke-width="2"/><path transform="translate(170,110)" d="M2.769,0A2.769,2.769,0,1,1,-2.769,0A2.769,2.769,0,1,1,2.769,0" fill="rgb(72, 28, 110)" stroke-width="2"/><path transform="translate(390,110)" d="M2.12,0A2.12,2.12,0,1,1,-2.12,0A2.12,2.12,0,1,1,2.12,0" fill="rgb(71, 15, 98)" stroke-width="2"/><path transform="translate(90,130)" d="M1.215,0A1.215,1.215,0,1,1,-1.215,0A1.215,1.215,0,1,1,1.215,0" fill="rgb(68, 2, 85)" stroke-width="2"/><path transform="translate(430,90)" d="M2.229,0A2.229,2.229,0,1,1,-2.229,0A2.229,2.229,0,1,1,2.229,0" fill="rgb(71, 17, 100)" stroke-width="2"/><path transform="translate(470,50)" d="M1.339,0A1.339,1.339,0,1,1,-1.339,0A1.339,1.339,0,1,1,1.339,0" fill="rgb(69, 4, 87)" stroke-width="2"/><path transform="translate(10,70)" d="M1.279,0A1.279,1.279,0,1,1,-1.279,0A1.279,1.279,0,1,1,1.279,0" fill="rgb(68, 3, 86)" stroke-width="2"/><path transform="translate(10,90)" d="M1.339,0A1.339,1.339,0,1,1,-1.339,0A1.339,1.339,0,1,1,1.339,0" fill="rgb(69, 4, 87)" stroke-width="2"/><path transform="translate(170,130)" d="M2.157,0A2.157,2.157,0,1,1,-2.157,0A2.157,2.157,0,1,1,2.157,0" fill="rgb(71, 16, 99)" stroke-width="2"/><path transform="translate(30,30)" d="M1.215,0A1.215,1.215,0,1,1,-1.215,0A1.215,1.215,0,1,1,1.215,0" fill="rgb(68, 2, 85)" stroke-width="2"/><path transform="translate(410,70)" d="M2.682,0A2.682,2.682,0,1,1,-2.682,0A2.682,2.682,0,1,1,2.682,0" fill="rgb(72, 26, 108)" stroke-width="2"/><path transform="translate(410,30)" d="M2.826,0A2.826,2.826,0,1,1,-2.826,0A2.826,2.826,0,1,1,2.826,0" fill="rgb(72, 29, 111)" stroke-width="2"/><path transform="translate(170,70)" d="M4.669,0A4.669,4.669,0,1,1,-4.669,0A4.669,4.669,0,1,1,4.669,0" fill="rgb(61, 78, 138)" stroke-width="2"/><path transform="translate(410,90)" d="M3.069,0A3.069,3.069,0,1,1,-3.069,0A3.069,3.069,0,1,1,3.069,0" fill="rgb(72, 35, 115)" stroke-width="2"/><path transform="translate(410,10)" d="M2.53,0A2.53,2.53,0,1,1,-2.53,0A2.53,2.53,0,1,1,2.53,0" fill="rgb(72, 23, 105)" stroke-width="2"/><path transform="translate(450,10)" d="M1.609,0A1.609,1.609,0,1,1,-1.609,0A1.609,1.609,0,1,1,1.609,0" fill="rgb(69, 7, 90)" stroke-width="2"/><path transform="translate(470,10)" d="M1.453,0A1.453,1.453,0,1,1,-1.453,0A1.453,1.453,0,1,1,1.453,0" fill="rgb(69, 5, 88)" stroke-width="2"/><path transform="translate(250,130)" d="M2.622,0A2.622,2.622,0,1,1,-2.622,0A2.622,2.622,0,1,1,2.622,0" fill="rgb(72, 25, 107)" stroke-width="2"/><path transform="translate(450,110)" d="M1.507,0A1.507,1.507,0,1,1,-1.507,0A1.507,1.507,0,1,1,1.507,0" fill="rgb(69, 6, 89)" stroke-width="2"/><path transform="translate(10,130)" d="M1.279,0A1.279,1.279,0,1,1,-1.279,0A1.279,1.279,0,1,1,1.279,0" fill="rgb(68, 3, 86)" stroke-width="2"/><path transform="translate(50,130)" d="M1.279,0A1.279,1.279,0,1,1,-1.279,0A1.279,1.279,0,1,1,1.279,0" fill="rgb(68, 3, 86)" stroke-width="2"/><path transform="translate(130,90)" d="M1.397,0A1.397,1.397,0,1,1,-1.397,0A1.397,1.397,0,1,1,1.397,0" fill="rgb(69, 4, 87)" stroke-width="2"/><path transform="translate(450,30)" d="M1.559,0A1.559,1.559,0,1,1,-1.559,0A1.559,1.559,0,1,1,1.559,0" fill="rgb(69, 7, 90)" stroke-width="2"/><path transform="translate(470,70)" d="M1.507,0A1.507,1.507,0,1,1,-1.507,0A1.507,1.507,0,1,1,1.507,0" fill="rgb(69, 6, 89)" stroke-width="2"/><path transform="translate(470,30)" d="M1.609,0A1.609,1.609,0,1,1,-1.609,0A1.609,1.609,0,1,1,1.609,0" fill="rgb(69, 7, 90)" stroke-width="2"/><path transform="translate(470,90)" d="M1.705,0A1.705,1.705,0,1,1,-1.705,0A1.705,1.705,0,1,1,1.705,0" fill="rgb(70, 9, 92)" stroke-width="2"/><path transform="translate(70,70)" d="M1.215,0A1.215,1.215,0,1,1,-1.215,0A1.215,1.215,0,1,1,1.215,0" fill="rgb(68, 2, 85)" stroke-width="2"/><path transform="translate(130,70)" d="M1.397,0A1.397,1.397,0,1,1,-1.397,0A1.397,1.397,0,1,1,1.397,0" fill="rgb(69, 4, 87)" stroke-width="2"/><path transform="translate(50,70)" d="M1.453,0A1.453,1.453,0,1,1,-1.453,0A1.453,1.453,0,1,1,1.453,0" fill="rgb(69, 5, 88)" stroke-width="2"/><path transform="translate(30,50)" d="M1.148,0A1.148,1.148,0,1,1,-1.148,0A1.148,1.148,0,1,1,1.148,0" fill="rgb(68, 2, 85)" stroke-width="2"/><path transform="translate(50,50)" d="M1.339,0A1.339,1.339,0,1,1,-1.339,0A1.339,1.339,0,1,1,1.339,0" fill="rgb(69, 4, 87)" stroke-width="2"/><path transform="translate(430,110)" d="M1.751,0A1.751,1.751,0,1,1,-1.751,0A1.751,1.751,0,1,1,1.751,0" fill="rgb(70, 9, 92)" stroke-width="2"/><path transform="translate(450,90)" d="M1.657,0A1.657,1.657,0,1,1,-1.657,0A1.657,1.657,0,1,1,1.657,0" fill="rgb(70, 8, 91)" stroke-width="2"/><path transform="translate(130,130)" d="M1.279,0A1.279,1.279,0,1,1,-1.279,0A1.279,1.279,0,1,1,1.279,0" fill="rgb(68, 3, 86)" stroke-width="2"/><path transform="translate(90,90)" d="M1.076,0A1.076,1.076,0,1,1,-1.076,0A1.076,1.076,0,1,1,1.076,0" fill="rgb(68, 1, 84)" stroke-width="2"/><path transform="translate(110,90)" d="M1.279,0A1.279,1.279,0,1,1,-1.279,0A1.279,1.279,0,1,1,1.279,0" fill="rgb(68, 3, 86)" stroke-width="2"/><path transform="translate(10,30)" d="M1.339,0A1.339,1.339,0,1,1,-1.339,0A1.339,1.339,0,1,1,1.339,0" fill="rgb(69, 4, 87)" stroke-width="2"/><path transform="translate(70,30)" d="M1.339,0A1.339,1.339,0,1,1,-1.339,0A1.339,1.339,0,1,1,1.339,0" fill="rgb(69, 4, 87)" stroke-width="2"/><path transform="translate(30,10)" d="M1.148,0A1.148,1.148,0,1,1,-1.148,0A1.148,1.148,0,1,1,1.148,0" fill="rgb(68, 2, 85)" stroke-width="2"/><path transform="translate(50,10)" d="M1.076,0A1.076,1.076,0,1,1,-1.076,0A1.076,1.076,0,1,1,1.076,0" fill="rgb(68, 1, 84)" stroke-width="2"/><path transform="translate(130,110)" d="M1.148,0A1.148,1.148,0,1,1,-1.148,0A1.148,1.148,0,1,1,1.148,0" fill="rgb(68, 2, 85)" stroke-width="2"/><path transform="translate(470,110)" d="M1.453,0A1.453,1.453,0,1,1,-1.453,0A1.453,1.453,0,1,1,1.453,0" fill="rgb(69, 5, 88)" stroke-width="2"/><path transform="translate(10,10)" d="M1.076,0A1.076,1.076,0,1,1,-1.076,0A1.076,1.076,0,1,1,1.076,0" fill="rgb(68, 1, 84)" stroke-width="2"/><path transform="translate(10,50)" d="M1.397,0A1.397,1.397,0,1,1,-1.397,0A1.397,1.397,0,1,1,1.397,0" fill="rgb(69, 4, 87)" stroke-width="2"/><path transform="translate(30,110)" d="M1.279,0A1.279,1.279,0,1,1,-1.279,0A1.279,1.279,0,1,1,1.279,0" fill="rgb(68, 3, 86)" stroke-width="2"/><path transform="translate(130,50)" d="M1.215,0A1.215,1.215,0,1,1,-1.215,0A1.215,1.215,0,1,1,1.215,0" fill="rgb(68, 2, 85)" stroke-width="2"/><path transform="translate(130,10)" d="M1.215,0A1.215,1.215,0,1,1,-1.215,0A1.215,1.215,0,1,1,1.215,0" fill="rgb(68, 2, 85)" stroke-width="2"/><path transform="translate(130,30)" d="M1.148,0A1.148,1.148,0,1,1,-1.148,0A1.148,1.148,0,1,1,1.148,0" fill="rgb(68, 2, 85)" stroke-width="2"/><path transform="translate(10,110)" d="M1.339,0A1.339,1.339,0,1,1,-1.339,0A1.339,1.339,0,1,1,1.339,0" fill="rgb(69, 4, 87)" stroke-width="2"/><path transform="translate(30,130)" d="M1.148,0A1.148,1.148,0,1,1,-1.148,0A1.148,1.148,0,1,1,1.148,0" fill="rgb(68, 2, 85)" stroke-width="2"/><path transform="translate(110,110)" d="M1.076,0A1.076,1.076,0,1,1,-1.076,0A1.076,1.076,0,1,1,1.076,0" fill="rgb(68, 1, 84)" stroke-width="2"/><path transform="translate(50,110)" d="M1.076,0A1.076,1.076,0,1,1,-1.076,0A1.076,1.076,0,1,1,1.076,0" fill="rgb(68, 1, 84)" stroke-width="2"/><path transform="translate(30,70)" d="M1.148,0A1.148,1.148,0,1,1,-1.148,0A1.148,1.148,0,1,1,1.148,0" fill="rgb(68, 2, 85)" stroke-width="2"/><path transform="translate(110,50)" d="M1.148,0A1.148,1.148,0,1,1,-1.148,0A1.148,1.148,0,1,1,1.148,0" fill="rgb(68, 2, 85)" stroke-width="2"/><path transform="translate(50,30)" d="M1.148,0A1.148,1.148,0,1,1,-1.148,0A1.148,1.148,0,1,1,1.148,0" fill="rgb(68, 2, 85)" stroke-width="2"/><path transform="translate(70,10)" d="M1.076,0A1.076,1.076,0,1,1,-1.076,0A1.076,1.076,0,1,1,1.076,0" fill="rgb(68, 1, 84)" stroke-width="2"/><path transform="translate(70,50)" d="M1.076,0A1.076,1.076,0,1,1,-1.076,0A1.076,1.076,0,1,1,1.076,0" fill="rgb(68, 1, 84)" stroke-width="2"/><path transform="translate(110,130)" d="M1.076,0A1.076,1.076,0,1,1,-1.076,0A1.076,1.076,0,1,1,1.076,0" fill="rgb(68, 1, 84)" stroke-width="2"/><path transform="translate(90,70)" d="M1.076,0A1.076,1.076,0,1,1,-1.076,0A1.076,1.076,0,1,1,1.076,0" fill="rgb(68, 1, 84)" stroke-width="2"/><path transform="translate(70,90)" d="M1.076,0A1.076,1.076,0,1,1,-1.076,0A1.076,1.076,0,1,1,1.076,0" fill="rgb(68, 1, 84)" stroke-width="2"/><path transform="translate(50,90)" d="M1.076,0A1.076,1.076,0,1,1,-1.076,0A1.076,1.076,0,1,1,1.076,0" fill="rgb(68, 1, 84)" stroke-width="2"/><path transform="translate(90,30)" d="M1.076,0A1.076,1.076,0,1,1,-1.076,0A1.076,1.076,0,1,1,1.076,0" fill="rgb(68, 1, 84)" stroke-width="2"/><path transform="translate(110,10)" d="M1.076,0A1.076,1.076,0,1,1,-1.076,0A1.076,1.076,0,1,1,1.076,0" fill="rgb(68, 1, 84)" stroke-width="2"/></g><g class="mark-group role-legend" role="graphics-symbol" aria-roledescription="legend" aria-label="Symbol legend titled 'Count of Records' for size and fill color with values from 0 to 562"><g transform="translate(498,0)"><path class="background" aria-hidden="true" d="M0,0h93v123h-93Z" pointer-events="none"/><g><g class="mark-group role-legend-entry"><g transform="translate(0,16)"><path class="background" aria-hidden="true" d="M0,0h0v0h0Z" pointer-events="none"/><g><g class="mark-group role-scope" role="graphics-object" aria-roledescription="group mark container"><g transform="translate(0,0)"><path class="background" aria-hidden="true" d="M0,0h40.6845703125v10h-40.6845703125Z" pointer-events="none" opacity="1"/><g><g class="mark-symbol role-legend-symbol" pointer-events="none"><path transform="translate(10,5)" d="M1,0A1,1,0,1,1,-1,0A1,1,0,1,1,1,0" fill="rgb(68, 0, 83)" fill-opacity="1" stroke-width="1.5" opacity="1"/></g><g class="mark-text role-legend-label" pointer-events="none"><text text-anchor="start" transform="translate(24,8)" font-family="sans-serif" font-size="10px" fill="#000" opacity="1">0</text></g></g><path class="foreground" aria-hidden="true" d="" pointer-events="none" display="none"/></g><g transform="translate(0,13)"><path class="background" aria-hidden="true" d="M0,0h40.6845703125v10.60862299537807h-40.6845703125Z" pointer-events="none" opacity="1"/><g><g class="mark-symbol role-legend-symbol" pointer-events="none"><path transform="translate(10,5)" d="M4.109,0A4.109,4.109,0,1,1,-4.109,0A4.109,4.109,0,1,1,4.109,0" fill="rgb(67, 61, 132)" fill-opacity="1" stroke-width="1.5" opacity="1"/></g><g class="mark-text role-legend-label" pointer-events="none"><text text-anchor="start" transform="translate(24,8)" font-family="sans-serif" font-size="10px" fill="#000" opacity="1">100</text></g></g><path class="foreground" aria-hidden="true" d="" pointer-events="none" display="none"/></g><g transform="translate(0,27)"><path class="background" aria-hidden="true" d="M0,0h40.6845703125v13.723771993737955h-40.6845703125Z" pointer-events="none" opacity="1"/><g><g class="mark-symbol role-legend-symbol" pointer-events="none"><path transform="translate(10,6.5)" d="M5.724,0A5.724,5.724,0,1,1,-5.724,0A5.724,5.724,0,1,1,5.724,0" fill="rgb(46, 109, 142)" fill-opacity="1" stroke-width="1.5" opacity="1"/></g><g class="mark-text role-legend-label" pointer-events="none"><text text-anchor="start" transform="translate(24,9.5)" font-family="sans-serif" font-size="10px" fill="#000" opacity="1">200</text></g></g><path class="foreground" aria-hidden="true" d="" pointer-events="none" display="none"/></g><g transform="translate(0,44)"><path class="background" aria-hidden="true" d="M0,0h40.6845703125v16.474406695515285h-40.6845703125Z" pointer-events="none" opacity="1"/><g><g class="mark-symbol role-legend-symbol" pointer-events="none"><path transform="translate(10,8)" d="M6.974,0A6.974,6.974,0,1,1,-6.974,0A6.974,6.974,0,1,1,6.974,0" fill="rgb(31, 152, 139)" fill-opacity="1" stroke-width="1.5" opacity="1"/></g><g class="mark-text role-legend-label" pointer-events="none"><text text-anchor="start" transform="translate(24,11)" font-family="sans-serif" font-size="10px" fill="#000" opacity="1">300</text></g></g><path class="foreground" aria-hidden="true" d="" pointer-events="none" display="none"/></g><g transform="translate(0,64)"><path class="background" aria-hidden="true" d="M0,0h40.6845703125v18.532629188042847h-40.6845703125Z" pointer-events="none" opacity="1"/><g><g class="mark-symbol role-legend-symbol" pointer-events="none"><path transform="translate(10,9)" d="M8.033,0A8.033,8.033,0,1,1,-8.033,0A8.033,8.033,0,1,1,8.033,0" fill="rgb(73, 193, 110)" fill-opacity="1" stroke-width="1.5" opacity="1"/></g><g class="mark-text role-legend-label" pointer-events="none"><text text-anchor="start" transform="translate(24,12)" font-family="sans-serif" font-size="10px" fill="#000" opacity="1">400</text></g></g><path class="foreground" aria-hidden="true" d="" pointer-events="none" display="none"/></g><g transform="translate(0,86)"><path class="background" aria-hidden="true" d="M0,0h40.6845703125v20.466822993164712h-40.6845703125Z" pointer-events="none" opacity="1"/><g><g class="mark-symbol role-legend-symbol" pointer-events="none"><path transform="translate(10,10)" d="M8.967,0A8.967,8.967,0,1,1,-8.967,0A8.967,8.967,0,1,1,8.967,0" fill="rgb(181, 222, 44)" fill-opacity="1" stroke-width="1.5" opacity="1"/></g><g class="mark-text role-legend-label" pointer-events="none"><text text-anchor="start" transform="translate(24,13)" font-family="sans-serif" font-size="10px" fill="#000" opacity="1">500</text></g></g><path class="foreground" aria-hidden="true" d="" pointer-events="none" display="none"/></g></g></g><path class="foreground" aria-hidden="true" d="" pointer-events="none" display="none"/></g></g><g class="mark-text role-legend-title" pointer-events="none"><text text-anchor="start" transform="translate(0,9)" font-family="sans-serif" font-size="11px" font-weight="bold" fill="#000" opacity="1">Count of Records</text></g></g><path class="foreground" aria-hidden="true" d="" pointer-events="none" display="none"/></g></g><g class="mark-group role-title"><g transform="translate(240,-22)"><path class="background" aria-hidden="true" d="M0,0h0v0h0Z" pointer-events="none"/><g><g class="mark-text role-title-text" role="graphics-symbol" aria-roledescription="title" aria-label="Title text 'Número de agendas por dia da semana e horário'" pointer-events="none"><text text-anchor="middle" transform="translate(0,14)" font-family="Arial" font-size="18px" font-weight="bold" fill="black" opacity="1">Número de agendas por dia da semana e horário</text></g></g><path class="foreground" aria-hidden="true" d="" pointer-events="none" display="none"/></g></g></g><path class="foreground" aria-hidden="true" d="" display="none"/></g></g></g></svg>