<svg xmlns="http://www.w3.org/2000/svg" xmlns:xlink="http://www.w3.org/1999/xlink" version="1.1" class="marks" width="783" height="384" viewBox="0 0 783 384"><rect width="783" height="384" fill="white"/><g fill="none" stroke-miterlimit="10" transform="translate(39,32)"><g class="mark-group role-frame root" role="graphics-object" aria-roledescription="group mark container"><g transform="translate(0,0)"><path class="background" aria-hidden="true" d="M0,0h0v0h0Z"/><g><g class="mark-group role-column-title column-title" role="graphics-object" aria-roledescription="group mark container"><g transform="translate(300,326)"><path class="background" aria-hidden="true" d="M0,0h0v0h0Z"/><g><g class="mark-group role-title"><g transform="translate(0,10)"><path class="background" aria-hidden="true" d="M0,0h0v0h0Z" pointer-events="none"/><g><g class="mark-text role-title-text" role="graphics-symbol" aria-roledescription="title" aria-label="Title text 'president'" pointer-events="none"><text text-anchor="middle" transform="translate(0,9)" font-family="sans-serif" font-size="11px" font-weight="bold" fill="#000" opacity="1">president</text></g></g><path class="foreground" aria-hidden="true" d="" pointer-events="none" display="none"/></g></g></g><path class="foreground" aria-hidden="true" d="" display="none"/></g></g><g class="mark-group role-row-header row_header" role="graphics-object" aria-roledescription="group mark container"><g transform="translate(0,0)"><path class="background" aria-hidden="true" d="M0,0h0v300h0Z"/><g><g class="mark-group role-axis" role="graphics-symbol" aria-roledescription="axis" aria-label="Y-axis titled 'Month' for a linear scale with values from 1 to 12"><g transform="translate(0.5,0.5)"><path class="background" aria-hidden="true" d="M0,0h0v0h0Z" pointer-events="none"/><g><g class="mark-rule role-axis-tick" pointer-events="none"><line transform="translate(0,0)" x2="-5" y2="0" stroke="#888" stroke-width="1" opacity="1"/><line transform="translate(0,27)" x2="-5" y2="0" stroke="#888" stroke-width="1" opacity="1"/><line transform="translate(0,55)" x2="-5" y2="0" stroke="#888" stroke-width="1" opacity="1"/><line transform="translate(0,82)" x2="-5" y2="0" stroke="#888" stroke-width="1" opacity="1"/><line transform="translate(0,109)" x2="-5" y2="0" stroke="#888" stroke-width="1" opacity="1"/><line transform="translate(0,136)" x2="-5" y2="0" stroke="#888" stroke-width="1" opacity="1"/><line transform="translate(0,164)" x2="-5" y2="0" stroke="#888" stroke-width="1" opacity="1"/><line transform="translate(0,191)" x2="-5" y2="0" stroke="#888" stroke-width="1" opacity="1"/><line transform="translate(0,218)" x2="-5" y2="0" stroke="#888" stroke-width="1" opacity="1"/><line transform="translate(0,245)" x2="-5" y2="0" stroke="#888" stroke-width="1" opacity="1"/><line transform="translate(0,273)" x2="-5" y2="0" stroke="#888" stroke-width="1" opacity="1"/><line transform="translate(0,300)" x2="-5" y2="0" stroke="#888" stroke-width="1" opacity="1"/></g><g class="mark-text role-axis-label" pointer-events="none"><text text-anchor="end" transform="translate(-7,3)" font-family="sans-serif" font-size="10px" fill="#000" opacity="1">1</text><text text-anchor="end" transform="translate(-7,30.272727272727273)" font-family="sans-serif" font-size="10px" fill="#000" opacity="1">2</text><text text-anchor="end" transform="translate(-7,57.54545454545455)" font-family="sans-serif" font-size="10px" fill="#000" opacity="1">3</text><text text-anchor="end" transform="translate(-7,84.81818181818181)" font-family="sans-serif" font-size="10px" fill="#000" opacity="1">4</text><text text-anchor="end" transform="translate(-7,112.0909090909091)" font-family="sans-serif" font-size="10px" fill="#000" opacity="1">5</text><text text-anchor="end" transform="translate(-7,139.36363636363635)" font-family="sans-serif" font-size="10px" fill="#000" opacity="1">6</text><text text-anchor="end" transform="translate(-7,166.63636363636363)" font-family="sans-serif" font-size="10px" fill="#000" opacity="1">7</text><text text-anchor="end" transform="translate(-7,193.9090909090909)" font-family="sans-serif" font-size="10px" fill="#000" opacity="1">8</text><text text-anchor="end" transform="translate(-7,221.1818181818182)" font-family="sans-serif" font-size="10px" fill="#000" opacity="1">9</text><text text-anchor="end" transform="translate(-7,248.45454545454547)" font-family="sans-serif" font-size="10px" fill="#000" opacity="1">10</text><text text-anchor="end" transform="translate(-7,275.7272727272727)" font-family="sans-serif" font-size="10px" fill="#000" opacity="1">11</text><text text-anchor="end" transform="translate(-7,303)" font-family="sans-serif" font-size="10px" fill="#000" opacity="1">12</text></g><g class="mark-rule role-axis-domain" pointer-events="none"><line transform="translate(0,0)" x2="0" y2="300" stroke="#888" stroke-width="1" opacity="1"/></g><g class="mark-text role-axis-title" pointer-events="none"><text text-anchor="middle" transform="translate(-22.123046875,150) rotate(-90) translate(0,-2)" font-family="sans-serif" font-size="11px" font-weight="bold" fill="#000" opacity="1">Month</text></g></g><path class="foreground" aria-hidden="true" d="" pointer-events="none" display="none"/></g></g></g><path class="foreground" aria-hidden="true" d="" display="none"/></g></g><g class="mark-group role-column-footer column_footer" role="graphics-object" aria-roledescription="group mark container"><g transform="translate(0,300)"><path class="background" aria-hidden="true" d="M0,0h150v0h-150Z"/><g><g class="mark-group role-axis" role="graphics-symbol" aria-roledescription="axis" aria-label="X-axis for a linear scale with values from 0.00 to 0.12"><g transform="translate(0.5,0.5)"><path class="background" aria-hidden="true" d="M0,0h0v0h0Z" pointer-events="none"/><g><g class="mark-rule role-axis-tick" pointer-events="none"><line transform="translate(0,0)" x2="0" y2="5" stroke="#888" stroke-width="1" opacity="1"/></g><g class="mark-rule role-axis-domain" pointer-events="none"><line transform="translate(0,0)" x2="150" y2="0" stroke="#888" stroke-width="1" opacity="1"/></g></g><path class="foreground" aria-hidden="true" d="" pointer-events="none" display="none"/></g></g><g class="mark-group role-title"><g transform="translate(75,6)"><path class="background" aria-hidden="true" d="M0,0h0v0h0Z" pointer-events="none"/><g><g class="mark-text role-title-text" role="graphics-symbol" aria-roledescription="title" aria-label="Title text 'Dilma'" pointer-events="none"><text text-anchor="middle" transform="translate(0,8)" font-family="sans-serif" font-size="10px" fill="#000" opacity="1">Dilma</text></g></g><path class="foreground" aria-hidden="true" d="" pointer-events="none" display="none"/></g></g></g><path class="foreground" aria-hidden="true" d="" display="none"/></g><g transform="translate(150,300)"><path class="background" aria-hidden="true" d="M0,0h150v0h-150Z"/><g><g class="mark-group role-axis" role="graphics-symbol" aria-roledescription="axis" aria-label="X-axis for a linear scale with values from 0.00 to 0.12"><g transform="translate(0.5,0.5)"><path class="background" aria-hidden="true" d="M0,0h0v0h0Z" pointer-events="none"/><g><g class="mark-rule role-axis-tick" pointer-events="none"><line transform="translate(0,0)" x2="0" y2="5" stroke="#888" stroke-width="1" opacity="1"/></g><g class="mark-rule role-axis-domain" pointer-events="none"><line transform="translate(0,0)" x2="150" y2="0" stroke="#888" stroke-width="1" opacity="1"/></g></g><path class="foreground" aria-hidden="true" d="" pointer-events="none" display="none"/></g></g><g class="mark-group role-title"><g transform="translate(75,6)"><path class="background" aria-hidden="true" d="M0,0h0v0h0Z" pointer-events="none"/><g><g class="mark-text role-title-text" role="graphics-symbol" aria-roledescription="title" aria-label="Title text 'Temer'" pointer-events="none"><text text-anchor="middle" transform="translate(0,8)" font-family="sans-serif" font-size="10px" fill="#000" opacity="1">Temer</text></g></g><path class="foreground" aria-hidden="true" d="" pointer-events="none" display="none"/></g></g></g><path class="foreground" aria-hidden="true" d="" display="none"/></g><g transform="translate(300,300)"><path class="background" aria-hidden="true" d="M0,0h150v0h-150Z"/><g><g class="mark-group role-axis" role="graphics-symbol" aria-roledescription="axis" aria-label="X-axis for a linear scale with values from 0.00 to 0.12"><g transform="translate(0.5,0.5)"><path class="background" aria-hidden="true" d="M0,0h0v0h0Z" pointer-events="none"/><g><g class="mark-rule role-axis-tick" pointer-events="none"><line transform="translate(0,0)" x2="0" y2="5" stroke="#888" stroke-width="1" opacity="1"/></g><g class="mark-rule role-axis-domain" pointer-events="none"><line transform="translate(0,0)" x2="150" y2="0" stroke="#888" stroke-width="1" opacity="1"/></g></g><path class="foreground" aria-hidden="true" d="" pointer-events="none" display="none"/></g></g><g class="mark-group role-title"><g transform="translate(75,6)"><path class="background" aria-hidden="true" d="M0,0h0v0h0Z" pointer-events="none"/><g><g class="mark-text role-title-text" role="graphics-symbol" aria-roledescription="title" aria-label="Title text 'Bolsonaro'" pointer-events="none"><text text-anchor="middle" transform="translate(0,8)" font-family="sans-serif" font-size="10px" fill="#000" opacity="1">Bolsonaro</text></g></g><path class="foreground" aria-hidden="true" d="" pointer-events="none" display="none"/></g></g></g><path class="foreground" aria-hidden="true" d="" display="none"/></g><g transform="translate(450,300)"><path class="background" aria-hidden="true" d="M0,0h150v0h-150Z"/><g><g class="mark-group role-axis" role="graphics-symbol" aria-roledescription="axis" aria-label="X-axis for a linear scale with values from 0.00 to 0.12"><g transform="translate(0.5,0.5)"><path class="background" aria-hidden="true" d="M0,0h0v0h0Z" pointer-events="none"/><g><g class="mark-rule role-axis-tick" pointer-events="none"><line transform="translate(0,0)" x2="0" y2="5" stroke="#888" stroke-width="1" opacity="1"/></g><g class="mark-rule role-axis-domain" pointer-events="none"><line transform="translate(0,0)" x2="150" y2="0" stroke="#888" stroke-width="1" opacity="1"/></g></g><path class="foreground" aria-hidden="true" d="" pointer-events="none" display="none"/></g></g><g class="mark-group role-title"><g transform="translate(75,6)"><path class="background" aria-hidden="true" d="M0,0h0v0h0Z" pointer-events="none"/><g><g class="mark-text role-title-text" role="graphics-symbol" aria-roledescription="title" aria-label="Title text 'Lula'" pointer-events="none"><text text-anchor="middle" transform="translate(0,8)" font-family="sans-serif" font-size="10px" fill="#000" opacity="1">Lula</text></g></g><path class="foreground" aria-hidden="true" d="" pointer-events="none" display="none"/></g></g></g><path class="foreground" aria-hidden="true" d="" display="none"/></g></g><g class="mark-group role-scope cell" role="graphics-object" aria-roledescription="group mark container"><g transform="translate(0,0)"><path class="background" aria-hidden="true" d="M0,0h150v300h-150Z"/><g><g class="mark-group role-axis" aria-hidden="true"><g transform="translate(0.5,0.5)"><path class="background" aria-hidden="true" d="M0,0h0v0h0Z" pointer-events="none"/><g><g class="mark-rule role-axis-grid" pointer-events="none"><line transform="translate(0,0)" x2="150" y2="0" stroke="#ddd" stroke-width="1" opacity="1"/><line transform="translate(0,27)" x2="150" y2="0" stroke="#ddd" stroke-width="1" opacity="1"/><line transform="translate(0,55)" x2="150" y2="0" stroke="#ddd" stroke-width="1" opacity="1"/><line transform="translate(0,82)" x2="150" y2="0" stroke="#ddd" stroke-width="1" opacity="1"/><line transform="translate(0,109)" x2="150" y2="0" stroke="#ddd" stroke-width="1" opacity="1"/><line transform="translate(0,136)" x2="150" y2="0" stroke="#ddd" stroke-width="1" opacity="1"/><line transform="translate(0,164)" x2="150" y2="0" stroke="#ddd" stroke-width="1" opacity="1"/><line transform="translate(0,191)" x2="150" y2="0" stroke="#ddd" stroke-width="1" opacity="1"/><line transform="translate(0,218)" x2="150" y2="0" stroke="#ddd" stroke-width="1" opacity="1"/><line transform="translate(0,245)" x2="150" y2="0" stroke="#ddd" stroke-width="1" opacity="1"/><line transform="translate(0,273)" x2="150" y2="0" stroke="#ddd" stroke-width="1" opacity="1"/><line transform="translate(0,300)" x2="150" y2="0" stroke="#ddd" stroke-width="1" opacity="1"/></g></g><path class="foreground" aria-hidden="true" d="" pointer-events="none" display="none"/></g></g><g class="mark-group role-scope child_pathgroup" role="graphics-object" aria-roledescription="group mark container"><g transform="translate(0,0)"><path class="background" aria-hidden="true" d="M0,0h150v300h-150Z"/><g><g class="mark-area role-mark child_marks" role="graphics-symbol" aria-roledescription="area mark container"><path d="M102.758,0L104.169,1.5L105.454,3L106.615,4.5L107.657,6L108.588,7.5L109.417,9L110.152,10.5L110.804,12L111.381,13.5L111.893,15L112.347,16.5L112.751,18L113.11,19.5L113.43,21L113.713,22.5L113.966,24L114.189,25.5L114.388,27L114.564,28.5L114.721,30L114.861,31.5L114.989,33L115.107,34.5L115.218,36L115.325,37.5L115.428,39L115.53,40.5L115.63,42L115.727,43.5L115.821,45L115.91,46.5L115.991,48L116.061,49.5L116.118,51L116.162,52.5L116.188,54L116.199,55.5L116.192,57L116.17,58.5L116.133,60L116.084,61.5L116.026,63L115.96,64.5L115.889,66L115.814,67.5L115.738,69L115.66,70.5L115.58,72L115.499,73.5L115.413,75L115.323,76.5L115.226,78L115.121,79.5L115.007,81L114.884,82.5L114.751,84L114.608,85.5L114.459,87L114.304,88.5L114.145,90L113.985,91.5L113.825,93L113.668,94.5L113.514,96L113.364,97.5L113.219,99L113.077,100.5L112.938,102L112.799,103.5L112.661,105L112.521,106.5L112.378,108L112.232,109.5L112.083,111L111.933,112.5L111.781,114L111.632,115.5L111.486,117L111.346,118.5L111.216,120L111.097,121.5L110.992,123L110.902,124.5L110.827,126L110.769,127.5L110.727,129L110.701,130.5L110.69,132L110.692,133.5L110.708,135L110.736,136.5L110.776,138L110.828,139.5L110.892,141L110.967,142.5L111.055,144L111.154,145.5L111.264,147L111.384,148.5L111.513,150L111.647,151.5L111.785,153L111.922,154.5L112.055,156L112.18,157.5L112.293,159L112.39,160.5L112.468,162L112.524,163.5L112.559,165L112.569,166.5L112.556,168L112.521,169.5L112.464,171L112.386,172.5L112.289,174L112.174,175.5L112.041,177L111.89,178.5L111.72,180L111.53,181.5L111.316,183L111.078,184.5L110.813,186L110.518,187.5L110.193,189L109.836,190.5L109.448,192L109.031,193.5L108.586,195L108.119,196.5L107.634,198L107.138,199.5L106.637,201L106.139,202.5L105.651,204L105.179,205.5L104.732,207L104.314,208.5L103.931,210L103.588,211.5L103.288,213L103.034,214.5L102.829,216L102.673,217.5L102.567,219L102.511,220.5L102.505,222L102.547,223.5L102.635,225L102.766,226.5L102.938,228L103.145,229.5L103.382,231L103.645,232.5L103.927,234L104.221,235.5L104.521,237L104.82,238.5L105.112,240L105.392,241.5L105.654,243L105.895,244.5L106.113,246L106.304,247.5L106.47,249L106.61,250.5L106.726,252L106.82,253.5L106.894,255L106.949,256.5L106.987,258L107.01,259.5L107.018,261L107.011,262.5L106.989,264L106.949,265.5L106.89,267L106.809,268.5L106.705,270L106.574,271.5L106.415,273L106.225,274.5L106.002,276L105.745,277.5L105.452,279L105.121,280.5L104.749,282L104.334,283.5L103.872,285L103.359,286.5L102.79,288L102.159,289.5L101.459,291L100.684,292.5L99.827,294L98.882,295.5L97.844,297L96.708,298.5L95.473,300L20.726,300L19.491,298.5L18.355,297L17.316,295.5L16.371,294L15.514,292.5L14.739,291L14.04,289.5L13.408,288L12.839,286.5L12.327,285L11.865,283.5L11.45,282L11.078,280.5L10.747,279L10.453,277.5L10.196,276L9.974,274.5L9.784,273L9.624,271.5L9.494,270L9.389,268.5L9.309,267L9.25,265.5L9.21,264L9.187,262.5L9.18,261L9.189,259.5L9.212,258L9.25,256.5L9.305,255L9.378,253.5L9.472,252L9.588,250.5L9.729,249L9.894,247.5L10.086,246L10.303,244.5L10.544,243L10.806,241.5L11.086,240L11.378,238.5L11.678,237L11.978,235.5L12.272,234L12.554,232.5L12.816,231L13.054,229.5L13.261,228L13.432,226.5L13.563,225L13.651,223.5L13.693,222L13.687,220.5L13.632,219L13.526,217.5L13.37,216L13.165,214.5L12.911,213L12.611,211.5L12.268,210L11.885,208.5L11.467,207L11.019,205.5L10.548,204L10.059,202.5L9.561,201L9.06,199.5L8.564,198L8.08,196.5L7.613,195L7.168,193.5L6.75,192L6.362,190.5L6.005,189L5.68,187.5L5.386,186L5.12,184.5L4.882,183L4.669,181.5L4.478,180L4.308,178.5L4.157,177L4.024,175.5L3.909,174L3.812,172.5L3.735,171L3.678,169.5L3.642,168L3.629,166.5L3.64,165L3.674,163.5L3.731,162L3.809,160.5L3.906,159L4.018,157.5L4.143,156L4.276,154.5L4.413,153L4.551,151.5L4.686,150L4.814,148.5L4.935,147L5.045,145.5L5.144,144L5.231,142.5L5.307,141L5.371,139.5L5.423,138L5.463,136.5L5.491,135L5.506,133.5L5.509,132L5.498,130.5L5.471,129L5.429,127.5L5.371,126L5.297,124.5L5.207,123L5.101,121.5L4.983,120L4.852,118.5L4.713,117L4.567,115.5L4.417,114L4.266,112.5L4.115,111L3.967,109.5L3.821,108L3.678,106.5L3.538,105L3.399,103.5L3.261,102L3.122,100.5L2.98,99L2.834,97.5L2.685,96L2.531,94.5L2.374,93L2.214,91.5L2.054,90L1.895,88.5L1.74,87L1.59,85.5L1.448,84L1.315,82.5L1.191,81L1.077,79.5L0.972,78L0.875,76.5L0.785,75L0.7,73.5L0.618,72L0.539,70.5L0.461,69L0.384,67.5L0.31,66L0.239,64.5L0.173,63L0.114,61.5L0.065,60L0.029,58.5L0.007,57L0,55.5L0.01,54L0.037,52.5L0.08,51L0.138,49.5L0.208,48L0.289,46.5L0.377,45L0.471,43.5L0.569,42L0.669,40.5L0.77,39L0.874,37.5L0.98,36L1.091,34.5L1.209,33L1.337,31.5L1.478,30L1.635,28.5L1.811,27L2.009,25.5L2.233,24L2.485,22.5L2.769,21L3.088,19.5L3.448,18L3.851,16.5L4.306,15L4.818,13.5L5.395,12L6.047,10.5L6.782,9L7.61,7.5L8.542,6L9.584,4.5L10.745,3L12.029,1.5L13.441,0Z" fill="#4c78a8"/></g></g><path class="foreground" aria-hidden="true" d="" display="none"/></g></g></g><path class="foreground" aria-hidden="true" d="" display="none"/></g><g transform="translate(150,0)"><path class="background" aria-hidden="true" d="M0,0h150v300h-150Z"/><g><g class="mark-group role-axis" aria-hidden="true"><g transform="translate(0.5,0.5)"><path class="background" aria-hidden="true" d="M0,0h0v0h0Z" pointer-events="none"/><g><g class="mark-rule role-axis-grid" pointer-events="none"><line transform="translate(0,0)" x2="150" y2="0" stroke="#ddd" stroke-width="1" opacity="1"/><line transform="translate(0,27)" x2="150" y2="0" stroke="#ddd" stroke-width="1" opacity="1"/><line transform="translate(0,55)" x2="150" y2="0" stroke="#ddd" stroke-width="1" opacity="1"/><line transform="translate(0,82)" x2="150" y2="0" stroke="#ddd" stroke-width="1" opacity="1"/><line transform="translate(0,109)" x2="150" y2="0" stroke="#ddd" stroke-width="1" opacity="1"/><line transform="translate(0,136)" x2="150" y2="0" stroke="#ddd" stroke-width="1" opacity="1"/><line transform="translate(0,164)" x2="150" y2="0" stroke="#ddd" stroke-width="1" opacity="1"/><line transform="translate(0,191)" x2="150" y2="0" stroke="#ddd" stroke-width="1" opacity="1"/><line transform="translate(0,218)" x2="150" y2="0" stroke="#ddd" stroke-width="1" opacity="1"/><line transform="translate(0,245)" x2="150" y2="0" stroke="#ddd" stroke-width="1" opacity="1"/><line transform="translate(0,273)" x2="150" y2="0" stroke="#ddd" stroke-width="1" opacity="1"/><line transform="translate(0,300)" x2="150" y2="0" stroke="#ddd" stroke-width="1" opacity="1"/></g></g><path class="foreground" aria-hidden="true" d="" pointer-events="none" display="none"/></g></g><g class="mark-group role-scope child_pathgroup" role="graphics-object" aria-roledescription="group mark container"><g transform="translate(0,0)"><path class="background" aria-hidden="true" d="M0,0h150v300h-150Z"/><g><g class="mark-area role-mark child_marks" role="graphics-symbol" aria-roledescription="area mark container"><path d="M92.51,0L93.138,1.5L93.722,3L94.264,4.5L94.768,6L95.237,7.5L95.676,9L96.091,10.5L96.489,12L96.876,13.5L97.259,15L97.644,16.5L98.039,18L98.448,19.5L98.879,21L99.337,22.5L99.824,24L100.345,25.5L100.901,27L101.494,28.5L102.125,30L102.791,31.5L103.491,33L104.222,34.5L104.979,36L105.758,37.5L106.552,39L107.357,40.5L108.164,42L108.967,43.5L109.76,45L110.534,46.5L111.285,48L112.005,49.5L112.691,51L113.336,52.5L113.938,54L114.493,55.5L115.001,57L115.458,58.5L115.867,60L116.227,61.5L116.539,63L116.805,64.5L117.028,66L117.21,67.5L117.354,69L117.463,70.5L117.54,72L117.588,73.5L117.611,75L117.61,76.5L117.59,78L117.553,79.5L117.501,81L117.439,82.5L117.367,84L117.289,85.5L117.209,87L117.127,88.5L117.049,90L116.975,91.5L116.908,93L116.852,94.5L116.808,96L116.778,97.5L116.766,99L116.773,100.5L116.8,102L116.85,103.5L116.924,105L117.023,106.5L117.15,108L117.304,109.5L117.487,111L117.701,112.5L117.945,114L118.221,115.5L118.528,117L118.869,118.5L119.242,120L119.648,121.5L120.087,123L120.559,124.5L121.063,126L121.599,127.5L122.167,129L122.764,130.5L123.391,132L124.045,133.5L124.726,135L125.432,136.5L126.161,138L126.91,139.5L127.678,141L128.461,142.5L129.256,144L130.06,145.5L130.869,147L131.68,148.5L132.487,150L133.286,151.5L134.073,153L134.844,154.5L135.593,156L136.317,157.5L137.012,159L137.674,160.5L138.299,162L138.886,163.5L139.432,165L139.936,166.5L140.396,168L140.812,169.5L141.184,171L141.511,172.5L141.794,174L142.033,175.5L142.229,177L142.382,178.5L142.493,180L142.562,181.5L142.59,183L142.578,184.5L142.527,186L142.438,187.5L142.312,189L142.151,190.5L141.957,192L141.733,193.5L141.482,195L141.206,196.5L140.911,198L140.598,199.5L140.274,201L139.942,202.5L139.607,204L139.273,205.5L138.943,207L138.622,208.5L138.314,210L138.021,211.5L137.746,213L137.492,214.5L137.26,216L137.052,217.5L136.868,219L136.709,220.5L136.574,222L136.464,223.5L136.377,225L136.311,226.5L136.265,228L136.236,229.5L136.222,231L136.22,232.5L136.226,234L136.238,235.5L136.251,237L136.263,238.5L136.27,240L136.268,241.5L136.255,243L136.228,244.5L136.184,246L136.121,247.5L136.038,249L135.931,250.5L135.801,252L135.645,253.5L135.462,255L135.252,256.5L135.013,258L134.744,259.5L134.443,261L134.11,262.5L133.742,264L133.339,265.5L132.898,267L132.417,268.5L131.895,270L131.331,271.5L130.722,273L130.067,274.5L129.364,276L128.612,277.5L127.811,279L126.958,280.5L126.053,282L125.095,283.5L124.083,285L123.016,286.5L121.894,288L120.715,289.5L119.479,291L118.186,292.5L116.836,294L115.429,295.5L113.967,297L112.451,298.5L110.883,300L31.707,300L30.14,298.5L28.624,297L27.161,295.5L25.755,294L24.404,292.5L23.111,291L21.875,289.5L20.696,288L19.574,286.5L18.507,285L17.495,283.5L16.537,282L15.632,280.5L14.779,279L13.978,277.5L13.226,276L12.524,274.5L11.869,273L11.26,271.5L10.695,270L10.173,268.5L9.693,267L9.252,265.5L8.848,264L8.48,262.5L8.147,261L7.847,259.5L7.577,258L7.338,256.5L7.128,255L6.946,253.5L6.79,252L6.659,250.5L6.553,249L6.469,247.5L6.406,246L6.362,244.5L6.335,243L6.322,241.5L6.321,240L6.328,238.5L6.339,237L6.353,235.5L6.364,234L6.371,232.5L6.368,231L6.354,229.5L6.326,228L6.279,226.5L6.214,225L6.126,223.5L6.016,222L5.882,220.5L5.722,219L5.539,217.5L5.33,216L5.098,214.5L4.844,213L4.569,211.5L4.276,210L3.968,208.5L3.647,207L3.318,205.5L2.983,204L2.648,202.5L2.316,201L1.992,199.5L1.68,198L1.384,196.5L1.109,195L0.857,193.5L0.633,192L0.439,190.5L0.278,189L0.152,187.5L0.063,186L0.012,184.5L0,183L0.028,181.5L0.098,180L0.208,178.5L0.361,177L0.557,175.5L0.797,174L1.079,172.5L1.407,171L1.778,169.5L2.194,168L2.655,166.5L3.158,165L3.704,163.5L4.291,162L4.917,160.5L5.578,159L6.273,157.5L6.997,156L7.746,154.5L8.517,153L9.304,151.5L10.104,150L10.911,148.5L11.721,147L12.53,145.5L13.335,144L14.13,142.5L14.913,141L15.68,139.5L16.43,138L17.158,136.5L17.864,135L18.545,133.5L19.2,132L19.826,130.5L20.424,129L20.991,127.5L21.527,126L22.031,124.5L22.503,123L22.942,121.5L23.348,120L23.722,118.5L24.062,117L24.37,115.5L24.645,114L24.89,112.5L25.103,111L25.286,109.5L25.441,108L25.567,106.5L25.666,105L25.74,103.5L25.79,102L25.818,100.5L25.824,99L25.812,97.5L25.783,96L25.739,94.5L25.682,93L25.616,91.5L25.542,90L25.463,88.5L25.382,87L25.301,85.5L25.223,84L25.152,82.5L25.089,81L25.037,79.5L25,78L24.98,76.5L24.979,75L25.002,73.5L25.05,72L25.127,70.5L25.236,69L25.381,67.5L25.563,66L25.785,64.5L26.052,63L26.364,61.5L26.723,60L27.132,58.5L27.59,57L28.097,55.5L28.652,54L29.254,52.5L29.9,51L30.585,49.5L31.305,48L32.056,46.5L32.831,45L33.623,43.5L34.426,42L35.234,40.5L36.038,39L36.833,37.5L37.611,36L38.369,34.5L39.099,33L39.799,31.5L40.466,30L41.096,28.5L41.689,27L42.246,25.5L42.766,24L43.254,22.5L43.711,21L44.142,19.5L44.552,18L44.946,16.5L45.332,15L45.714,13.5L46.101,12L46.499,10.5L46.914,9L47.354,7.5L47.823,6L48.326,4.5L48.868,3L49.452,1.5L50.08,0Z" fill="#f58518"/></g></g><path class="foreground" aria-hidden="true" d="" display="none"/></g></g></g><path class="foreground" aria-hidden="true" d="" display="none"/></g><g transform="translate(300,0)"><path class="background" aria-hidden="true" d="M0,0h150v300h-150Z"/><g><g class="mark-group role-axis" aria-hidden="true"><g transform="translate(0.5,0.5)"><path class="background" aria-hidden="true" d="M0,0h0v0h0Z" pointer-events="none"/><g><g class="mark-rule role-axis-grid" pointer-events="none"><line transform="translate(0,0)" x2="150" y2="0" stroke="#ddd" stroke-width="1" opacity="1"/><line transform="translate(0,27)" x2="150" y2="0" stroke="#ddd" stroke-width="1" opacity="1"/><line transform="translate(0,55)" x2="150" y2="0" stroke="#ddd" stroke-width="1" opacity="1"/><line transform="translate(0,82)" x2="150" y2="0" stroke="#ddd" stroke-width="1" opacity="1"/><line transform="translate(0,109)" x2="150" y2="0" stroke="#ddd" stroke-width="1" opacity="1"/><line transform="translate(0,136)" x2="150" y2="0" stroke="#ddd" stroke-width="1" opacity="1"/><line transform="translate(0,164)" x2="150" y2="0" stroke="#ddd" stroke-width="1" opacity="1"/><line transform="translate(0,191)" x2="150" y2="0" stroke="#ddd" stroke-width="1" opacity="1"/><line transform="translate(0,218)" x2="150" y2="0" stroke="#ddd" stroke-width="1" opacity="1"/><line transform="translate(0,245)" x2="150" y2="0" stroke="#ddd" stroke-width="1" opacity="1"/><line transform="translate(0,273)" x2="150" y2="0" stroke="#ddd" stroke-width="1" opacity="1"/><line transform="translate(0,300)" x2="150" y2="0" stroke="#ddd" stroke-width="1" opacity="1"/></g></g><path class="foreground" aria-hidden="true" d="" pointer-events="none" display="none"/></g></g><g class="mark-group role-scope child_pathgroup" role="graphics-object" aria-roledescription="group mark container"><g transform="translate(0,0)"><path class="background" aria-hidden="true" d="M0,0h150v300h-150Z"/><g><g class="mark-area role-mark child_marks" role="graphics-symbol" aria-roledescription="area mark container"><path d="M101.72,0L102.838,1.5L103.812,3L104.648,4.5L105.358,6L105.954,7.5L106.453,9L106.87,10.5L107.221,12L107.522,13.5L107.786,15L108.028,16.5L108.257,18L108.482,19.5L108.712,21L108.953,22.5L109.208,24L109.483,25.5L109.78,27L110.103,28.5L110.454,30L110.835,31.5L111.248,33L111.694,34.5L112.172,36L112.681,37.5L113.218,39L113.779,40.5L114.356,42L114.942,43.5L115.53,45L116.108,46.5L116.668,48L117.201,49.5L117.698,51L118.154,52.5L118.564,54L118.927,55.5L119.242,57L119.514,58.5L119.745,60L119.943,61.5L120.114,63L120.265,64.5L120.403,66L120.535,67.5L120.663,69L120.792,70.5L120.921,72L121.052,73.5L121.182,75L121.309,76.5L121.431,78L121.546,79.5L121.652,81L121.748,82.5L121.836,84L121.916,85.5L121.993,87L122.069,88.5L122.148,90L122.235,91.5L122.331,93L122.438,94.5L122.558,96L122.688,97.5L122.826,99L122.967,100.5L123.107,102L123.24,103.5L123.36,105L123.462,106.5L123.543,108L123.6,109.5L123.633,111L123.643,112.5L123.631,114L123.604,115.5L123.563,117L123.516,118.5L123.465,120L123.415,121.5L123.366,123L123.321,124.5L123.277,126L123.232,127.5L123.182,129L123.122,130.5L123.048,132L122.954,133.5L122.837,135L122.695,136.5L122.526,138L122.334,139.5L122.12,141L121.888,142.5L121.645,144L121.397,145.5L121.149,147L120.908,148.5L120.679,150L120.464,151.5L120.267,153L120.087,154.5L119.924,156L119.775,157.5L119.638,159L119.51,160.5L119.388,162L119.27,163.5L119.154,165L119.04,166.5L118.929,168L118.82,169.5L118.714,171L118.613,172.5L118.517,174L118.424,175.5L118.333,177L118.24,178.5L118.139,180L118.024,181.5L117.886,183L117.717,184.5L117.509,186L117.254,187.5L116.945,189L116.577,190.5L116.15,192L115.662,193.5L115.119,195L114.524,196.5L113.887,198L113.217,199.5L112.526,201L111.825,202.5L111.126,204L110.442,205.5L109.781,207L109.153,208.5L108.565,210L108.023,211.5L107.531,213L107.093,214.5L106.71,216L106.383,217.5L106.112,219L105.899,220.5L105.741,222L105.64,223.5L105.594,225L105.6,226.5L105.657,228L105.762,229.5L105.91,231L106.096,232.5L106.313,234L106.555,235.5L106.815,237L107.083,238.5L107.354,240L107.619,241.5L107.873,243L108.111,244.5L108.33,246L108.528,247.5L108.706,249L108.864,250.5L109.005,252L109.13,253.5L109.242,255L109.343,256.5L109.433,258L109.511,259.5L109.576,261L109.624,262.5L109.65,264L109.648,265.5L109.613,267L109.537,268.5L109.415,270L109.241,271.5L109.013,273L108.727,274.5L108.382,276L107.981,277.5L107.524,279L107.015,280.5L106.456,282L105.85,283.5L105.2,285L104.507,286.5L103.77,288L102.987,289.5L102.154,291L101.267,292.5L100.319,294L99.305,295.5L98.217,297L97.051,298.5L95.803,300L27.84,300L26.592,298.5L25.425,297L24.338,295.5L23.323,294L22.376,292.5L21.489,291L20.656,289.5L19.873,288L19.136,286.5L18.442,285L17.792,283.5L17.187,282L16.628,280.5L16.118,279L15.662,277.5L15.26,276L14.916,274.5L14.63,273L14.401,271.5L14.228,270L14.106,268.5L14.03,267L13.994,265.5L13.993,264L14.019,262.5L14.067,261L14.131,259.5L14.21,258L14.3,256.5L14.4,255L14.512,253.5L14.638,252L14.778,250.5L14.936,249L15.114,247.5L15.313,246L15.532,244.5L15.77,243L16.024,241.5L16.289,240L16.559,238.5L16.828,237L17.087,235.5L17.329,234L17.547,232.5L17.733,231L17.881,229.5L17.985,228L18.043,226.5L18.049,225L18.002,223.5L17.901,222L17.744,220.5L17.53,219L17.26,217.5L16.933,216L16.55,214.5L16.111,213L15.62,211.5L15.078,210L14.49,208.5L13.862,207L13.201,205.5L12.516,204L11.818,202.5L11.117,201L10.426,199.5L9.756,198L9.119,196.5L8.524,195L7.98,193.5L7.493,192L7.065,190.5L6.698,189L6.389,187.5L6.134,186L5.925,184.5L5.757,183L5.619,181.5L5.503,180L5.402,178.5L5.309,177L5.218,175.5L5.126,174L5.029,172.5L4.928,171L4.823,169.5L4.714,168L4.602,166.5L4.488,165L4.373,163.5L4.255,162L4.133,160.5L4.005,159L3.868,157.5L3.719,156L3.556,154.5L3.376,153L3.178,151.5L2.964,150L2.734,148.5L2.494,147L2.246,145.5L1.998,144L1.755,142.5L1.523,141L1.309,139.5L1.116,138L0.948,136.5L0.806,135L0.689,133.5L0.595,132L0.52,130.5L0.461,129L0.41,127.5L0.365,126L0.322,124.5L0.276,123L0.228,121.5L0.178,120L0.127,118.5L0.079,117L0.039,115.5L0.011,114L0,112.5L0.01,111L0.042,109.5L0.099,108L0.18,106.5L0.283,105L0.403,103.5L0.535,102L0.675,100.5L0.817,99L0.955,97.5L1.085,96L1.204,94.5L1.312,93L1.408,91.5L1.494,90L1.574,88.5L1.65,87L1.726,85.5L1.807,84L1.894,82.5L1.991,81L2.096,79.5L2.211,78L2.333,76.5L2.461,75L2.591,73.5L2.721,72L2.851,70.5L2.98,69L3.108,67.5L3.239,66L3.378,64.5L3.529,63L3.7,61.5L3.898,60L4.129,58.5L4.4,57L4.716,55.5L5.078,54L5.489,52.5L5.945,51L6.442,49.5L6.975,48L7.535,46.5L8.113,45L8.7,43.5L9.287,42L9.864,40.5L10.424,39L10.961,37.5L11.47,36L11.949,34.5L12.394,33L12.807,31.5L13.189,30L13.539,28.5L13.862,27L14.16,25.5L14.434,24L14.69,22.5L14.93,21L15.16,19.5L15.386,18L15.615,16.5L15.856,15L16.121,13.5L16.422,12L16.773,10.5L17.189,9L17.688,7.5L18.285,6L18.995,4.5L19.831,3L20.804,1.5L21.923,0Z" fill="#e45756"/></g></g><path class="foreground" aria-hidden="true" d="" display="none"/></g></g></g><path class="foreground" aria-hidden="true" d="" display="none"/></g><g transform="translate(450,0)"><path class="background" aria-hidden="true" d="M0,0h150v300h-150Z"/><g><g class="mark-group role-axis" aria-hidden="true"><g transform="translate(0.5,0.5)"><path class="background" aria-hidden="true" d="M0,0h0v0h0Z" pointer-events="none"/><g><g class="mark-rule role-axis-grid" pointer-events="none"><line transform="translate(0,0)" x2="150" y2="0" stroke="#ddd" stroke-width="1" opacity="1"/><line transform="translate(0,27)" x2="150" y2="0" stroke="#ddd" stroke-width="1" opacity="1"/><line transform="translate(0,55)" x2="150" y2="0" stroke="#ddd" stroke-width="1" opacity="1"/><line transform="translate(0,82)" x2="150" y2="0" stroke="#ddd" stroke-width="1" opacity="1"/><line transform="translate(0,109)" x2="150" y2="0" stroke="#ddd" stroke-width="1" opacity="1"/><line transform="translate(0,136)" x2="150" y2="0" stroke="#ddd" stroke-width="1" opacity="1"/><line transform="translate(0,164)" x2="150" y2="0" stroke="#ddd" stroke-width="1" opacity="1"/><line transform="translate(0,191)" x2="150" y2="0" stroke="#ddd" stroke-width="1" opacity="1"/><line transform="translate(0,218)" x2="150" y2="0" stroke="#ddd" stroke-width="1" opacity="1"/><line transform="translate(0,245)" x2="150" y2="0" stroke="#ddd" stroke-width="1" opacity="1"/><line transform="translate(0,273)" x2="150" y2="0" stroke="#ddd" stroke-width="1" opacity="1"/><line transform="translate(0,300)" x2="150" y2="0" stroke="#ddd" stroke-width="1" opacity="1"/></g></g><path class="foreground" aria-hidden="true" d="" pointer-events="none" display="none"/></g></g><g class="mark-group role-scope child_pathgroup" role="graphics-object" aria-roledescription="group mark container"><g transform="translate(0,0)"><path class="background" aria-hidden="true" d="M0,0h150v300h-150Z"/><g><g class="mark-area role-mark child_marks" role="graphics-symbol" aria-roledescription="area mark container"><path d="M115.431,0L116.615,1.5L117.603,3L118.4,4.5L119.016,6L119.464,7.5L119.76,9L119.921,10.5L119.964,12L119.909,13.5L119.771,15L119.569,16.5L119.316,18L119.026,19.5L118.711,21L118.38,22.5L118.043,24L117.706,25.5L117.375,27L117.057,28.5L116.757,30L116.478,31.5L116.226,33L116.005,34.5L115.818,36L115.67,37.5L115.563,39L115.501,40.5L115.485,42L115.518,43.5L115.6,45L115.731,46.5L115.912,48L116.142,49.5L116.421,51L116.749,52.5L117.123,54L117.544,55.5L118.01,57L118.52,58.5L119.073,60L119.665,61.5L120.293,63L120.955,64.5L121.644,66L122.356,67.5L123.081,69L123.814,70.5L124.545,72L125.266,73.5L125.968,75L126.643,76.5L127.283,78L127.884,79.5L128.439,81L128.946,82.5L129.405,84L129.815,85.5L130.179,87L130.498,88.5L130.776,90L131.017,91.5L131.224,93L131.399,94.5L131.544,96L131.659,97.5L131.745,99L131.8,100.5L131.821,102L131.807,103.5L131.754,105L131.661,106.5L131.527,108L131.35,109.5L131.133,111L130.878,112.5L130.588,114L130.268,115.5L129.925,117L129.564,118.5L129.193,120L128.818,121.5L128.445,123L128.08,124.5L127.726,126L127.389,127.5L127.069,129L126.769,130.5L126.489,132L126.23,133.5L125.993,135L125.775,136.5L125.579,138L125.404,139.5L125.25,141L125.117,142.5L125.005,144L124.915,145.5L124.846,147L124.795,148.5L124.761,150L124.741,151.5L124.732,153L124.728,154.5L124.725,156L124.717,157.5L124.699,159L124.668,160.5L124.617,162L124.545,163.5L124.45,165L124.329,166.5L124.183,168L124.013,169.5L123.819,171L123.604,172.5L123.369,174L123.115,175.5L122.844,177L122.553,178.5L122.243,180L121.912,181.5L121.557,183L121.174,184.5L120.76,186L120.313,187.5L119.829,189L119.307,190.5L118.745,192L118.144,193.5L117.507,195L116.837,196.5L116.137,198L115.414,199.5L114.673,201L113.922,202.5L113.166,204L112.413,205.5L111.667,207L110.934,208.5L110.217,210L109.521,211.5L108.849,213L108.201,214.5L107.58,216L106.988,217.5L106.425,219L105.893,220.5L105.395,222L104.933,223.5L104.509,225L104.126,226.5L103.789,228L103.5,229.5L103.263,231L103.082,232.5L102.96,234L102.9,235.5L102.904,237L102.975,238.5L103.115,240L103.323,241.5L103.6,243L103.945,244.5L104.356,246L104.831,247.5L105.365,249L105.953,250.5L106.588,252L107.261,253.5L107.964,255L108.682,256.5L109.404,258L110.114,259.5L110.797,261L111.436,262.5L112.015,264L112.517,265.5L112.928,267L113.233,268.5L113.421,270L113.483,271.5L113.413,273L113.208,274.5L112.868,276L112.396,277.5L111.797,279L111.079,280.5L110.252,282L109.326,283.5L108.313,285L107.223,286.5L106.068,288L104.856,289.5L103.597,291L102.296,292.5L100.961,294L99.595,295.5L98.202,297L96.785,298.5L95.346,300L36.475,300L35.036,298.5L33.619,297L32.226,295.5L30.86,294L29.525,292.5L28.224,291L26.965,289.5L25.753,288L24.597,286.5L23.508,285L22.495,283.5L21.569,282L20.742,280.5L20.024,279L19.425,277.5L18.953,276L18.613,274.5L18.408,273L18.338,271.5L18.4,270L18.588,268.5L18.893,267L19.304,265.5L19.806,264L20.385,262.5L21.024,261L21.707,259.5L22.417,258L23.139,256.5L23.857,255L24.56,253.5L25.233,252L25.868,250.5L26.456,249L26.99,247.5L27.465,246L27.876,244.5L28.221,243L28.498,241.5L28.706,240L28.846,238.5L28.917,237L28.921,235.5L28.861,234L28.739,232.5L28.558,231L28.321,229.5L28.032,228L27.695,226.5L27.312,225L26.888,223.5L26.426,222L25.928,220.5L25.396,219L24.833,217.5L24.241,216L23.62,214.5L22.972,213L22.299,211.5L21.604,210L20.887,208.5L20.154,207L19.408,205.5L18.654,204L17.899,202.5L17.147,201L16.407,199.5L15.684,198L14.984,196.5L14.314,195L13.676,193.5L13.076,192L12.514,190.5L11.992,189L11.508,187.5L11.06,186L10.647,184.5L10.264,183L9.909,181.5L9.578,180L9.268,178.5L8.977,177L8.705,175.5L8.452,174L8.217,172.5L8.002,171L7.808,169.5L7.638,168L7.492,166.5L7.371,165L7.276,163.5L7.204,162L7.153,160.5L7.121,159L7.104,157.5L7.096,156L7.093,154.5L7.089,153L7.079,151.5L7.06,150L7.026,148.5L6.975,147L6.906,145.5L6.815,144L6.704,142.5L6.571,141L6.417,139.5L6.242,138L6.046,136.5L5.828,135L5.59,133.5L5.332,132L5.052,130.5L4.752,129L4.432,127.5L4.094,126L3.741,124.5L3.376,123L3.003,121.5L2.628,120L2.257,118.5L1.896,117L1.553,115.5L1.233,114L0.943,112.5L0.688,111L0.471,109.5L0.294,108L0.16,106.5L0.067,105L0.014,103.5L0,102L0.021,100.5L0.076,99L0.162,97.5L0.277,96L0.422,94.5L0.597,93L0.804,91.5L1.045,90L1.323,88.5L1.642,87L2.006,85.5L2.416,84L2.875,82.5L3.382,81L3.937,79.5L4.537,78L5.178,76.5L5.853,75L6.555,73.5L7.275,72L8.007,70.5L8.739,69L9.465,67.5L10.177,66L10.866,64.5L11.527,63L12.156,61.5L12.748,60L13.301,58.5L13.811,57L14.277,55.5L14.698,54L15.072,52.5L15.399,51L15.679,49.5L15.909,48L16.09,46.5L16.221,45L16.303,43.5L16.335,42L16.32,40.5L16.258,39L16.151,37.5L16.003,36L15.816,34.5L15.595,33L15.343,31.5L15.064,30L14.764,28.5L14.446,27L14.115,25.5L13.778,24L13.441,22.5L13.11,21L12.795,19.5L12.505,18L12.252,16.5L12.05,15L11.912,13.5L11.857,12L11.9,10.5L12.061,9L12.357,7.5L12.805,6L13.421,4.5L14.218,3L15.206,1.5L16.39,0Z" fill="#72b7b2"/></g></g><path class="foreground" aria-hidden="true" d="" display="none"/></g></g></g><path class="foreground" aria-hidden="true" d="" display="none"/></g></g><g class="mark-group role-legend" role="graphics-symbol" aria-roledescription="legend" aria-label="Symbol legend titled 'President' for fill color with 4 values: Dilma, Temer, Bolsonaro, Lula"><g transform="translate(618,0)"><path class="background" aria-hidden="true" d="M0,0h121v66h-121Z" pointer-events="none"/><g><g class="mark-group role-legend-entry"><g transform="translate(0,16)"><path class="background" aria-hidden="true" d="M0,0h0v0h0Z" pointer-events="none"/><g><g class="mark-group role-scope" role="graphics-object" aria-roledescription="group mark container"><g transform="translate(0,0)"><path class="background" aria-hidden="true" d="M0,0h120.521484375v11h-120.521484375Z" pointer-events="none" opacity="1"/><g><g class="mark-symbol role-legend-symbol" pointer-events="none"><path transform="translate(6,6)" d="M5,0A5,5,0,1,1,-5,0A5,5,0,1,1,5,0" fill="#4c78a8" stroke-width="1.5" opacity="1"/></g><g class="mark-text role-legend-label" pointer-events="none"><text text-anchor="start" transform="translate(16,9)" font-family="sans-serif" font-size="10px" fill="#000" opacity="1">Dilma
(2011–2016)</text></g></g><path class="foreground" aria-hidden="true" d="" pointer-events="none" display="none"/></g><g transform="translate(0,13)"><path class="background" aria-hidden="true" d="M0,0h120.521484375v11h-120.521484375Z" pointer-events="none" opacity="1"/><g><g class="mark-symbol role-legend-symbol" pointer-events="none"><path transform="translate(6,6)" d="M5,0A5,5,0,1,1,-5,0A5,5,0,1,1,5,0" fill="#f58518" stroke-width="1.5" opacity="1"/></g><g class="mark-text role-legend-label" pointer-events="none"><text text-anchor="start" transform="translate(16,9)" font-family="sans-serif" font-size="10px" fill="#000" opacity="1">Temer
(2016–2018)</text></g></g><path class="foreground" aria-hidden="true" d="" pointer-events="none" display="none"/></g><g transform="translate(0,26)"><path class="background" aria-hidden="true" d="M0,0h120.521484375v11h-120.521484375Z" pointer-events="none" opacity="1"/><g><g class="mark-symbol role-legend-symbol" pointer-events="none"><path transform="translate(6,6)" d="M5,0A5,5,0,1,1,-5,0A5,5,0,1,1,5,0" fill="#e45756" stroke-width="1.5" opacity="1"/></g><g class="mark-text role-legend-label" pointer-events="none"><text text-anchor="start" transform="translate(16,9)" font-family="sans-serif" font-size="10px" fill="#000" opacity="1">Bolsonaro
(2019–2022)</text></g></g><path class="foreground" aria-hidden="true" d="" pointer-events="none" display="none"/></g><g transform="translate(0,39)"><path class="background" aria-hidden="true" d="M0,0h120.521484375v11h-120.521484375Z" pointer-events="none" opacity="1"/><g><g class="mark-symbol role-legend-symbol" pointer-events="none"><path transform="translate(6,6)" d="M5,0A5,5,0,1,1,-5,0A5,5,0,1,1,5,0" fill="#72b7b2" stroke-width="1.5" opacity="1"/></g><g class="mark-text role-legend-label" pointer-events="none"><text text-anchor="start" transform="translate(16,9)" font-family="sans-serif" font-size="10px" fill="#000" opacity="1">Lula
(2023–)</text></g></g><path class="foreground" aria-hidden="true" d="" pointer-events="none" display="none"/></g></g></g><path class="foreground" aria-hidden="true" d="" pointer-events="none" display="none"/></g></g><g class="mark-text role-legend-title" pointer-events="none"><text text-anchor="start" transform="translate(0,9)" font-family="sans-serif" font-size="11px" font-weight="bold" fill="#000" opacity="1">President</text></g></g><path class="foreground" aria-hidden="true" d="" pointer-events="none" display="none"/></g></g><g class="mark-group role-title"><g transform="translate(352.9384765625,-27)"><path class="background" aria-hidden="true" d="M0,0h0v0h0Z" pointer-events="none"/><g><g class="mark-text role-title-text" role="graphics-symbol" aria-roledescription="title" aria-label="Title text 'Número de compromissos presidenciais por mês'" pointer-events="none"><text text-anchor="middle" transform="translate(0,14)" font-family="Arial" font-size="18px" font-weight="bold" fill="black" opacity="1">Número de compromissos presidenciais por mês</text></g></g><path class="foreground" aria-hidden="true" d="" pointer-events="none" display="none"/></g></g></g><path class="foreground" aria-hidden="true" d="" display="none"/></g></g></g></svg>