<svg xmlns="http://www.w3.org/2000/svg" xmlns:xlink="http://www.w3.org/1999/xlink" version="1.1" class="marks" width="1033" height="572" viewBox="0 0 1033 572"><rect width="1033" height="572" fill="white"/><g fill="none" stroke-miterlimit="10" transform="translate(45,35)"><g class="mark-group role-frame root" role="graphics-object" aria-roledescription="group mark container"><g transform="translate(0,0)"><path class="background" aria-hidden="true" d="M0,0h0v0h0Z"/><g><g class="mark-group role-row-header row_header" role="graphics-object" aria-roledescription="group mark container"><g transform="translate(0,0)"><path class="background" aria-hidden="true" d="M0,0h0v500h0Z"/><g><g class="mark-group role-axis" role="graphics-symbol" aria-roledescription="axis" aria-label="Y-axis titled 'Mês' for a linear scale with values from 1 to 12"><g transform="translate(0.5,0.5)"><path class="background" aria-hidden="true" d="M0,0h0v0h0Z" pointer-events="none"/><g><g class="mark-rule role-axis-tick" pointer-events="none"><line transform="translate(0,0)" x2="-5" y2="0" stroke="#888" stroke-width="1" opacity="1"/><line transform="translate(0,45)" x2="-5" y2="0" stroke="#888" stroke-width="1" opacity="1"/><line transform="translate(0,91)" x2="-5" y2="0" stroke="#888" stroke-width="1" opacity="1"/><line transform="translate(0,136)" x2="-5" y2="0" stroke="#888" stroke-width="1" opacity="1"/><line transform="translate(0,182)" x2="-5" y2="0" stroke="#888" stroke-width="1" opacity="1"/><line transform="translate(0,227)" x2="-5" y2="0" stroke="#888" stroke-width="1" opacity="1"/><line transform="translate(0,273)" x2="-5" y2="0" stroke="#888" stroke-width="1" opacity="1"/><line transform="translate(0,318)" x2="-5" y2="0" stroke="#888" stroke-width="1" opacity="1"/><line transform="translate(0,364)" x2="-5" y2="0" stroke="#888" stroke-width="1" opacity="1"/><line transform="translate(0,409)" x2="-5" y2="0" stroke="#888" stroke-width="1" opacity="1"/><line transform="translate(0,455)" x2="-5" y2="0" stroke="#888" stroke-width="1" opacity="1"/><line transform="translate(0,500)" x2="-5" y2="0" stroke="#888" stroke-width="1" opacity="1"/></g><g class="mark-text role-axis-label" pointer-events="none"><text text-anchor="end" transform="translate(-7,4)" font-family="sans-serif" font-size="12px" fill="#000" opacity="1">1</text><text text-anchor="end" transform="translate(-7,49.45454545454545)" font-family="sans-serif" font-size="12px" fill="#000" opacity="1">2</text><text text-anchor="end" transform="translate(-7,94.9090909090909)" font-family="sans-serif" font-size="12px" fill="#000" opacity="1">3</text><text text-anchor="end" transform="translate(-7,140.36363636363635)" font-family="sans-serif" font-size="12px" fill="#000" opacity="1">4</text><text text-anchor="end" transform="translate(-7,185.8181818181818)" font-family="sans-serif" font-size="12px" fill="#000" opacity="1">5</text><text text-anchor="end" transform="translate(-7,231.27272727272725)" font-family="sans-serif" font-size="12px" fill="#000" opacity="1">6</text><text text-anchor="end" transform="translate(-7,276.7272727272727)" font-family="sans-serif" font-size="12px" fill="#000" opacity="1">7</text><text text-anchor="end" transform="translate(-7,322.1818181818182)" font-family="sans-serif" font-size="12px" fill="#000" opacity="1">8</text><text text-anchor="end" transform="translate(-7,367.6363636363636)" font-family="sans-serif" font-size="12px" fill="#000" opacity="1">9</text><text text-anchor="end" transform="translate(-7,413.0909090909091)" font-family="sans-serif" font-size="12px" fill="#000" opacity="1">10</text><text text-anchor="end" transform="translate(-7,458.5454545454545)" font-family="sans-serif" font-size="12px" fill="#000" opacity="1">11</text><text text-anchor="end" transform="translate(-7,504)" font-family="sans-serif" font-size="12px" fill="#000" opacity="1">12</text></g><g class="mark-rule role-axis-domain" pointer-events="none"><line transform="translate(0,0)" x2="0" y2="500" stroke="#888" stroke-width="1" opacity="1"/></g><g class="mark-text role-axis-title" pointer-events="none"><text text-anchor="middle" transform="translate(-24.34765625,250) rotate(-90) translate(0,-3)" font-family="sans-serif" font-size="15px" font-weight="bold" fill="#000" opacity="1">Mês</text></g></g><path class="foreground" aria-hidden="true" d="" pointer-events="none" display="none"/></g></g></g><path class="foreground" aria-hidden="true" d="" display="none"/></g></g><g class="mark-group role-column-footer column_footer" role="graphics-object" aria-roledescription="group mark container"><g transform="translate(0,500)"><path class="background" aria-hidden="true" d="M0,0h200v0h-200Z"/><g><g class="mark-group role-axis" role="graphics-symbol" aria-roledescription="axis" aria-label="X-axis for a linear scale with values from 0.00 to 0.12"><g transform="translate(0.5,0.5)"><path class="background" aria-hidden="true" d="M0,0h0v0h0Z" pointer-events="none"/><g><g class="mark-rule role-axis-tick" pointer-events="none"><line transform="translate(0,0)" x2="0" y2="5" stroke="#888" stroke-width="1" opacity="1"/></g><g class="mark-rule role-axis-domain" pointer-events="none"><line transform="translate(0,0)" x2="200" y2="0" stroke="#888" stroke-width="1" opacity="1"/></g></g><path class="foreground" aria-hidden="true" d="" pointer-events="none" display="none"/></g></g><g class="mark-group role-title"><g transform="translate(100,16)"><path class="background" aria-hidden="true" d="M0,0h0v0h0Z" pointer-events="none"/><g><g class="mark-text role-title-text" role="graphics-symbol" aria-roledescription="title" aria-label="Title text 'Dilma'" pointer-events="none"><text text-anchor="middle" transform="translate(0,13)" font-family="sans-serif" font-size="16px" fill="#000" opacity="1">Dilma</text></g></g><path class="foreground" aria-hidden="true" d="" pointer-events="none" display="none"/></g></g></g><path class="foreground" aria-hidden="true" d="" display="none"/></g><g transform="translate(200,500)"><path class="background" aria-hidden="true" d="M0,0h200v0h-200Z"/><g><g class="mark-group role-axis" role="graphics-symbol" aria-roledescription="axis" aria-label="X-axis for a linear scale with values from 0.00 to 0.12"><g transform="translate(0.5,0.5)"><path class="background" aria-hidden="true" d="M0,0h0v0h0Z" pointer-events="none"/><g><g class="mark-rule role-axis-tick" pointer-events="none"><line transform="translate(0,0)" x2="0" y2="5" stroke="#888" stroke-width="1" opacity="1"/></g><g class="mark-rule role-axis-domain" pointer-events="none"><line transform="translate(0,0)" x2="200" y2="0" stroke="#888" stroke-width="1" opacity="1"/></g></g><path class="foreground" aria-hidden="true" d="" pointer-events="none" display="none"/></g></g><g class="mark-group role-title"><g transform="translate(100,16)"><path class="background" aria-hidden="true" d="M0,0h0v0h0Z" pointer-events="none"/><g><g class="mark-text role-title-text" role="graphics-symbol" aria-roledescription="title" aria-label="Title text 'Temer'" pointer-events="none"><text text-anchor="middle" transform="translate(0,13)" font-family="sans-serif" font-size="16px" fill="#000" opacity="1">Temer</text></g></g><path class="foreground" aria-hidden="true" d="" pointer-events="none" display="none"/></g></g></g><path class="foreground" aria-hidden="true" d="" display="none"/></g><g transform="translate(400,500)"><path class="background" aria-hidden="true" d="M0,0h200v0h-200Z"/><g><g class="mark-group role-axis" role="graphics-symbol" aria-roledescription="axis" aria-label="X-axis for a linear scale with values from 0.00 to 0.12"><g transform="translate(0.5,0.5)"><path class="background" aria-hidden="true" d="M0,0h0v0h0Z" pointer-events="none"/><g><g class="mark-rule role-axis-tick" pointer-events="none"><line transform="translate(0,0)" x2="0" y2="5" stroke="#888" stroke-width="1" opacity="1"/></g><g class="mark-rule role-axis-domain" pointer-events="none"><line transform="translate(0,0)" x2="200" y2="0" stroke="#888" stroke-width="1" opacity="1"/></g></g><path class="foreground" aria-hidden="true" d="" pointer-events="none" display="none"/></g></g><g class="mark-group role-title"><g transform="translate(100,16)"><path class="background" aria-hidden="true" d="M0,0h0v0h0Z" pointer-events="none"/><g><g class="mark-text role-title-text" role="graphics-symbol" aria-roledescription="title" aria-label="Title text 'Bolsonaro'" pointer-events="none"><text text-anchor="middle" transform="translate(0,13)" font-family="sans-serif" font-size="16px" fill="#000" opacity="1">Bolsonaro</text></g></g><path class="foreground" aria-hidden="true" d="" pointer-events="none" display="none"/></g></g></g><path class="foreground" aria-hidden="true" d="" display="none"/></g><g transform="translate(600,500)"><path class="background" aria-hidden="true" d="M0,0h200v0h-200Z"/><g><g class="mark-group role-axis" role="graphics-symbol" aria-roledescription="axis" aria-label="X-axis for a linear scale with values from 0.00 to 0.12"><g transform="translate(0.5,0.5)"><path class="background" aria-hidden="true" d="M0,0h0v0h0Z" pointer-events="none"/><g><g class="mark-rule role-axis-tick" pointer-events="none"><line transform="translate(0,0)" x2="0" y2="5" stroke="#888" stroke-width="1" opacity="1"/></g><g class="mark-rule role-axis-domain" pointer-events="none"><line transform="translate(0,0)" x2="200" y2="0" stroke="#888" stroke-width="1" opacity="1"/></g></g><path class="foreground" aria-hidden="true" d="" pointer-events="none" display="none"/></g></g><g class="mark-group role-title"><g transform="translate(100,16)"><path class="background" aria-hidden="true" d="M0,0h0v0h0Z" pointer-events="none"/><g><g class="mark-text role-title-text" role="graphics-symbol" aria-roledescription="title" aria-label="Title text 'Lula'" pointer-events="none"><text text-anchor="middle" transform="translate(0,13)" font-family="sans-serif" font-size="16px" fill="#000" opacity="1">Lula</text></g></g><path class="foreground" aria-hidden="true" d="" pointer-events="none" display="none"/></g></g></g><path class="foreground" aria-hidden="true" d="" display="none"/></g></g><g class="mark-group role-scope cell" role="graphics-object" aria-roledescription="group mark container"><g transform="translate(0,0)"><path class="background" aria-hidden="true" d="M0,0h200v500h-200Z"/><g><g class="mark-group role-axis" aria-hidden="true"><g transform="translate(0.5,0.5)"><path class="background" aria-hidden="true" d="M0,0h0v0h0Z" pointer-events="none"/><g><g class="mark-rule role-axis-grid" pointer-events="none"><line transform="translate(0,0)" x2="200" y2="0" stroke="#ddd" stroke-width="1" opacity="1"/><line transform="translate(0,45)" x2="200" y2="0" stroke="#ddd" stroke-width="1" opacity="1"/><line transform="translate(0,91)" x2="200" y2="0" stroke="#ddd" stroke-width="1" opacity="1"/><line transform="translate(0,136)" x2="200" y2="0" stroke="#ddd" stroke-width="1" opacity="1"/><line transform="translate(0,182)" x2="200" y2="0" stroke="#ddd" stroke-width="1" opacity="1"/><line transform="translate(0,227)" x2="200" y2="0" stroke="#ddd" stroke-width="1" opacity="1"/><line transform="translate(0,273)" x2="200" y2="0" stroke="#ddd" stroke-width="1" opacity="1"/><line transform="translate(0,318)" x2="200" y2="0" stroke="#ddd" stroke-width="1" opacity="1"/><line transform="translate(0,364)" x2="200" y2="0" stroke="#ddd" stroke-width="1" opacity="1"/><line transform="translate(0,409)" x2="200" y2="0" stroke="#ddd" stroke-width="1" opacity="1"/><line transform="translate(0,455)" x2="200" y2="0" stroke="#ddd" stroke-width="1" opacity="1"/><line transform="translate(0,500)" x2="200" y2="0" stroke="#ddd" stroke-width="1" opacity="1"/></g></g><path class="foreground" aria-hidden="true" d="" pointer-events="none" display="none"/></g></g><g class="mark-group role-scope child_pathgroup" role="graphics-object" aria-roledescription="group mark container"><g transform="translate(0,0)"><path class="background" aria-hidden="true" d="M0,0h200v500h-200Z"/><g><g class="mark-area role-mark child_marks" role="graphics-symbol" aria-roledescription="area mark container"><path d="M135.599,0L137.472,2.5L139.192,5L140.763,7.5L142.189,10L143.48,12.5L144.645,15L145.693,17.5L146.637,20L147.487,22.5L148.253,25L148.944,27.5L149.569,30L150.136,32.5L150.649,35L151.116,37.5L151.54,40L151.925,42.5L152.277,45L152.598,47.5L152.893,50L153.166,52.5L153.42,55L153.66,57.5L153.888,60L154.106,62.5L154.318,65L154.524,67.5L154.724,70L154.918,72.5L155.103,75L155.277,77.5L155.438,80L155.583,82.5L155.708,85L155.813,87.5L155.894,90L155.952,92.5L155.986,95L155.998,97.5L155.989,100L155.962,102.5L155.919,105L155.863,107.5L155.797,110L155.723,112.5L155.643,115L155.557,117.5L155.465,120L155.367,122.5L155.261,125L155.146,127.5L155.02,130L154.882,132.5L154.73,135L154.565,137.5L154.386,140L154.194,142.5L153.992,145L153.782,147.5L153.567,150L153.348,152.5L153.13,155L152.915,157.5L152.704,160L152.498,162.5L152.299,165L152.106,167.5L151.918,170L151.735,172.5L151.555,175L151.377,177.5L151.2,180L151.024,182.5L150.849,185L150.676,187.5L150.507,190L150.344,192.5L150.19,195L150.046,197.5L149.916,200L149.801,202.5L149.705,205L149.627,207.5L149.568,210L149.529,212.5L149.509,215L149.506,217.5L149.52,220L149.549,222.5L149.592,225L149.647,227.5L149.715,230L149.794,232.5L149.884,235L149.986,237.5L150.099,240L150.222,242.5L150.354,245L150.495,247.5L150.642,250L150.793,252.5L150.942,255L151.087,257.5L151.223,260L151.345,262.5L151.447,265L151.527,267.5L151.58,270L151.603,272.5L151.594,275L151.552,277.5L151.478,280L151.372,282.5L151.236,285L151.07,287.5L150.876,290L150.656,292.5L150.411,295L150.139,297.5L149.842,300L149.517,302.5L149.163,305L148.777,307.5L148.357,310L147.901,312.5L147.408,315L146.877,317.5L146.31,320L145.709,322.5L145.077,325L144.419,327.5L143.742,330L143.054,332.5L142.362,335L141.677,337.5L141.006,340L140.358,342.5L139.743,345L139.168,347.5L138.64,350L138.165,352.5L137.748,355L137.393,357.5L137.102,360L136.877,362.5L136.721,365L136.631,367.5L136.608,370L136.651,372.5L136.755,375L136.918,377.5L137.136,380L137.403,382.5L137.712,385L138.057,387.5L138.431,390L138.825,392.5L139.232,395L139.643,397.5L140.05,400L140.448,402.5L140.83,405L141.191,407.5L141.527,410L141.836,412.5L142.117,415L142.37,417.5L142.594,420L142.791,422.5L142.962,425L143.107,427.5L143.228,430L143.324,432.5L143.395,435L143.439,437.5L143.453,440L143.436,442.5L143.383,445L143.29,447.5L143.155,450L142.974,452.5L142.743,455L142.459,457.5L142.121,460L141.726,462.5L141.273,465L140.76,467.5L140.184,470L139.543,472.5L138.833,475L138.052,477.5L137.193,480L136.252,482.5L135.222,485L134.096,487.5L132.868,490L131.532,492.5L130.082,495L128.516,497.5L126.833,500L29.165,500L27.482,497.5L25.916,495L24.466,492.5L23.13,490L21.902,487.5L20.776,485L19.746,482.5L18.805,480L17.946,477.5L17.165,475L16.456,472.5L15.815,470L15.238,467.5L14.725,465L14.272,462.5L13.877,460L13.539,457.5L13.256,455L13.025,452.5L12.843,450L12.708,447.5L12.616,445L12.562,442.5L12.545,440L12.559,437.5L12.603,435L12.674,432.5L12.77,430L12.891,427.5L13.037,425L13.207,422.5L13.404,420L13.628,417.5L13.881,415L14.162,412.5L14.471,410L14.807,407.5L15.168,405L15.55,402.5L15.948,400L16.355,397.5L16.766,395L17.173,392.5L17.567,390L17.941,387.5L18.286,385L18.596,382.5L18.862,380L19.08,377.5L19.243,375L19.348,372.5L19.39,370L19.367,367.5L19.278,365L19.121,362.5L18.896,360L18.606,357.5L18.25,355L17.833,352.5L17.358,350L16.83,347.5L16.255,345L15.64,342.5L14.992,340L14.321,337.5L13.636,335L12.944,332.5L12.256,330L11.579,327.5L10.921,325L10.289,322.5L9.688,320L9.121,317.5L8.59,315L8.097,312.5L7.642,310L7.222,307.5L6.836,305L6.481,302.5L6.156,300L5.859,297.5L5.587,295L5.342,292.5L5.122,290L4.928,287.5L4.763,285L4.626,282.5L4.52,280L4.446,277.5L4.404,275L4.396,272.5L4.418,270L4.471,267.5L4.551,265L4.653,262.5L4.775,260L4.911,257.5L5.056,255L5.205,252.5L5.356,250L5.503,247.5L5.644,245L5.777,242.5L5.9,240L6.012,237.5L6.114,235L6.204,232.5L6.283,230L6.351,227.5L6.407,225L6.449,222.5L6.478,220L6.492,217.5L6.489,215L6.469,212.5L6.43,210L6.371,207.5L6.293,205L6.197,202.5L6.082,200L5.952,197.5L5.808,195L5.654,192.5L5.491,190L5.322,187.5L5.149,185L4.974,182.5L4.798,180L4.621,177.5L4.443,175L4.263,172.5L4.08,170L3.892,167.5L3.699,165L3.5,162.5L3.294,160L3.083,157.5L2.868,155L2.65,152.5L2.432,150L2.216,147.5L2.006,145L1.804,142.5L1.612,140L1.433,137.5L1.268,135L1.116,132.5L0.978,130L0.852,127.5L0.737,125L0.631,122.5L0.533,120L0.441,117.5L0.355,115L0.275,112.5L0.201,110L0.135,107.5L0.079,105L0.036,102.5L0.009,100L0,97.5L0.012,95L0.046,92.5L0.104,90L0.185,87.5L0.29,85L0.415,82.5L0.56,80L0.721,77.5L0.896,75L1.081,72.5L1.274,70L1.474,67.5L1.68,65L1.892,62.5L2.111,60L2.338,57.5L2.578,55L2.832,52.5L3.105,50L3.4,47.5L3.721,45L4.073,42.5L4.459,40L4.882,37.5L5.349,35L5.862,32.5L6.429,30L7.054,27.5L7.745,25L8.511,22.5L9.361,20L10.305,17.5L11.354,15L12.518,12.5L13.809,10L15.236,7.5L16.806,5L18.526,2.5L20.399,0Z" fill="#4c78a8"/></g></g><path class="foreground" aria-hidden="true" d="" display="none"/></g></g></g><path class="foreground" aria-hidden="true" d="" display="none"/></g><g transform="translate(200,0)"><path class="background" aria-hidden="true" d="M0,0h200v500h-200Z"/><g><g class="mark-group role-axis" aria-hidden="true"><g transform="translate(0.5,0.5)"><path class="background" aria-hidden="true" d="M0,0h0v0h0Z" pointer-events="none"/><g><g class="mark-rule role-axis-grid" pointer-events="none"><line transform="translate(0,0)" x2="200" y2="0" stroke="#ddd" stroke-width="1" opacity="1"/><line transform="translate(0,45)" x2="200" y2="0" stroke="#ddd" stroke-width="1" opacity="1"/><line transform="translate(0,91)" x2="200" y2="0" stroke="#ddd" stroke-width="1" opacity="1"/><line transform="translate(0,136)" x2="200" y2="0" stroke="#ddd" stroke-width="1" opacity="1"/><line transform="translate(0,182)" x2="200" y2="0" stroke="#ddd" stroke-width="1" opacity="1"/><line transform="translate(0,227)" x2="200" y2="0" stroke="#ddd" stroke-width="1" opacity="1"/><line transform="translate(0,273)" x2="200" y2="0" stroke="#ddd" stroke-width="1" opacity="1"/><line transform="translate(0,318)" x2="200" y2="0" stroke="#ddd" stroke-width="1" opacity="1"/><line transform="translate(0,364)" x2="200" y2="0" stroke="#ddd" stroke-width="1" opacity="1"/><line transform="translate(0,409)" x2="200" y2="0" stroke="#ddd" stroke-width="1" opacity="1"/><line transform="translate(0,455)" x2="200" y2="0" stroke="#ddd" stroke-width="1" opacity="1"/><line transform="translate(0,500)" x2="200" y2="0" stroke="#ddd" stroke-width="1" opacity="1"/></g></g><path class="foreground" aria-hidden="true" d="" pointer-events="none" display="none"/></g></g><g class="mark-group role-scope child_pathgroup" role="graphics-object" aria-roledescription="group mark container"><g transform="translate(0,0)"><path class="background" aria-hidden="true" d="M0,0h200v500h-200Z"/><g><g class="mark-area role-mark child_marks" role="graphics-symbol" aria-roledescription="area mark container"><path d="M121.825,0L122.639,2.5L123.41,5L124.141,7.5L124.836,10L125.499,12.5L126.136,15L126.754,17.5L127.36,20L127.962,22.5L128.567,25L129.185,27.5L129.821,30L130.483,32.5L131.178,35L131.912,37.5L132.687,40L133.509,42.5L134.379,45L135.298,47.5L136.266,50L137.28,52.5L138.337,55L139.433,57.5L140.561,60L141.716,62.5L142.888,65L144.07,67.5L145.253,70L146.427,72.5L147.583,75L148.713,77.5L149.806,80L150.857,82.5L151.857,85L152.8,87.5L153.681,90L154.496,92.5L155.243,95L155.919,97.5L156.524,100L157.059,102.5L157.524,105L157.923,107.5L158.257,110L158.529,112.5L158.744,115L158.906,117.5L159.017,120L159.083,122.5L159.107,125L159.094,127.5L159.047,130L158.971,132.5L158.869,135L158.746,137.5L158.606,140L158.452,142.5L158.288,145L158.119,147.5L157.949,150L157.781,152.5L157.619,155L157.467,157.5L157.328,160L157.207,162.5L157.106,165L157.029,167.5L156.978,170L156.957,172.5L156.967,175L157.012,177.5L157.093,180L157.213,182.5L157.373,185L157.575,187.5L157.82,190L158.111,192.5L158.447,195L158.831,197.5L159.262,200L159.742,202.5L160.27,205L160.848,207.5L161.474,210L162.149,212.5L162.872,215L163.641,217.5L164.457,220L165.317,222.5L166.219,225L167.161,227.5L168.141,230L169.155,232.5L170.2,235L171.272,237.5L172.367,240L173.479,242.5L174.603,245L175.734,247.5L176.865,250L177.991,252.5L179.105,255L180.201,257.5L181.273,260L182.314,262.5L183.32,265L184.286,267.5L185.206,270L186.077,272.5L186.896,275L187.66,277.5L188.367,280L189.015,282.5L189.604,285L190.133,287.5L190.601,290L191.008,292.5L191.354,295L191.641,297.5L191.867,300L192.033,302.5L192.141,305L192.19,307.5L192.183,310L192.12,312.5L192.003,315L191.835,317.5L191.618,320L191.356,322.5L191.053,325L190.713,327.5L190.34,330L189.941,332.5L189.52,335L189.083,337.5L188.636,340L188.185,342.5L187.734,345L187.289,347.5L186.855,350L186.436,352.5L186.037,355L185.659,357.5L185.306,360L184.98,362.5L184.682,365L184.414,367.5L184.175,370L183.965,372.5L183.783,375L183.629,377.5L183.499,380L183.391,382.5L183.303,385L183.231,387.5L183.172,390L183.121,392.5L183.076,395L183.032,397.5L182.986,400L182.933,402.5L182.869,405L182.792,407.5L182.698,410L182.584,412.5L182.447,415L182.286,417.5L182.098,420L181.881,422.5L181.633,425L181.352,427.5L181.036,430L180.684,432.5L180.293,435L179.861,437.5L179.386,440L178.865,442.5L178.296,445L177.677,447.5L177.005,450L176.277,452.5L175.491,455L174.644,457.5L173.735,460L172.762,462.5L171.722,465L170.613,467.5L169.434,470L168.184,472.5L166.86,475L165.461,477.5L163.986,480L162.434,482.5L160.804,485L159.096,487.5L157.311,490L155.448,492.5L153.51,495L151.499,497.5L149.42,500L42.771,500L40.691,497.5L38.68,495L36.742,492.5L34.88,490L33.094,487.5L31.386,485L29.756,482.5L28.204,480L26.729,477.5L25.331,475L24.007,472.5L22.756,470L21.577,467.5L20.468,465L19.428,462.5L18.455,460L17.546,457.5L16.7,455L15.914,452.5L15.186,450L14.513,447.5L13.894,445L13.325,442.5L12.804,440L12.329,437.5L11.897,435L11.506,432.5L11.154,430L10.838,427.5L10.557,425L10.309,422.5L10.092,420L9.904,417.5L9.743,415L9.606,412.5L9.493,410L9.398,407.5L9.321,405L9.258,402.5L9.204,400L9.158,397.5L9.114,395L9.069,392.5L9.019,390L8.959,387.5L8.888,385L8.799,382.5L8.692,380L8.562,377.5L8.407,375L8.225,372.5L8.015,370L7.776,367.5L7.508,365L7.21,362.5L6.884,360L6.531,357.5L6.154,355L5.754,352.5L5.335,350L4.901,347.5L4.456,345L4.006,342.5L3.554,340L3.107,337.5L2.67,335L2.249,332.5L1.85,330L1.477,327.5L1.137,325L0.834,322.5L0.572,320L0.355,317.5L0.187,315L0.071,312.5L0.008,310L0,307.5L0.049,305L0.157,302.5L0.324,300L0.55,297.5L0.836,295L1.182,292.5L1.59,290L2.058,287.5L2.586,285L3.175,282.5L3.823,280L4.53,277.5L5.294,275L6.113,272.5L6.984,270L7.905,267.5L8.87,265L9.876,262.5L10.917,260L11.989,257.5L13.085,255L14.199,252.5L15.325,250L16.456,247.5L17.587,245L18.712,242.5L19.824,240L20.918,237.5L21.99,235L23.035,232.5L24.049,230L25.029,227.5L25.971,225L26.874,222.5L27.733,220L28.549,217.5L29.319,215L30.041,212.5L30.716,210L31.342,207.5L31.92,205L32.448,202.5L32.928,200L33.359,197.5L33.743,195L34.079,192.5L34.37,190L34.615,187.5L34.817,185L34.977,182.5L35.097,180L35.178,177.5L35.223,175L35.233,172.5L35.212,170L35.161,167.5L35.084,165L34.983,162.5L34.862,160L34.723,157.5L34.572,155L34.41,152.5L34.241,150L34.071,147.5L33.902,145L33.739,142.5L33.585,140L33.444,137.5L33.321,135L33.22,132.5L33.143,130L33.096,127.5L33.083,125L33.107,122.5L33.173,120L33.285,117.5L33.446,115L33.661,112.5L33.934,110L34.268,107.5L34.666,105L35.131,102.5L35.666,100L36.271,97.5L36.948,95L37.694,92.5L38.509,90L39.39,87.5L40.334,85L41.333,82.5L42.384,80L43.478,77.5L44.607,75L45.763,72.5L46.938,70L48.12,67.5L49.302,65L50.475,62.5L51.629,60L52.757,57.5L53.853,55L54.91,52.5L55.924,50L56.892,47.5L57.811,45L58.681,42.5L59.503,40L60.279,37.5L61.012,35L61.707,32.5L62.369,30L63.006,27.5L63.623,25L64.229,22.5L64.831,20L65.437,17.5L66.055,15L66.692,12.5L67.355,10L68.049,7.5L68.78,5L69.551,2.5L70.365,0Z" fill="#f58518"/></g></g><path class="foreground" aria-hidden="true" d="" display="none"/></g></g></g><path class="foreground" aria-hidden="true" d="" display="none"/></g><g transform="translate(400,0)"><path class="background" aria-hidden="true" d="M0,0h200v500h-200Z"/><g><g class="mark-group role-axis" aria-hidden="true"><g transform="translate(0.5,0.5)"><path class="background" aria-hidden="true" d="M0,0h0v0h0Z" pointer-events="none"/><g><g class="mark-rule role-axis-grid" pointer-events="none"><line transform="translate(0,0)" x2="200" y2="0" stroke="#ddd" stroke-width="1" opacity="1"/><line transform="translate(0,45)" x2="200" y2="0" stroke="#ddd" stroke-width="1" opacity="1"/><line transform="translate(0,91)" x2="200" y2="0" stroke="#ddd" stroke-width="1" opacity="1"/><line transform="translate(0,136)" x2="200" y2="0" stroke="#ddd" stroke-width="1" opacity="1"/><line transform="translate(0,182)" x2="200" y2="0" stroke="#ddd" stroke-width="1" opacity="1"/><line transform="translate(0,227)" x2="200" y2="0" stroke="#ddd" stroke-width="1" opacity="1"/><line transform="translate(0,273)" x2="200" y2="0" stroke="#ddd" stroke-width="1" opacity="1"/><line transform="translate(0,318)" x2="200" y2="0" stroke="#ddd" stroke-width="1" opacity="1"/><line transform="translate(0,364)" x2="200" y2="0" stroke="#ddd" stroke-width="1" opacity="1"/><line transform="translate(0,409)" x2="200" y2="0" stroke="#ddd" stroke-width="1" opacity="1"/><line transform="translate(0,455)" x2="200" y2="0" stroke="#ddd" stroke-width="1" opacity="1"/><line transform="translate(0,500)" x2="200" y2="0" stroke="#ddd" stroke-width="1" opacity="1"/></g></g><path class="foreground" aria-hidden="true" d="" pointer-events="none" display="none"/></g></g><g class="mark-group role-scope child_pathgroup" role="graphics-object" aria-roledescription="group mark container"><g transform="translate(0,0)"><path class="background" aria-hidden="true" d="M0,0h200v500h-200Z"/><g><g class="mark-area role-mark child_marks" role="graphics-symbol" aria-roledescription="area mark container"><path d="M135.417,0L136.874,2.5L138.146,5L139.242,7.5L140.176,10L140.965,12.5L141.629,15L142.189,17.5L142.665,20L143.079,22.5L143.449,25L143.793,27.5L144.124,30L144.456,32.5L144.8,35L145.163,37.5L145.553,40L145.976,42.5L146.436,45L146.938,47.5L147.485,50L148.078,52.5L148.721,55L149.412,57.5L150.151,60L150.933,62.5L151.755,65L152.609,67.5L153.484,70L154.369,72.5L155.252,75L156.119,77.5L156.956,80L157.751,82.5L158.493,85L159.174,87.5L159.786,90L160.328,92.5L160.8,95L161.206,97.5L161.553,100L161.849,102.5L162.102,105L162.324,107.5L162.523,110L162.708,112.5L162.885,115L163.06,117.5L163.233,120L163.406,122.5L163.577,125L163.744,127.5L163.905,130L164.058,132.5L164.199,135L164.331,137.5L164.452,140L164.566,142.5L164.677,145L164.789,147.5L164.907,150L165.036,152.5L165.179,155L165.337,157.5L165.512,160L165.702,162.5L165.903,165L166.108,167.5L166.313,170L166.508,172.5L166.688,175L166.846,177.5L166.976,180L167.076,182.5L167.145,185L167.184,187.5L167.197,190L167.188,192.5L167.163,195L167.129,197.5L167.09,200L167.05,202.5L167.013,205L166.978,207.5L166.944,210L166.907,212.5L166.861,215L166.8,217.5L166.718,220L166.608,222.5L166.466,225L166.289,227.5L166.077,230L165.83,232.5L165.553,235L165.251,237.5L164.933,240L164.607,242.5L164.281,245L163.962,247.5L163.657,250L163.371,252.5L163.107,255L162.866,257.5L162.646,260L162.446,262.5L162.261,265L162.089,267.5L161.926,270L161.768,272.5L161.613,275L161.462,277.5L161.313,280L161.167,282.5L161.024,285L160.887,287.5L160.753,290L160.621,292.5L160.488,295L160.347,297.5L160.192,300L160.011,302.5L159.794,305L159.529,307.5L159.204,310L158.809,312.5L158.335,315L157.775,317.5L157.127,320L156.391,322.5L155.571,325L154.677,327.5L153.718,330L152.711,332.5L151.669,335L150.61,337.5L149.551,340L148.509,342.5L147.498,345L146.533,347.5L145.623,350L144.779,352.5L144.007,355L143.312,357.5L142.698,360L142.167,362.5L141.72,365L141.356,367.5L141.076,370L140.879,372.5L140.762,375L140.723,377.5L140.758,380L140.863,382.5L141.032,385L141.257,387.5L141.53,390L141.842,392.5L142.183,395L142.543,397.5L142.913,400L143.282,402.5L143.645,405L143.994,407.5L144.326,410L144.637,412.5L144.928,415L145.199,417.5L145.451,420L145.687,422.5L145.907,425L146.113,427.5L146.303,430L146.476,432.5L146.627,435L146.75,437.5L146.837,440L146.88,442.5L146.868,445L146.794,447.5L146.648,450L146.424,452.5L146.116,455L145.72,457.5L145.238,460L144.668,462.5L144.017,465L143.286,467.5L142.483,470L141.611,472.5L140.676,475L139.68,477.5L138.625,480L137.51,482.5L136.331,485L135.085,487.5L133.765,490L132.365,492.5L130.877,495L129.296,497.5L127.617,500L39.58,500L37.901,497.5L36.32,495L34.832,492.5L33.431,490L32.111,487.5L30.865,485L29.687,482.5L28.571,480L27.516,477.5L26.52,475L25.585,472.5L24.714,470L23.91,467.5L23.18,465L22.528,462.5L21.959,460L21.476,457.5L21.081,455L20.773,452.5L20.548,450L20.402,447.5L20.328,445L20.317,442.5L20.36,440L20.447,437.5L20.57,435L20.721,432.5L20.894,430L21.084,427.5L21.29,425L21.51,422.5L21.745,420L21.997,417.5L22.268,415L22.559,412.5L22.871,410L23.202,407.5L23.552,405L23.914,402.5L24.284,400L24.653,397.5L25.014,395L25.355,392.5L25.667,390L25.94,387.5L26.165,385L26.334,382.5L26.438,380L26.474,377.5L26.435,375L26.318,372.5L26.12,370L25.84,367.5L25.477,365L25.029,362.5L24.498,360L23.884,357.5L23.19,355L22.418,352.5L21.573,350L20.664,347.5L19.698,345L18.688,342.5L17.645,340L16.587,337.5L15.528,335L14.486,332.5L13.478,330L12.52,327.5L11.625,325L10.806,322.5L10.07,320L9.422,317.5L8.862,315L8.387,312.5L7.992,310L7.668,307.5L7.403,305L7.186,302.5L7.005,300L6.849,297.5L6.709,295L6.575,292.5L6.444,290L6.31,287.5L6.172,285L6.03,282.5L5.884,280L5.735,277.5L5.583,275L5.429,272.5L5.271,270L5.107,267.5L4.935,265L4.751,262.5L4.55,260L4.331,257.5L4.089,255L3.825,252.5L3.54,250L3.235,247.5L2.916,245L2.59,242.5L2.263,240L1.945,237.5L1.644,235L1.367,232.5L1.12,230L0.907,227.5L0.73,225L0.589,222.5L0.479,220L0.397,217.5L0.336,215L0.29,212.5L0.252,210L0.218,207.5L0.183,205L0.146,202.5L0.107,200L0.068,197.5L0.033,195L0.009,192.5L0,190L0.013,187.5L0.052,185L0.121,182.5L0.221,180L0.351,177.5L0.508,175L0.688,172.5L0.884,170L1.088,167.5L1.294,165L1.494,162.5L1.684,160L1.859,157.5L2.018,155L2.161,152.5L2.289,150L2.407,147.5L2.519,145L2.63,142.5L2.744,140L2.866,137.5L2.997,135L3.139,132.5L3.291,130L3.452,127.5L3.62,125L3.791,122.5L3.964,120L4.137,117.5L4.311,115L4.488,112.5L4.673,110L4.873,107.5L5.094,105L5.348,102.5L5.643,100L5.99,97.5L6.396,95L6.869,92.5L7.411,90L8.023,87.5L8.703,85L9.445,82.5L10.24,80L11.078,77.5L11.945,75L12.827,72.5L13.713,70L14.588,67.5L15.441,65L16.263,62.5L17.046,60L17.785,57.5L18.476,55L19.118,52.5L19.712,50L20.258,47.5L20.76,45L21.22,42.5L21.643,40L22.033,37.5L22.397,35L22.74,32.5L23.073,30L23.404,27.5L23.747,25L24.117,22.5L24.531,20L25.008,17.5L25.568,15L26.232,12.5L27.021,10L27.955,7.5L29.051,5L30.322,2.5L31.78,0Z" fill="#e45756"/></g></g><path class="foreground" aria-hidden="true" d="" display="none"/></g></g></g><path class="foreground" aria-hidden="true" d="" display="none"/></g><g transform="translate(600,0)"><path class="background" aria-hidden="true" d="M0,0h200v500h-200Z"/><g><g class="mark-group role-axis" aria-hidden="true"><g transform="translate(0.5,0.5)"><path class="background" aria-hidden="true" d="M0,0h0v0h0Z" pointer-events="none"/><g><g class="mark-rule role-axis-grid" pointer-events="none"><line transform="translate(0,0)" x2="200" y2="0" stroke="#ddd" stroke-width="1" opacity="1"/><line transform="translate(0,45)" x2="200" y2="0" stroke="#ddd" stroke-width="1" opacity="1"/><line transform="translate(0,91)" x2="200" y2="0" stroke="#ddd" stroke-width="1" opacity="1"/><line transform="translate(0,136)" x2="200" y2="0" stroke="#ddd" stroke-width="1" opacity="1"/><line transform="translate(0,182)" x2="200" y2="0" stroke="#ddd" stroke-width="1" opacity="1"/><line transform="translate(0,227)" x2="200" y2="0" stroke="#ddd" stroke-width="1" opacity="1"/><line transform="translate(0,273)" x2="200" y2="0" stroke="#ddd" stroke-width="1" opacity="1"/><line transform="translate(0,318)" x2="200" y2="0" stroke="#ddd" stroke-width="1" opacity="1"/><line transform="translate(0,364)" x2="200" y2="0" stroke="#ddd" stroke-width="1" opacity="1"/><line transform="translate(0,409)" x2="200" y2="0" stroke="#ddd" stroke-width="1" opacity="1"/><line transform="translate(0,455)" x2="200" y2="0" stroke="#ddd" stroke-width="1" opacity="1"/><line transform="translate(0,500)" x2="200" y2="0" stroke="#ddd" stroke-width="1" opacity="1"/></g></g><path class="foreground" aria-hidden="true" d="" pointer-events="none" display="none"/></g></g><g class="mark-group role-scope child_pathgroup" role="graphics-object" aria-roledescription="group mark container"><g transform="translate(0,0)"><path class="background" aria-hidden="true" d="M0,0h200v500h-200Z"/><g><g class="mark-area role-mark child_marks" role="graphics-symbol" aria-roledescription="area mark container"><path d="M149.946,0L151.77,2.5L153.403,5L154.848,7.5L156.113,10L157.208,12.5L158.146,15L158.941,17.5L159.609,20L160.162,22.5L160.617,25L160.985,27.5L161.28,30L161.511,32.5L161.689,35L161.821,37.5L161.914,40L161.975,42.5L162.011,45L162.025,47.5L162.024,50L162.014,52.5L161.998,55L161.983,57.5L161.972,60L161.97,62.5L161.981,65L162.008,67.5L162.052,70L162.114,72.5L162.196,75L162.296,77.5L162.415,80L162.55,82.5L162.701,85L162.867,87.5L163.047,90L163.24,92.5L163.448,95L163.67,97.5L163.908,100L164.163,102.5L164.436,105L164.729,107.5L165.041,110L165.373,112.5L165.724,115L166.093,117.5L166.477,120L166.873,122.5L167.28,125L167.692,127.5L168.107,130L168.523,132.5L168.938,135L169.348,137.5L169.755,140L170.156,142.5L170.553,145L170.946,147.5L171.334,150L171.719,152.5L172.099,155L172.472,157.5L172.837,160L173.191,162.5L173.529,165L173.846,167.5L174.139,170L174.401,172.5L174.629,175L174.819,177.5L174.968,180L175.075,182.5L175.14,185L175.165,187.5L175.154,190L175.112,192.5L175.043,195L174.955,197.5L174.853,200L174.744,202.5L174.634,205L174.527,207.5L174.428,210L174.34,212.5L174.265,215L174.205,217.5L174.159,220L174.13,222.5L174.117,225L174.119,227.5L174.137,230L174.172,232.5L174.223,235L174.291,237.5L174.375,240L174.476,242.5L174.591,245L174.719,247.5L174.857,250L175.001,252.5L175.146,255L175.286,257.5L175.414,260L175.526,262.5L175.613,265L175.671,267.5L175.695,270L175.68,272.5L175.624,275L175.524,277.5L175.382,280L175.196,282.5L174.97,285L174.703,287.5L174.398,290L174.056,292.5L173.677,295L173.26,297.5L172.805,300L172.309,302.5L171.768,305L171.179,307.5L170.538,310L169.841,312.5L169.085,315L168.267,317.5L167.386,320L166.443,322.5L165.441,325L164.381,327.5L163.269,330L162.112,332.5L160.915,335L159.685,337.5L158.43,340L157.157,342.5L155.87,345L154.576,347.5L153.279,350L151.981,352.5L150.686,355L149.395,357.5L148.111,360L146.833,362.5L145.566,365L144.31,367.5L143.069,370L141.847,372.5L140.648,375L139.478,377.5L138.344,380L137.252,382.5L136.21,385L135.225,387.5L134.304,390L133.454,392.5L132.681,395L131.99,397.5L131.386,400L130.871,402.5L130.447,405L130.116,407.5L129.875,410L129.723,412.5L129.657,415L129.671,417.5L129.759,420L129.913,422.5L130.125,425L130.384,427.5L130.679,430L130.998,432.5L131.329,435L131.658,437.5L131.972,440L132.259,442.5L132.506,445L132.703,447.5L132.841,450L132.911,452.5L132.907,455L132.824,457.5L132.661,460L132.417,462.5L132.09,465L131.684,467.5L131.201,470L130.643,472.5L130.014,475L129.315,477.5L128.55,480L127.72,482.5L126.827,485L125.871,487.5L124.851,490L123.769,492.5L122.624,495L121.417,497.5L120.148,500L55.547,500L54.278,497.5L53.071,495L51.926,492.5L50.844,490L49.824,487.5L48.868,485L47.975,482.5L47.145,480L46.38,477.5L45.681,475L45.052,472.5L44.494,470L44.011,467.5L43.605,465L43.278,462.5L43.034,460L42.87,457.5L42.788,455L42.784,452.5L42.854,450L42.992,447.5L43.189,445L43.436,442.5L43.723,440L44.037,437.5L44.366,435L44.696,432.5L45.016,430L45.311,427.5L45.57,425L45.782,422.5L45.936,420L46.024,417.5L46.038,415L45.972,412.5L45.82,410L45.579,407.5L45.248,405L44.824,402.5L44.309,400L43.705,397.5L43.014,395L42.241,392.5L41.391,390L40.47,387.5L39.485,385L38.443,382.5L37.351,380L36.217,377.5L35.047,375L33.848,372.5L32.626,370L31.385,367.5L30.129,365L28.862,362.5L27.584,360L26.3,357.5L25.009,355L23.714,352.5L22.416,350L21.119,347.5L19.825,345L18.538,342.5L17.265,340L16.01,337.5L14.78,335L13.583,332.5L12.426,330L11.314,327.5L10.254,325L9.251,322.5L8.309,320L7.428,317.5L6.61,315L5.854,312.5L5.157,310L4.516,307.5L3.927,305L3.386,302.5L2.89,300L2.435,297.5L2.018,295L1.639,292.5L1.297,290L0.992,287.5L0.725,285L0.498,282.5L0.313,280L0.171,277.5L0.071,275L0.015,272.5L0,270L0.023,267.5L0.082,265L0.169,262.5L0.281,260L0.409,257.5L0.549,255L0.694,252.5L0.838,250L0.976,247.5L1.104,245L1.219,242.5L1.32,240L1.404,237.5L1.472,235L1.523,232.5L1.558,230L1.576,227.5L1.578,225L1.565,222.5L1.535,220L1.49,217.5L1.43,215L1.355,212.5L1.267,210L1.168,207.5L1.061,205L0.951,202.5L0.842,200L0.74,197.5L0.652,195L0.583,192.5L0.541,190L0.53,187.5L0.555,185L0.62,182.5L0.727,180L0.876,177.5L1.066,175L1.294,172.5L1.556,170L1.849,167.5L2.166,165L2.504,162.5L2.858,160L3.223,157.5L3.596,155L3.976,152.5L4.36,150L4.749,147.5L5.142,145L5.539,142.5L5.94,140L6.347,137.5L6.757,135L7.171,132.5L7.587,130L8.003,127.5L8.415,125L8.822,122.5L9.218,120L9.602,117.5L9.971,115L10.322,112.5L10.654,110L10.966,107.5L11.258,105L11.532,102.5L11.787,100L12.025,97.5L12.247,95L12.455,92.5L12.648,90L12.828,87.5L12.994,85L13.145,82.5L13.28,80L13.399,77.5L13.499,75L13.581,72.5L13.643,70L13.687,67.5L13.714,65L13.724,62.5L13.723,60L13.712,57.5L13.697,55L13.681,52.5L13.671,50L13.67,47.5L13.684,45L13.72,42.5L13.781,40L13.874,37.5L14.006,35L14.184,32.5L14.415,30L14.71,27.5L15.078,25L15.533,22.5L16.086,20L16.754,17.5L17.549,15L18.487,12.5L19.582,10L20.847,7.5L22.292,5L23.924,2.5L25.749,0Z" fill="#72b7b2"/></g></g><path class="foreground" aria-hidden="true" d="" display="none"/></g></g></g><path class="foreground" aria-hidden="true" d="" display="none"/></g></g><g class="mark-group role-legend" role="graphics-symbol" aria-roledescription="legend" aria-label="Symbol legend titled 'Presidentes' for fill color with 4 values: Dilma, Temer, Bolsonaro, Lula"><g transform="translate(818,0)"><path class="background" aria-hidden="true" d="M0,0h165v85h-165Z" pointer-events="none"/><g><g class="mark-group role-legend-entry"><g transform="translate(0,23)"><path class="background" aria-hidden="true" d="M0,0h0v0h0Z" pointer-events="none"/><g><g class="mark-group role-scope" role="graphics-object" aria-roledescription="group mark container"><g transform="translate(0,0)"><path class="background" aria-hidden="true" d="M0,0h164.330078125v14h-164.330078125Z" pointer-events="none" opacity="1"/><g><g class="mark-symbol role-legend-symbol" pointer-events="none"><path transform="translate(7,7)" d="M5,0A5,5,0,1,1,-5,0A5,5,0,1,1,5,0" fill="#4c78a8" stroke-width="1.5" opacity="1"/></g><g class="mark-text role-legend-label" pointer-events="none"><text text-anchor="start" transform="translate(18,11)" font-family="sans-serif" font-size="14px" fill="#000" opacity="1">Dilma
(2011–2016)</text></g></g><path class="foreground" aria-hidden="true" d="" pointer-events="none" display="none"/></g><g transform="translate(0,16)"><path class="background" aria-hidden="true" d="M0,0h164.330078125v14h-164.330078125Z" pointer-events="none" opacity="1"/><g><g class="mark-symbol role-legend-symbol" pointer-events="none"><path transform="translate(7,7)" d="M5,0A5,5,0,1,1,-5,0A5,5,0,1,1,5,0" fill="#f58518" stroke-width="1.5" opacity="1"/></g><g class="mark-text role-legend-label" pointer-events="none"><text text-anchor="start" transform="translate(18,11)" font-family="sans-serif" font-size="14px" fill="#000" opacity="1">Temer
(2016–2018)</text></g></g><path class="foreground" aria-hidden="true" d="" pointer-events="none" display="none"/></g><g transform="translate(0,32)"><path class="background" aria-hidden="true" d="M0,0h164.330078125v14h-164.330078125Z" pointer-events="none" opacity="1"/><g><g class="mark-symbol role-legend-symbol" pointer-events="none"><path transform="translate(7,7)" d="M5,0A5,5,0,1,1,-5,0A5,5,0,1,1,5,0" fill="#e45756" stroke-width="1.5" opacity="1"/></g><g class="mark-text role-legend-label" pointer-events="none"><text text-anchor="start" transform="translate(18,11)" font-family="sans-serif" font-size="14px" fill="#000" opacity="1">Bolsonaro
(2019–2022)</text></g></g><path class="foreground" aria-hidden="true" d="" pointer-events="none" display="none"/></g><g transform="translate(0,48)"><path class="background" aria-hidden="true" d="M0,0h164.330078125v14h-164.330078125Z" pointer-events="none" opacity="1"/><g><g class="mark-symbol role-legend-symbol" pointer-events="none"><path transform="translate(7,7)" d="M5,0A5,5,0,1,1,-5,0A5,5,0,1,1,5,0" fill="#72b7b2" stroke-width="1.5" opacity="1"/></g><g class="mark-text role-legend-label" pointer-events="none"><text text-anchor="start" transform="translate(18,11)" font-family="sans-serif" font-size="14px" fill="#000" opacity="1">Lula
(2023–)</text></g></g><path class="foreground" aria-hidden="true" d="" pointer-events="none" display="none"/></g></g></g><path class="foreground" aria-hidden="true" d="" pointer-events="none" display="none"/></g></g><g class="mark-text role-legend-title" pointer-events="none"><text text-anchor="start" transform="translate(0,14)" font-family="sans-serif" font-size="18px" font-weight="bold" fill="#000" opacity="1">Presidentes</text></g></g><path class="foreground" aria-hidden="true" d="" pointer-events="none" display="none"/></g></g><g class="mark-group role-title"><g transform="translate(471.826171875,-30)"><path class="background" aria-hidden="true" d="M0,0h0v0h0Z" pointer-events="none"/><g><g class="mark-text role-title-text" role="graphics-symbol" aria-roledescription="title" aria-label="Title text 'Número de compromissos por mês'" pointer-events="none"><text text-anchor="middle" transform="translate(0,16)" font-family="Arial" font-size="20px" font-weight="bold" fill="black" opacity="1">Número de compromissos por mês</text></g></g><path class="foreground" aria-hidden="true" d="" pointer-events="none" display="none"/></g></g></g><path class="foreground" aria-hidden="true" d="" display="none"/></g></g></g></svg>