<svg xmlns="http://www.w3.org/2000/svg" xmlns:xlink="http://www.w3.org/1999/xlink" version="1.1" class="marks" width="1383" height="684" viewBox="0 0 1383 684"><rect width="1383" height="684" fill="white"/><g fill="none" stroke-miterlimit="10" transform="translate(39,32)"><g class="mark-group role-frame root" role="graphics-object" aria-roledescription="group mark container"><g transform="translate(0,0)"><path class="background" aria-hidden="true" d="M0,0h0v0h0Z"/><g><g class="mark-group role-column-title column-title" role="graphics-object" aria-roledescription="group mark container"><g transform="translate(600,626)"><path class="background" aria-hidden="true" d="M0,0h0v0h0Z"/><g><g class="mark-group role-title"><g transform="translate(0,10)"><path class="background" aria-hidden="true" d="M0,0h0v0h0Z" pointer-events="none"/><g><g class="mark-text role-title-text" role="graphics-symbol" aria-roledescription="title" aria-label="Title text 'president'" pointer-events="none"><text text-anchor="middle" transform="translate(0,9)" font-family="sans-serif" font-size="11px" font-weight="bold" fill="#000" opacity="1">president</text></g></g><path class="foreground" aria-hidden="true" d="" pointer-events="none" display="none"/></g></g></g><path class="foreground" aria-hidden="true" d="" display="none"/></g></g><g class="mark-group role-row-header row_header" role="graphics-object" aria-roledescription="group mark container"><g transform="translate(0,0)"><path class="background" aria-hidden="true" d="M0,0h0v600h0Z"/><g><g class="mark-group role-axis" role="graphics-symbol" aria-roledescription="axis" aria-label="Y-axis titled 'Month' for a linear scale with values from 1 to 12"><g transform="translate(0.5,0.5)"><path class="background" aria-hidden="true" d="M0,0h0v0h0Z" pointer-events="none"/><g><g class="mark-rule role-axis-tick" pointer-events="none"><line transform="translate(0,0)" x2="-5" y2="0" stroke="#888" stroke-width="1" opacity="1"/><line transform="translate(0,55)" x2="-5" y2="0" stroke="#888" stroke-width="1" opacity="1"/><line transform="translate(0,109)" x2="-5" y2="0" stroke="#888" stroke-width="1" opacity="1"/><line transform="translate(0,164)" x2="-5" y2="0" stroke="#888" stroke-width="1" opacity="1"/><line transform="translate(0,218)" x2="-5" y2="0" stroke="#888" stroke-width="1" opacity="1"/><line transform="translate(0,273)" x2="-5" y2="0" stroke="#888" stroke-width="1" opacity="1"/><line transform="translate(0,327)" x2="-5" y2="0" stroke="#888" stroke-width="1" opacity="1"/><line transform="translate(0,382)" x2="-5" y2="0" stroke="#888" stroke-width="1" opacity="1"/><line transform="translate(0,436)" x2="-5" y2="0" stroke="#888" stroke-width="1" opacity="1"/><line transform="translate(0,491)" x2="-5" y2="0" stroke="#888" stroke-width="1" opacity="1"/><line transform="translate(0,545)" x2="-5" y2="0" stroke="#888" stroke-width="1" opacity="1"/><line transform="translate(0,600)" x2="-5" y2="0" stroke="#888" stroke-width="1" opacity="1"/></g><g class="mark-text role-axis-label" pointer-events="none"><text text-anchor="end" transform="translate(-7,3)" font-family="sans-serif" font-size="10px" fill="#000" opacity="1">1</text><text text-anchor="end" transform="translate(-7,57.54545454545455)" font-family="sans-serif" font-size="10px" fill="#000" opacity="1">2</text><text text-anchor="end" transform="translate(-7,112.0909090909091)" font-family="sans-serif" font-size="10px" fill="#000" opacity="1">3</text><text text-anchor="end" transform="translate(-7,166.63636363636363)" font-family="sans-serif" font-size="10px" fill="#000" opacity="1">4</text><text text-anchor="end" transform="translate(-7,221.1818181818182)" font-family="sans-serif" font-size="10px" fill="#000" opacity="1">5</text><text text-anchor="end" transform="translate(-7,275.7272727272727)" font-family="sans-serif" font-size="10px" fill="#000" opacity="1">6</text><text text-anchor="end" transform="translate(-7,330.27272727272725)" font-family="sans-serif" font-size="10px" fill="#000" opacity="1">7</text><text text-anchor="end" transform="translate(-7,384.8181818181818)" font-family="sans-serif" font-size="10px" fill="#000" opacity="1">8</text><text text-anchor="end" transform="translate(-7,439.3636363636364)" font-family="sans-serif" font-size="10px" fill="#000" opacity="1">9</text><text text-anchor="end" transform="translate(-7,493.90909090909093)" font-family="sans-serif" font-size="10px" fill="#000" opacity="1">10</text><text text-anchor="end" transform="translate(-7,548.4545454545454)" font-family="sans-serif" font-size="10px" fill="#000" opacity="1">11</text><text text-anchor="end" transform="translate(-7,603)" font-family="sans-serif" font-size="10px" fill="#000" opacity="1">12</text></g><g class="mark-rule role-axis-domain" pointer-events="none"><line transform="translate(0,0)" x2="0" y2="600" stroke="#888" stroke-width="1" opacity="1"/></g><g class="mark-text role-axis-title" pointer-events="none"><text text-anchor="middle" transform="translate(-22.123046875,300) rotate(-90) translate(0,-2)" font-family="sans-serif" font-size="11px" font-weight="bold" fill="#000" opacity="1">Month</text></g></g><path class="foreground" aria-hidden="true" d="" pointer-events="none" display="none"/></g></g></g><path class="foreground" aria-hidden="true" d="" display="none"/></g></g><g class="mark-group role-column-footer column_footer" role="graphics-object" aria-roledescription="group mark container"><g transform="translate(0,600)"><path class="background" aria-hidden="true" d="M0,0h300v0h-300Z"/><g><g class="mark-group role-axis" role="graphics-symbol" aria-roledescription="axis" aria-label="X-axis for a linear scale with values from 0.00 to 0.12"><g transform="translate(0.5,0.5)"><path class="background" aria-hidden="true" d="M0,0h0v0h0Z" pointer-events="none"/><g><g class="mark-rule role-axis-tick" pointer-events="none"><line transform="translate(0,0)" x2="0" y2="5" stroke="#888" stroke-width="1" opacity="1"/></g><g class="mark-rule role-axis-domain" pointer-events="none"><line transform="translate(0,0)" x2="300" y2="0" stroke="#888" stroke-width="1" opacity="1"/></g></g><path class="foreground" aria-hidden="true" d="" pointer-events="none" display="none"/></g></g><g class="mark-group role-title"><g transform="translate(150,6)"><path class="background" aria-hidden="true" d="M0,0h0v0h0Z" pointer-events="none"/><g><g class="mark-text role-title-text" role="graphics-symbol" aria-roledescription="title" aria-label="Title text 'Dilma'" pointer-events="none"><text text-anchor="middle" transform="translate(0,8)" font-family="sans-serif" font-size="10px" fill="#000" opacity="1">Dilma</text></g></g><path class="foreground" aria-hidden="true" d="" pointer-events="none" display="none"/></g></g></g><path class="foreground" aria-hidden="true" d="" display="none"/></g><g transform="translate(300,600)"><path class="background" aria-hidden="true" d="M0,0h300v0h-300Z"/><g><g class="mark-group role-axis" role="graphics-symbol" aria-roledescription="axis" aria-label="X-axis for a linear scale with values from 0.00 to 0.12"><g transform="translate(0.5,0.5)"><path class="background" aria-hidden="true" d="M0,0h0v0h0Z" pointer-events="none"/><g><g class="mark-rule role-axis-tick" pointer-events="none"><line transform="translate(0,0)" x2="0" y2="5" stroke="#888" stroke-width="1" opacity="1"/></g><g class="mark-rule role-axis-domain" pointer-events="none"><line transform="translate(0,0)" x2="300" y2="0" stroke="#888" stroke-width="1" opacity="1"/></g></g><path class="foreground" aria-hidden="true" d="" pointer-events="none" display="none"/></g></g><g class="mark-group role-title"><g transform="translate(150,6)"><path class="background" aria-hidden="true" d="M0,0h0v0h0Z" pointer-events="none"/><g><g class="mark-text role-title-text" role="graphics-symbol" aria-roledescription="title" aria-label="Title text 'Temer'" pointer-events="none"><text text-anchor="middle" transform="translate(0,8)" font-family="sans-serif" font-size="10px" fill="#000" opacity="1">Temer</text></g></g><path class="foreground" aria-hidden="true" d="" pointer-events="none" display="none"/></g></g></g><path class="foreground" aria-hidden="true" d="" display="none"/></g><g transform="translate(600,600)"><path class="background" aria-hidden="true" d="M0,0h300v0h-300Z"/><g><g class="mark-group role-axis" role="graphics-symbol" aria-roledescription="axis" aria-label="X-axis for a linear scale with values from 0.00 to 0.12"><g transform="translate(0.5,0.5)"><path class="background" aria-hidden="true" d="M0,0h0v0h0Z" pointer-events="none"/><g><g class="mark-rule role-axis-tick" pointer-events="none"><line transform="translate(0,0)" x2="0" y2="5" stroke="#888" stroke-width="1" opacity="1"/></g><g class="mark-rule role-axis-domain" pointer-events="none"><line transform="translate(0,0)" x2="300" y2="0" stroke="#888" stroke-width="1" opacity="1"/></g></g><path class="foreground" aria-hidden="true" d="" pointer-events="none" display="none"/></g></g><g class="mark-group role-title"><g transform="translate(150,6)"><path class="background" aria-hidden="true" d="M0,0h0v0h0Z" pointer-events="none"/><g><g class="mark-text role-title-text" role="graphics-symbol" aria-roledescription="title" aria-label="Title text 'Bolsonaro'" pointer-events="none"><text text-anchor="middle" transform="translate(0,8)" font-family="sans-serif" font-size="10px" fill="#000" opacity="1">Bolsonaro</text></g></g><path class="foreground" aria-hidden="true" d="" pointer-events="none" display="none"/></g></g></g><path class="foreground" aria-hidden="true" d="" display="none"/></g><g transform="translate(900,600)"><path class="background" aria-hidden="true" d="M0,0h300v0h-300Z"/><g><g class="mark-group role-axis" role="graphics-symbol" aria-roledescription="axis" aria-label="X-axis for a linear scale with values from 0.00 to 0.12"><g transform="translate(0.5,0.5)"><path class="background" aria-hidden="true" d="M0,0h0v0h0Z" pointer-events="none"/><g><g class="mark-rule role-axis-tick" pointer-events="none"><line transform="translate(0,0)" x2="0" y2="5" stroke="#888" stroke-width="1" opacity="1"/></g><g class="mark-rule role-axis-domain" pointer-events="none"><line transform="translate(0,0)" x2="300" y2="0" stroke="#888" stroke-width="1" opacity="1"/></g></g><path class="foreground" aria-hidden="true" d="" pointer-events="none" display="none"/></g></g><g class="mark-group role-title"><g transform="translate(150,6)"><path class="background" aria-hidden="true" d="M0,0h0v0h0Z" pointer-events="none"/><g><g class="mark-text role-title-text" role="graphics-symbol" aria-roledescription="title" aria-label="Title text 'Lula'" pointer-events="none"><text text-anchor="middle" transform="translate(0,8)" font-family="sans-serif" font-size="10px" fill="#000" opacity="1">Lula</text></g></g><path class="foreground" aria-hidden="true" d="" pointer-events="none" display="none"/></g></g></g><path class="foreground" aria-hidden="true" d="" display="none"/></g></g><g class="mark-group role-scope cell" role="graphics-object" aria-roledescription="group mark container"><g transform="translate(0,0)"><path class="background" aria-hidden="true" d="M0,0h300v600h-300Z"/><g><g class="mark-group role-axis" aria-hidden="true"><g transform="translate(0.5,0.5)"><path class="background" aria-hidden="true" d="M0,0h0v0h0Z" pointer-events="none"/><g><g class="mark-rule role-axis-grid" pointer-events="none"><line transform="translate(0,0)" x2="300" y2="0" stroke="#ddd" stroke-width="1" opacity="1"/><line transform="translate(0,55)" x2="300" y2="0" stroke="#ddd" stroke-width="1" opacity="1"/><line transform="translate(0,109)" x2="300" y2="0" stroke="#ddd" stroke-width="1" opacity="1"/><line transform="translate(0,164)" x2="300" y2="0" stroke="#ddd" stroke-width="1" opacity="1"/><line transform="translate(0,218)" x2="300" y2="0" stroke="#ddd" stroke-width="1" opacity="1"/><line transform="translate(0,273)" x2="300" y2="0" stroke="#ddd" stroke-width="1" opacity="1"/><line transform="translate(0,327)" x2="300" y2="0" stroke="#ddd" stroke-width="1" opacity="1"/><line transform="translate(0,382)" x2="300" y2="0" stroke="#ddd" stroke-width="1" opacity="1"/><line transform="translate(0,436)" x2="300" y2="0" stroke="#ddd" stroke-width="1" opacity="1"/><line transform="translate(0,491)" x2="300" y2="0" stroke="#ddd" stroke-width="1" opacity="1"/><line transform="translate(0,545)" x2="300" y2="0" stroke="#ddd" stroke-width="1" opacity="1"/><line transform="translate(0,600)" x2="300" y2="0" stroke="#ddd" stroke-width="1" opacity="1"/></g></g><path class="foreground" aria-hidden="true" d="" pointer-events="none" display="none"/></g></g><g class="mark-group role-scope child_pathgroup" role="graphics-object" aria-roledescription="group mark container"><g transform="translate(0,0)"><path class="background" aria-hidden="true" d="M0,0h300v600h-300Z"/><g><g class="mark-area role-mark child_marks" role="graphics-symbol" aria-roledescription="area mark container"><path d="M205.516,0L208.339,3L210.908,6L213.23,9L215.314,12L217.176,15L218.833,18L220.304,21L221.607,24L222.762,27L223.786,30L224.695,33L225.502,36L226.22,39L226.859,42L227.427,45L227.931,48L228.379,51L228.775,54L229.127,57L229.441,60L229.723,63L229.979,66L230.215,69L230.437,72L230.65,75L230.857,78L231.06,81L231.26,84L231.455,87L231.643,90L231.82,93L231.981,96L232.122,99L232.237,102L232.323,105L232.377,108L232.397,111L232.384,114L232.34,117L232.266,120L232.169,123L232.052,126L231.92,129L231.777,132L231.629,135L231.476,138L231.32,141L231.161,144L230.997,147L230.827,150L230.646,153L230.453,156L230.243,159L230.015,162L229.768,165L229.501,168L229.217,171L228.918,174L228.607,177L228.29,180L227.969,183L227.65,186L227.335,189L227.028,192L226.729,195L226.438,198L226.154,201L225.875,204L225.599,207L225.322,210L225.041,213L224.756,216L224.464,219L224.167,222L223.865,225L223.563,228L223.263,231L222.972,234L222.693,237L222.432,240L222.195,243L221.984,246L221.803,249L221.655,252L221.538,255L221.455,258L221.402,261L221.379,264L221.384,267L221.416,270L221.472,273L221.552,276L221.656,279L221.783,282L221.934,285L222.109,288L222.307,291L222.528,294L222.768,297L223.026,300L223.295,303L223.57,306L223.845,309L224.111,312L224.36,315L224.586,318L224.779,321L224.935,324L225.049,327L225.117,330L225.138,333L225.113,336L225.042,339L224.928,342L224.772,345L224.579,348L224.349,351L224.083,354L223.781,357L223.44,360L223.059,363L222.633,366L222.157,369L221.626,372L221.037,375L220.386,378L219.672,381L218.896,384L218.061,387L217.172,390L216.238,393L215.269,396L214.276,399L213.275,402L212.278,405L211.302,408L210.359,411L209.463,414L208.627,417L207.862,420L207.175,423L206.575,426L206.068,429L205.657,432L205.345,435L205.134,438L205.023,441L205.01,444L205.094,447L205.27,450L205.533,453L205.875,456L206.289,459L206.764,462L207.29,465L207.853,468L208.442,471L209.042,474L209.64,477L210.225,480L210.784,483L211.309,486L211.791,489L212.225,492L212.608,495L212.94,498L213.22,501L213.453,504L213.64,507L213.787,510L213.897,513L213.974,516L214.02,519L214.036,522L214.023,525L213.978,528L213.898,531L213.78,534L213.619,537L213.41,540L213.148,543L212.83,546L212.45,549L212.005,552L211.491,555L210.904,558L210.241,561L209.498,564L208.668,567L207.744,570L206.718,573L205.58,576L204.318,579L202.919,582L201.369,585L199.655,588L197.765,591L195.688,594L193.416,597L190.946,600L41.451,600L38.981,597L36.71,594L34.633,591L32.742,588L31.029,585L29.479,582L28.079,579L26.817,576L25.679,573L24.653,570L23.73,567L22.899,564L22.156,561L21.493,558L20.907,555L20.393,552L19.947,549L19.567,546L19.249,543L18.987,540L18.779,537L18.618,534L18.499,531L18.42,528L18.374,525L18.361,522L18.377,519L18.423,516L18.5,513L18.61,510L18.757,507L18.945,504L19.177,501L19.457,498L19.789,495L20.172,492L20.606,489L21.088,486L21.613,483L22.172,480L22.757,477L23.356,474L23.956,471L24.544,468L25.107,465L25.633,462L26.108,459L26.522,456L26.864,453L27.127,450L27.303,447L27.387,444L27.375,441L27.263,438L27.052,435L26.74,432L26.329,429L25.822,426L25.222,423L24.536,420L23.77,417L22.934,414L22.038,411L21.095,408L20.119,405L19.122,402L18.121,399L17.129,396L16.159,393L15.225,390L14.336,387L13.501,384L12.725,381L12.011,378L11.36,375L10.771,372L10.241,369L9.765,366L9.338,363L8.957,360L8.617,357L8.315,354L8.049,351L7.818,348L7.625,345L7.47,342L7.355,339L7.284,336L7.259,333L7.28,330L7.348,327L7.462,324L7.618,321L7.812,318L8.037,315L8.286,312L8.552,309L8.827,306L9.102,303L9.372,300L9.629,297L9.869,294L10.09,291L10.288,288L10.463,285L10.614,282L10.741,279L10.845,276L10.925,273L10.982,270L11.013,267L11.018,264L10.995,261L10.943,258L10.859,255L10.743,252L10.594,249L10.413,246L10.203,243L9.965,240L9.704,237L9.426,234L9.134,231L8.834,228L8.532,225L8.23,222L7.933,219L7.641,216L7.356,213L7.076,210L6.798,207L6.522,204L6.243,201L5.959,198L5.669,195L5.37,192L5.062,189L4.747,186L4.428,183L4.108,180L3.79,177L3.479,174L3.18,171L2.896,168L2.63,165L2.382,162L2.154,159L1.945,156L1.751,153L1.57,150L1.4,147L1.236,144L1.077,141L0.922,138L0.769,135L0.62,132L0.478,129L0.346,126L0.228,123L0.131,120L0.058,117L0.013,114L0,111L0.02,108L0.074,105L0.16,102L0.276,99L0.416,96L0.577,93L0.754,90L0.942,87L1.138,84L1.337,81L1.541,78L1.747,75L1.96,72L2.182,69L2.419,66L2.675,63L2.956,60L3.27,57L3.622,54L4.019,51L4.466,48L4.97,45L5.538,42L6.177,39L6.895,36L7.703,33L8.611,30L9.635,27L10.79,24L12.093,21L13.564,18L15.221,15L17.083,12L19.168,9L21.489,6L24.058,3L26.881,0Z" fill="#4c78a8"/></g></g><path class="foreground" aria-hidden="true" d="" display="none"/></g></g></g><path class="foreground" aria-hidden="true" d="" display="none"/></g><g transform="translate(300,0)"><path class="background" aria-hidden="true" d="M0,0h300v600h-300Z"/><g><g class="mark-group role-axis" aria-hidden="true"><g transform="translate(0.5,0.5)"><path class="background" aria-hidden="true" d="M0,0h0v0h0Z" pointer-events="none"/><g><g class="mark-rule role-axis-grid" pointer-events="none"><line transform="translate(0,0)" x2="300" y2="0" stroke="#ddd" stroke-width="1" opacity="1"/><line transform="translate(0,55)" x2="300" y2="0" stroke="#ddd" stroke-width="1" opacity="1"/><line transform="translate(0,109)" x2="300" y2="0" stroke="#ddd" stroke-width="1" opacity="1"/><line transform="translate(0,164)" x2="300" y2="0" stroke="#ddd" stroke-width="1" opacity="1"/><line transform="translate(0,218)" x2="300" y2="0" stroke="#ddd" stroke-width="1" opacity="1"/><line transform="translate(0,273)" x2="300" y2="0" stroke="#ddd" stroke-width="1" opacity="1"/><line transform="translate(0,327)" x2="300" y2="0" stroke="#ddd" stroke-width="1" opacity="1"/><line transform="translate(0,382)" x2="300" y2="0" stroke="#ddd" stroke-width="1" opacity="1"/><line transform="translate(0,436)" x2="300" y2="0" stroke="#ddd" stroke-width="1" opacity="1"/><line transform="translate(0,491)" x2="300" y2="0" stroke="#ddd" stroke-width="1" opacity="1"/><line transform="translate(0,545)" x2="300" y2="0" stroke="#ddd" stroke-width="1" opacity="1"/><line transform="translate(0,600)" x2="300" y2="0" stroke="#ddd" stroke-width="1" opacity="1"/></g></g><path class="foreground" aria-hidden="true" d="" pointer-events="none" display="none"/></g></g><g class="mark-group role-scope child_pathgroup" role="graphics-object" aria-roledescription="group mark container"><g transform="translate(0,0)"><path class="background" aria-hidden="true" d="M0,0h300v600h-300Z"/><g><g class="mark-area role-mark child_marks" role="graphics-symbol" aria-roledescription="area mark container"><path d="M185.021,0L186.276,3L187.444,6L188.528,9L189.535,12L190.473,15L191.352,18L192.183,21L192.978,24L193.752,27L194.517,30L195.288,33L196.077,36L196.897,39L197.759,42L198.673,45L199.648,48L200.689,51L201.802,54L202.989,57L204.25,60L205.582,63L206.982,66L208.444,69L209.958,72L211.516,75L213.105,78L214.713,81L216.328,84L217.934,87L219.519,90L221.068,93L222.57,96L224.011,99L225.381,102L226.672,105L227.876,108L228.987,111L230.001,114L230.917,117L231.734,120L232.453,123L233.077,126L233.61,129L234.055,132L234.42,135L234.708,138L234.926,141L235.08,144L235.177,147L235.222,150L235.221,153L235.18,156L235.106,159L235.003,162L234.877,165L234.734,168L234.579,171L234.417,174L234.255,177L234.097,180L233.949,183L233.816,186L233.703,189L233.615,192L233.557,195L233.532,198L233.545,201L233.6,204L233.7,207L233.848,210L234.047,213L234.299,216L234.608,219L234.975,222L235.401,225L235.89,228L236.441,231L237.057,234L237.737,237L238.484,240L239.296,243L240.175,246L241.118,249L242.127,252L243.199,255L244.333,258L245.528,261L246.782,264L248.091,267L249.453,270L250.864,273L252.321,276L253.82,279L255.355,282L256.921,285L258.512,288L260.12,291L261.738,294L263.359,297L264.973,300L266.572,303L268.147,306L269.688,309L271.187,312L272.635,315L274.024,318L275.347,321L276.598,324L277.772,327L278.864,330L279.872,333L280.792,336L281.624,339L282.367,342L283.022,345L283.588,348L284.066,351L284.458,354L284.764,357L284.986,360L285.124,363L285.181,366L285.157,369L285.055,372L284.876,375L284.624,378L284.302,381L283.914,384L283.466,387L282.963,390L282.412,393L281.821,396L281.197,399L280.549,402L279.885,405L279.214,408L278.545,411L277.886,414L277.245,417L276.628,420L276.042,423L275.492,426L274.984,429L274.52,432L274.103,435L273.736,438L273.417,441L273.149,444L272.928,447L272.753,450L272.622,453L272.529,456L272.472,459L272.444,462L272.439,465L272.452,468L272.475,471L272.502,474L272.526,477L272.539,480L272.536,483L272.51,486L272.456,489L272.368,492L272.243,495L272.075,498L271.862,501L271.601,504L271.29,507L270.925,510L270.504,513L270.026,516L269.487,519L268.886,522L268.22,525L267.485,528L266.678,531L265.795,534L264.834,537L263.791,540L262.662,543L261.443,546L260.133,549L258.728,552L257.225,555L255.622,558L253.916,561L252.107,564L250.191,567L248.167,570L246.033,573L243.788,576L241.43,579L238.958,582L236.372,585L233.671,588L230.858,591L227.933,594L224.901,597L221.767,600L63.414,600L60.28,597L57.247,594L54.323,591L51.509,588L48.809,585L46.223,582L43.751,579L41.393,576L39.148,573L37.014,570L34.99,567L33.074,564L31.264,561L29.559,558L27.956,555L26.453,552L25.048,549L23.737,546L22.519,543L21.39,540L20.347,537L19.385,534L18.503,531L17.696,528L16.961,525L16.294,522L15.693,519L15.155,516L14.677,513L14.256,510L13.891,507L13.579,504L13.318,501L13.105,498L12.938,495L12.812,492L12.725,489L12.67,486L12.645,483L12.642,480L12.655,477L12.679,474L12.706,471L12.729,468L12.741,465L12.737,462L12.709,459L12.651,456L12.559,453L12.427,450L12.253,447L12.032,444L11.763,441L11.445,438L11.077,435L10.661,432L10.197,429L9.688,426L9.139,423L8.553,420L7.936,417L7.295,414L6.635,411L5.966,408L5.296,405L4.632,402L3.984,399L3.36,396L2.768,393L2.217,390L1.714,387L1.266,384L0.879,381L0.557,378L0.305,375L0.126,372L0.024,369L0,366L0.057,363L0.195,360L0.417,357L0.723,354L1.115,351L1.593,348L2.159,345L2.813,342L3.557,339L4.389,336L5.309,333L6.316,330L7.409,327L8.582,324L9.833,321L11.157,318L12.546,315L13.994,312L15.493,309L17.034,306L18.608,303L20.207,300L21.822,297L23.442,294L25.061,291L26.669,288L28.26,285L29.825,282L31.361,279L32.859,276L34.316,273L35.728,270L37.09,267L38.399,264L39.652,261L40.847,258L41.982,255L43.054,252L44.062,249L45.006,246L45.884,243L46.697,240L47.443,237L48.124,234L48.74,231L49.291,228L49.779,225L50.206,222L50.573,219L50.881,216L51.134,213L51.333,210L51.481,207L51.58,204L51.635,201L51.648,198L51.624,195L51.565,192L51.477,189L51.364,186L51.231,183L51.083,180L50.926,177L50.763,174L50.602,171L50.447,168L50.304,165L50.178,162L50.075,159L50,156L49.96,153L49.959,150L50.004,147L50.101,144L50.255,141L50.473,138L50.761,135L51.125,132L51.571,129L52.104,126L52.728,123L53.447,120L54.264,117L55.18,114L56.194,111L57.305,108L58.508,105L59.799,102L61.17,99L62.611,96L64.112,93L65.662,90L67.246,87L68.853,84L70.467,81L72.076,78L73.665,75L75.223,72L76.737,69L78.198,66L79.599,63L80.931,60L82.192,57L83.378,54L84.491,51L85.533,48L86.508,45L87.422,42L88.284,39L89.104,36L89.893,33L90.663,30L91.429,27L92.202,24L92.998,21L93.829,18L94.708,15L95.645,12L96.652,9L97.736,6L98.904,3L100.16,0Z" fill="#f58518"/></g></g><path class="foreground" aria-hidden="true" d="" display="none"/></g></g></g><path class="foreground" aria-hidden="true" d="" display="none"/></g><g transform="translate(600,0)"><path class="background" aria-hidden="true" d="M0,0h300v600h-300Z"/><g><g class="mark-group role-axis" aria-hidden="true"><g transform="translate(0.5,0.5)"><path class="background" aria-hidden="true" d="M0,0h0v0h0Z" pointer-events="none"/><g><g class="mark-rule role-axis-grid" pointer-events="none"><line transform="translate(0,0)" x2="300" y2="0" stroke="#ddd" stroke-width="1" opacity="1"/><line transform="translate(0,55)" x2="300" y2="0" stroke="#ddd" stroke-width="1" opacity="1"/><line transform="translate(0,109)" x2="300" y2="0" stroke="#ddd" stroke-width="1" opacity="1"/><line transform="translate(0,164)" x2="300" y2="0" stroke="#ddd" stroke-width="1" opacity="1"/><line transform="translate(0,218)" x2="300" y2="0" stroke="#ddd" stroke-width="1" opacity="1"/><line transform="translate(0,273)" x2="300" y2="0" stroke="#ddd" stroke-width="1" opacity="1"/><line transform="translate(0,327)" x2="300" y2="0" stroke="#ddd" stroke-width="1" opacity="1"/><line transform="translate(0,382)" x2="300" y2="0" stroke="#ddd" stroke-width="1" opacity="1"/><line transform="translate(0,436)" x2="300" y2="0" stroke="#ddd" stroke-width="1" opacity="1"/><line transform="translate(0,491)" x2="300" y2="0" stroke="#ddd" stroke-width="1" opacity="1"/><line transform="translate(0,545)" x2="300" y2="0" stroke="#ddd" stroke-width="1" opacity="1"/><line transform="translate(0,600)" x2="300" y2="0" stroke="#ddd" stroke-width="1" opacity="1"/></g></g><path class="foreground" aria-hidden="true" d="" pointer-events="none" display="none"/></g></g><g class="mark-group role-scope child_pathgroup" role="graphics-object" aria-roledescription="group mark container"><g transform="translate(0,0)"><path class="background" aria-hidden="true" d="M0,0h300v600h-300Z"/><g><g class="mark-area role-mark child_marks" role="graphics-symbol" aria-roledescription="area mark container"><path d="M203.44,0L205.676,3L207.623,6L209.296,9L210.715,12L211.909,15L212.906,18L213.74,21L214.442,24L215.043,27L215.573,30L216.055,33L216.513,36L216.965,39L217.425,42L217.906,45L218.417,48L218.966,51L219.561,54L220.206,57L220.908,60L221.67,63L222.497,66L223.388,69L224.344,72L225.363,75L226.437,78L227.557,81L228.712,84L229.885,87L231.059,90L232.216,93L233.336,96L234.401,99L235.396,102L236.308,105L237.128,108L237.854,111L238.485,114L239.027,117L239.49,120L239.885,123L240.227,126L240.53,129L240.807,132L241.069,135L241.326,138L241.583,141L241.842,144L242.104,147L242.364,150L242.618,153L242.863,156L243.092,159L243.304,162L243.496,165L243.672,168L243.833,171L243.986,174L244.138,177L244.297,180L244.469,183L244.662,186L244.877,189L245.116,192L245.376,195L245.652,198L245.935,201L246.214,204L246.48,207L246.72,210L246.924,213L247.086,216L247.201,219L247.266,222L247.285,225L247.263,228L247.207,231L247.127,234L247.032,237L246.93,240L246.829,243L246.733,246L246.642,249L246.554,252L246.464,255L246.364,258L246.244,261L246.095,264L245.907,267L245.673,270L245.389,273L245.053,276L244.668,279L244.239,282L243.776,285L243.29,288L242.793,291L242.298,294L241.816,297L241.358,300L240.929,303L240.534,306L240.174,309L239.847,312L239.549,315L239.275,318L239.019,321L238.775,324L238.539,327L238.308,330L238.081,333L237.857,336L237.639,339L237.428,342L237.226,345L237.034,348L236.849,351L236.667,354L236.48,357L236.279,360L236.048,363L235.772,366L235.434,369L235.018,372L234.507,375L233.889,378L233.155,381L232.3,384L231.325,387L230.237,390L229.048,393L227.773,396L226.434,399L225.051,402L223.65,405L222.253,408L220.883,411L219.561,414L218.305,417L217.13,420L216.046,423L215.063,426L214.186,429L213.419,432L212.765,435L212.225,438L211.797,441L211.483,444L211.28,447L211.187,450L211.2,453L211.314,456L211.524,459L211.82,462L212.191,465L212.627,468L213.111,471L213.63,474L214.167,477L214.707,480L215.237,483L215.745,486L216.221,489L216.659,492L217.056,495L217.412,498L217.729,501L218.01,504L218.26,507L218.485,510L218.686,513L218.865,516L219.022,519L219.152,522L219.248,525L219.3,528L219.296,531L219.225,534L219.074,537L218.829,540L218.482,543L218.025,546L217.453,549L216.765,552L215.962,555L215.048,558L214.029,561L212.911,564L211.7,567L210.4,570L209.014,573L207.539,576L205.973,579L204.308,582L202.534,585L200.639,588L198.61,591L196.434,594L194.102,597L191.605,600L55.68,600L53.183,597L50.851,594L48.675,591L46.646,588L44.751,585L42.977,582L41.312,579L39.746,576L38.271,573L36.885,570L35.585,567L34.374,564L33.256,561L32.237,558L31.323,555L30.52,552L29.832,549L29.26,546L28.803,543L28.456,540L28.212,537L28.06,534L27.989,531L27.986,528L28.038,525L28.133,522L28.263,519L28.42,516L28.599,513L28.8,510L29.025,507L29.275,504L29.556,501L29.873,498L30.229,495L30.626,492L31.064,489L31.54,486L32.048,483L32.578,480L33.118,477L33.656,474L34.174,471L34.659,468L35.094,465L35.466,462L35.761,459L35.971,456L36.085,453L36.098,450L36.005,447L35.802,444L35.488,441L35.061,438L34.52,435L33.866,432L33.099,429L32.222,426L31.239,423L30.155,420L28.98,417L27.724,414L26.402,411L25.032,408L23.636,405L22.234,402L20.852,399L19.512,396L18.237,393L17.048,390L15.96,387L14.985,384L14.13,381L13.396,378L12.778,375L12.267,372L11.851,369L11.513,366L11.237,363L11.007,360L10.805,357L10.618,354L10.436,351L10.251,348L10.059,345L9.857,342L9.646,339L9.428,336L9.204,333L8.977,330L8.746,327L8.51,324L8.266,321L8.01,318L7.736,315L7.438,312L7.111,309L6.751,306L6.356,303L5.928,300L5.469,297L4.987,294L4.492,291L3.995,288L3.509,285L3.046,282L2.617,279L2.232,276L1.896,273L1.612,270L1.378,267L1.19,264L1.041,261L0.921,258L0.821,255L0.731,252L0.643,249L0.553,246L0.456,243L0.355,240L0.254,237L0.158,234L0.078,231L0.022,228L0,225L0.019,222L0.085,219L0.199,216L0.361,213L0.565,210L0.805,207L1.071,204L1.351,201L1.633,198L1.909,195L2.169,192L2.408,189L2.624,186L2.816,183L2.988,180L3.147,177L3.299,174L3.452,171L3.614,168L3.789,165L3.981,162L4.193,159L4.422,156L4.667,153L4.921,150L5.182,147L5.443,144L5.702,141L5.959,138L6.216,135L6.478,132L6.755,129L7.058,126L7.4,123L7.795,120L8.258,117L8.8,114L9.432,111L10.157,108L10.977,105L11.889,102L12.884,99L13.949,96L15.069,93L16.226,90L17.4,87L18.574,84L19.728,81L20.849,78L21.923,75L22.941,72L23.897,69L24.789,66L25.615,63L26.377,60L27.079,57L27.724,54L28.319,51L28.868,48L29.379,45L29.86,42L30.32,39L30.772,36L31.23,33L31.713,30L32.242,27L32.843,24L33.545,21L34.379,18L35.376,15L36.57,12L37.989,9L39.662,6L41.609,3L43.845,0Z" fill="#e45756"/></g></g><path class="foreground" aria-hidden="true" d="" display="none"/></g></g></g><path class="foreground" aria-hidden="true" d="" display="none"/></g><g transform="translate(900,0)"><path class="background" aria-hidden="true" d="M0,0h300v600h-300Z"/><g><g class="mark-group role-axis" aria-hidden="true"><g transform="translate(0.5,0.5)"><path class="background" aria-hidden="true" d="M0,0h0v0h0Z" pointer-events="none"/><g><g class="mark-rule role-axis-grid" pointer-events="none"><line transform="translate(0,0)" x2="300" y2="0" stroke="#ddd" stroke-width="1" opacity="1"/><line transform="translate(0,55)" x2="300" y2="0" stroke="#ddd" stroke-width="1" opacity="1"/><line transform="translate(0,109)" x2="300" y2="0" stroke="#ddd" stroke-width="1" opacity="1"/><line transform="translate(0,164)" x2="300" y2="0" stroke="#ddd" stroke-width="1" opacity="1"/><line transform="translate(0,218)" x2="300" y2="0" stroke="#ddd" stroke-width="1" opacity="1"/><line transform="translate(0,273)" x2="300" y2="0" stroke="#ddd" stroke-width="1" opacity="1"/><line transform="translate(0,327)" x2="300" y2="0" stroke="#ddd" stroke-width="1" opacity="1"/><line transform="translate(0,382)" x2="300" y2="0" stroke="#ddd" stroke-width="1" opacity="1"/><line transform="translate(0,436)" x2="300" y2="0" stroke="#ddd" stroke-width="1" opacity="1"/><line transform="translate(0,491)" x2="300" y2="0" stroke="#ddd" stroke-width="1" opacity="1"/><line transform="translate(0,545)" x2="300" y2="0" stroke="#ddd" stroke-width="1" opacity="1"/><line transform="translate(0,600)" x2="300" y2="0" stroke="#ddd" stroke-width="1" opacity="1"/></g></g><path class="foreground" aria-hidden="true" d="" pointer-events="none" display="none"/></g></g><g class="mark-group role-scope child_pathgroup" role="graphics-object" aria-roledescription="group mark container"><g transform="translate(0,0)"><path class="background" aria-hidden="true" d="M0,0h300v600h-300Z"/><g><g class="mark-area role-mark child_marks" role="graphics-symbol" aria-roledescription="area mark container"><path d="M230.863,0L233.231,3L235.206,6L236.799,9L238.032,12L238.928,15L239.52,18L239.841,21L239.928,24L239.817,27L239.542,30L239.137,33L238.631,36L238.052,39L237.421,42L236.76,45L236.085,48L235.411,51L234.751,54L234.114,57L233.513,60L232.956,63L232.452,66L232.009,69L231.636,72L231.34,75L231.127,78L231.002,81L230.971,84L231.036,87L231.199,90L231.462,93L231.824,96L232.285,99L232.843,102L233.498,105L234.247,108L235.088,111L236.021,114L237.041,117L238.145,120L239.329,123L240.587,126L241.91,129L243.289,132L244.711,135L246.163,138L247.628,141L249.091,144L250.533,147L251.936,150L253.286,153L254.567,156L255.767,159L256.878,162L257.893,165L258.81,168L259.63,171L260.357,174L260.996,177L261.552,180L262.034,183L262.447,186L262.797,189L263.087,192L263.318,195L263.49,198L263.599,201L263.642,204L263.613,207L263.508,210L263.322,213L263.053,216L262.701,219L262.266,222L261.755,225L261.175,228L260.536,231L259.849,234L259.128,237L258.385,240L257.635,243L256.89,246L256.159,249L255.453,252L254.778,255L254.138,258L253.538,261L252.979,264L252.461,267L251.985,270L251.551,273L251.158,276L250.808,279L250.499,282L250.234,285L250.011,288L249.83,291L249.691,294L249.59,297L249.522,300L249.483,303L249.464,306L249.456,309L249.449,312L249.434,315L249.399,318L249.335,321L249.235,324L249.091,327L248.899,330L248.658,333L248.366,336L248.025,339L247.638,342L247.208,345L246.738,348L246.231,351L245.687,354L245.106,357L244.487,360L243.824,363L243.113,366L242.348,369L241.521,372L240.626,375L239.658,378L238.613,381L237.49,384L236.289,387L235.015,390L233.673,393L232.274,396L230.828,399L229.347,402L227.844,405L226.333,408L224.826,411L223.334,414L221.867,417L220.435,420L219.043,423L217.697,426L216.402,429L215.16,432L213.975,435L212.85,438L211.787,441L210.791,444L209.866,447L209.018,450L208.253,453L207.578,456L207,459L206.526,462L206.163,465L205.919,468L205.799,471L205.808,474L205.951,477L206.229,480L206.646,483L207.2,486L207.889,489L208.712,492L209.661,495L210.729,498L211.905,501L213.175,504L214.523,507L215.927,510L217.364,513L218.808,516L220.229,519L221.595,522L222.873,525L224.03,528L225.035,531L225.855,534L226.465,537L226.841,540L226.966,543L226.826,546L226.416,549L225.736,552L224.791,555L223.593,558L222.158,561L220.504,564L218.653,567L216.626,570L214.447,573L212.136,576L209.712,579L207.193,582L204.592,585L201.922,588L199.19,591L196.404,594L193.57,597L190.692,600L72.95,600L70.072,597L67.238,594L64.452,591L61.72,588L59.049,585L56.449,582L53.93,579L51.506,576L49.195,573L47.016,570L44.989,567L43.138,564L41.484,561L40.048,558L38.851,555L37.906,552L37.226,549L36.816,546L36.676,543L36.8,540L37.177,537L37.787,534L38.607,531L39.612,528L40.769,525L42.047,522L43.413,519L44.834,516L46.277,513L47.715,510L49.119,507L50.466,504L51.737,501L52.913,498L53.981,495L54.93,492L55.752,489L56.442,486L56.996,483L57.413,480L57.691,477L57.834,474L57.843,471L57.723,468L57.478,465L57.116,462L56.642,459L56.064,456L55.389,453L54.624,450L53.776,447L52.851,444L51.855,441L50.792,438L49.667,435L48.482,432L47.24,429L45.945,426L44.599,423L43.207,420L41.775,417L40.308,414L38.816,411L37.309,408L35.798,405L34.295,402L32.814,399L31.368,396L29.968,393L28.627,390L27.353,387L26.152,384L25.029,381L23.984,378L23.016,375L22.121,372L21.294,369L20.528,366L19.818,363L19.155,360L18.535,357L17.955,354L17.411,351L16.903,348L16.434,345L16.004,342L15.617,339L15.276,336L14.984,333L14.743,330L14.551,327L14.407,324L14.307,321L14.243,318L14.208,315L14.193,312L14.186,309L14.178,306L14.159,303L14.119,300L14.052,297L13.951,294L13.811,291L13.631,288L13.408,285L13.143,282L12.834,279L12.484,276L12.091,273L11.657,270L11.181,267L10.663,264L10.104,261L9.504,258L8.864,255L8.189,252L7.483,249L6.752,246L6.006,243L5.256,240L4.514,237L3.793,234L3.106,231L2.467,228L1.886,225L1.375,222L0.941,219L0.589,216L0.32,213L0.134,210L0.029,207L0,204L0.043,201L0.152,198L0.324,195L0.555,192L0.845,189L1.195,186L1.608,183L2.09,180L2.646,177L3.285,174L4.011,171L4.832,168L5.749,165L6.764,162L7.875,159L9.075,156L10.356,153L11.705,150L13.109,147L14.551,144L16.013,141L17.479,138L18.931,135L20.353,132L21.732,129L23.055,126L24.313,123L25.497,120L26.601,117L27.621,114L28.553,111L29.395,108L30.144,105L30.799,102L31.357,99L31.818,96L32.18,93L32.443,90L32.606,87L32.671,84L32.64,81L32.515,78L32.302,75L32.006,72L31.632,69L31.19,66L30.686,63L30.129,60L29.527,57L28.891,54L28.231,51L27.557,48L26.882,45L26.221,42L25.59,39L25.01,36L24.505,33L24.099,30L23.825,27L23.713,24L23.8,21L24.122,18L24.714,15L25.61,12L26.842,9L28.436,6L30.411,3L32.779,0Z" fill="#72b7b2"/></g></g><path class="foreground" aria-hidden="true" d="" display="none"/></g></g></g><path class="foreground" aria-hidden="true" d="" display="none"/></g></g><g class="mark-group role-legend" role="graphics-symbol" aria-roledescription="legend" aria-label="Symbol legend titled 'President' for fill color with 4 values: Dilma, Temer, Bolsonaro, Lula"><g transform="translate(1218,0)"><path class="background" aria-hidden="true" d="M0,0h121v66h-121Z" pointer-events="none"/><g><g class="mark-group role-legend-entry"><g transform="translate(0,16)"><path class="background" aria-hidden="true" d="M0,0h0v0h0Z" pointer-events="none"/><g><g class="mark-group role-scope" role="graphics-object" aria-roledescription="group mark container"><g transform="translate(0,0)"><path class="background" aria-hidden="true" d="M0,0h120.521484375v11h-120.521484375Z" pointer-events="none" opacity="1"/><g><g class="mark-symbol role-legend-symbol" pointer-events="none"><path transform="translate(6,6)" d="M5,0A5,5,0,1,1,-5,0A5,5,0,1,1,5,0" fill="#4c78a8" stroke-width="1.5" opacity="1"/></g><g class="mark-text role-legend-label" pointer-events="none"><text text-anchor="start" transform="translate(16,9)" font-family="sans-serif" font-size="10px" fill="#000" opacity="1">Dilma
(2011–2016)</text></g></g><path class="foreground" aria-hidden="true" d="" pointer-events="none" display="none"/></g><g transform="translate(0,13)"><path class="background" aria-hidden="true" d="M0,0h120.521484375v11h-120.521484375Z" pointer-events="none" opacity="1"/><g><g class="mark-symbol role-legend-symbol" pointer-events="none"><path transform="translate(6,6)" d="M5,0A5,5,0,1,1,-5,0A5,5,0,1,1,5,0" fill="#f58518" stroke-width="1.5" opacity="1"/></g><g class="mark-text role-legend-label" pointer-events="none"><text text-anchor="start" transform="translate(16,9)" font-family="sans-serif" font-size="10px" fill="#000" opacity="1">Temer
(2016–2018)</text></g></g><path class="foreground" aria-hidden="true" d="" pointer-events="none" display="none"/></g><g transform="translate(0,26)"><path class="background" aria-hidden="true" d="M0,0h120.521484375v11h-120.521484375Z" pointer-events="none" opacity="1"/><g><g class="mark-symbol role-legend-symbol" pointer-events="none"><path transform="translate(6,6)" d="M5,0A5,5,0,1,1,-5,0A5,5,0,1,1,5,0" fill="#e45756" stroke-width="1.5" opacity="1"/></g><g class="mark-text role-legend-label" pointer-events="none"><text text-anchor="start" transform="translate(16,9)" font-family="sans-serif" font-size="10px" fill="#000" opacity="1">Bolsonaro
(2019–2022)</text></g></g><path class="foreground" aria-hidden="true" d="" pointer-events="none" display="none"/></g><g transform="translate(0,39)"><path class="background" aria-hidden="true" d="M0,0h120.521484375v11h-120.521484375Z" pointer-events="none" opacity="1"/><g><g class="mark-symbol role-legend-symbol" pointer-events="none"><path transform="translate(6,6)" d="M5,0A5,5,0,1,1,-5,0A5,5,0,1,1,5,0" fill="#72b7b2" stroke-width="1.5" opacity="1"/></g><g class="mark-text role-legend-label" pointer-events="none"><text text-anchor="start" transform="translate(16,9)" font-family="sans-serif" font-size="10px" fill="#000" opacity="1">Lula
(2023–)</text></g></g><path class="foreground" aria-hidden="true" d="" pointer-events="none" display="none"/></g></g></g><path class="foreground" aria-hidden="true" d="" pointer-events="none" display="none"/></g></g><g class="mark-text role-legend-title" pointer-events="none"><text text-anchor="start" transform="translate(0,9)" font-family="sans-serif" font-size="11px" font-weight="bold" fill="#000" opacity="1">President</text></g></g><path class="foreground" aria-hidden="true" d="" pointer-events="none" display="none"/></g></g><g class="mark-group role-title"><g transform="translate(652.9384765625,-27)"><path class="background" aria-hidden="true" d="M0,0h0v0h0Z" pointer-events="none"/><g><g class="mark-text role-title-text" role="graphics-symbol" aria-roledescription="title" aria-label="Title text 'Número de compromissos presidenciais por mês'" pointer-events="none"><text text-anchor="middle" transform="translate(0,14)" font-family="Arial" font-size="18px" font-weight="bold" fill="black" opacity="1">Número de compromissos presidenciais por mês</text></g></g><path class="foreground" aria-hidden="true" d="" pointer-events="none" display="none"/></g></g></g><path class="foreground" aria-hidden="true" d="" display="none"/></g></g></g></svg>